<svg fill="none" xmlns="http://www.w3.org/2000/svg" viewBox="0 0 576 576"><path fill-rule="evenodd" clip-rule="evenodd" d="M420.611 355.481C412.234 358.757 402.543 363.673 401.645 372.622C413.023 363.868 427.08 358.643 441.415 357.84C431.512 370.317 419.007 380.72 404.936 388.186C392.3 394.892 376.302 402.043 375.218 416.307C388.788 400.147 409.654 390.364 430.757 390.266C417.256 410.04 395.608 424.066 372.043 428.306C372.852 434.382 398.979 447.397 406.589 449.901C412.009 473.185 414.357 503.379 419.777 526.663C421.11 532.393 422.284 538.976 418.776 543.699C415.295 548.383 408.722 549.189 402.9 549.602C379.957 551.234 348.567 552.865 325.624 554.495C322.876 542.051 320.13 529.606 317.383 517.16C278.683 520.754 112.774 558.773 82.3273 538.828C-35.2065 461.833 114.67 435.605 117.891 341.864C118.629 320.37 54.0049 282.798 55.031 260.834C55.701 246.493 57.9211 232.484 65.0167 220.169C72.1124 207.855 83.3564 198.368 95.5768 191.112C78.7515 186.788 66.0079 170.016 66.3488 152.648C66.6898 135.279 80.0824 119.021 97.0637 115.361C89.0573 105.819 76.4502 101.446 67.2415 93.0593C56.514 83.2896 51.1234 67.5302 55.031 53.5569C58.9385 39.5835 72.6967 28.5895 87.1933 29.209C99.1004 29.7178 109.579 37.249 117.891 45.7907C130.781 59.0379 140.368 75.4757 145.551 93.2183C149.006 105.044 161.667 111.06 172.36 117.18C183.052 123.3 194.157 133.961 191.144 145.906C187.161 129.559 246.357 149.03 300.043 153.797C307.172 154.43 314.842 155.351 320.112 160.193C327.684 167.151 339.053 169.69 348.865 166.612C351.987 174.351 354.284 183.044 351.63 190.956C348.976 198.868 339.576 204.907 332.062 201.277C334.023 211.368 335.985 221.46 337.946 231.55C357.158 231.782 376.368 232.174 395.575 232.728C405.754 233.021 416.393 233.484 425.24 238.527C434.087 243.57 445.928 236.426 454.67 218.07C449.012 248.022 455.715 259.99 467.275 263.244C467.299 263.017 468.197 263.124 468.224 262.899C471.665 233.3 491.75 207.02 519.702 196.623C517.23 202.319 499.544 213.569 487.263 227.936C475.267 241.97 469.525 260.757 468.931 264.131C487.978 259.137 494.329 273.327 526.645 260.834C511.877 278.588 483.421 282.96 464.006 270.457C454.847 280.672 455.36 291.983 448.871 304.072C459.893 290.373 474.529 302.518 462.918 311.397C469.081 311.988 475.744 312.801 480.214 317.084C484.683 321.367 484.795 330.382 479.029 332.637C459.557 340.252 440.083 347.866 420.611 355.481Z" fill="#93DEFF"/><path fill-rule="evenodd" clip-rule="evenodd" d="M389.002 287.975C389.708 286.635 390.473 285.23 391.77 284.449C393.067 283.668 395.058 283.829 395.756 285.173C396.499 286.602 395.393 288.326 394.095 289.28C392.796 290.235 391.199 290.908 390.356 292.28C394.916 295.285 399.475 298.29 404.035 301.294C407.606 303.647 411.647 307.008 410.916 311.222C410.488 313.693 408.393 315.613 406.061 316.535C403.729 317.457 401.165 317.553 398.658 317.626C381.812 318.111 364.949 318.025 348.108 317.369C346.94 317.324 345.637 317.215 344.859 316.342C344.255 315.666 344.131 314.703 344.034 313.802C343.064 304.838 342.095 295.874 341.126 286.911C341.09 286.58 341.056 286.234 341.175 285.923C341.673 284.615 343.631 285.42 344.725 286.294C352.478 292.482 364.871 291.755 371.847 284.703C373.533 283 376.402 283.22 378.568 284.247C380.733 285.274 382.545 286.946 384.717 287.958C384.485 286.702 385.593 285.376 386.87 285.382C388.147 285.387 389.244 286.721 389.002 287.975Z" fill="white"/><path fill-rule="evenodd" clip-rule="evenodd" d="M117.717 189.048C117.717 189.048 115.836 166.507 120.572 159.261C125.309 152.015 143.352 149.834 143.352 149.834C143.352 149.834 192.804 149.187 219.524 150.208C246.242 151.23 299.679 155.809 299.679 155.809C299.679 155.809 306.622 157.324 309.744 159.261C312.866 161.198 317.219 166.695 317.219 166.695C317.219 166.695 326.693 168.077 331.406 168.264C336.119 168.452 340.437 167.621 340.437 167.621C340.437 167.621 346.443 185.137 342.197 193.487C337.951 201.836 323.694 200.541 323.694 200.541L328.741 231.788C328.741 231.788 322.74 234.623 319.461 238.178C316.182 241.734 314.865 246.832 314.865 246.832L324.611 341.864C324.611 341.864 327.478 346.804 333.637 348.68C339.795 350.556 353.671 350.716 353.671 350.716C353.671 350.716 353.176 360.298 353.671 364.422C354.165 368.546 354.607 370.805 354.607 370.805L365.053 445.591C365.053 445.591 354.9 447.438 344.853 449.876C334.806 452.314 314.865 457.767 314.865 457.767C314.865 457.767 307.836 460.972 306.926 466.147C306.015 471.321 309.744 486.871 309.744 486.871L197.802 495.404C197.802 495.404 186.909 495.609 183.162 493.248C179.415 490.887 178.388 483.171 178.388 483.171L163.247 346.989C163.247 346.989 139.051 347.581 131.985 343.546C124.918 339.511 124.063 324.617 124.063 324.617C124.063 324.617 125.237 316.174 124.063 310.315C123.672 308.36 118.555 287.168 116.835 267.004C115.862 255.594 129.288 246.832 129.288 246.832L117.717 189.048Z" fill="white"/><path fill-rule="evenodd" clip-rule="evenodd" d="M196.705 157.695C195.834 158.922 196.563 160.752 197.821 161.578C199.079 162.404 200.664 162.497 202.167 162.564C218.498 163.299 234.828 164.034 251.158 164.769C252.75 164.84 254.511 164.857 255.717 163.815C256.923 162.775 256.763 160.292 255.19 160.042C237.031 157.154 218.604 155.955 200.224 156.465C198.934 156.501 197.452 156.642 196.705 157.695Z" fill="#E7EAEE"/><path fill-rule="evenodd" clip-rule="evenodd" d="M269.361 274.744L265.117 254.829C265.117 254.829 264.919 258.936 262.673 260.606C260.426 262.277 255.984 261.62 255.984 261.62C255.984 261.62 255.28 247.713 258.407 243.478C261.534 239.244 264.614 243.243 270.554 241.889C276.488 240.535 275.259 236.077 282.155 238.062C289.051 240.048 294.146 254.806 294.146 254.806C294.146 254.806 288.739 256.617 286.438 256.153C284.138 255.688 284.698 252.897 284.698 252.897C284.698 252.897 283.068 252.204 283.483 257.096C283.685 259.473 285.485 263.048 286.438 267.724C286.793 269.465 286.438 273.378 286.438 273.378C286.438 273.378 280.302 274.004 275 275.139C269.698 276.274 269.361 274.744 269.361 274.744Z" fill="#E7EAEE"/><path fill-rule="evenodd" clip-rule="evenodd" d="M118.698 225.207C116.656 224.108 114.995 222.43 113.367 220.778C109.167 216.515 104.916 212.184 102.003 206.958C101.725 206.46 101.452 205.889 101.612 205.342C101.772 204.795 102.607 204.485 102.919 204.961C107.984 212.692 114.379 219.55 121.74 225.14C121.078 226.03 119.674 225.733 118.698 225.207Z" fill="#00160A"/><path fill-rule="evenodd" clip-rule="evenodd" d="M124.816 127.351C126.023 126.107 126.666 124.435 127.221 122.794C128.954 117.678 130.135 112.375 130.737 107.006C130.845 106.039 131.022 104.926 131.861 104.433C132.805 109.036 131.636 113.78 130.474 118.333C129.453 122.335 128.321 126.537 125.424 129.482C125.131 129.78 124.756 130.083 124.345 130.015C123.789 129.922 123.566 129.183 123.764 128.655C123.963 128.129 124.424 127.755 124.816 127.351Z" fill="#00160A"/><path fill-rule="evenodd" clip-rule="evenodd" d="M416.042 167.499C416.617 167.346 417.201 167.799 417.452 168.338C417.702 168.877 417.721 169.489 417.832 170.074C418.268 172.355 420.325 174.227 422.637 174.447C422.925 175.117 422.287 175.788 421.783 176.315C420.636 177.515 419.912 179.112 419.764 180.766C419.669 181.839 419.443 183.332 418.366 183.319C417.5 183.307 417.12 182.26 416.808 181.452C416.046 179.479 414.328 177.901 412.297 177.31C411.871 177.185 411.692 176.641 411.808 176.212C411.926 175.784 412.251 175.45 412.561 175.132C413.895 173.762 415.249 172.142 415.235 170.23C415.227 169.197 415.044 167.767 416.042 167.499Z" fill="#FFB61D"/><path fill-rule="evenodd" clip-rule="evenodd" d="M456.484 347.058C454.692 348.899 454.058 351.781 454.91 354.204C453.966 354.626 453.261 353.325 452.793 352.402C452.092 351.017 450.767 349.964 449.26 349.593C451.443 348.216 452.801 345.625 452.692 343.046C453.57 342.473 454.552 343.665 454.804 344.683C455.057 345.7 455.436 347.022 456.484 347.058Z" fill="#E7EAEE"/><path fill-rule="evenodd" clip-rule="evenodd" d="M441.194 350.511C442.234 352.159 443.711 353.529 445.433 354.44C446.052 354.768 445.491 355.678 444.98 356.157C443.692 357.36 442.877 359.057 442.741 360.814C441.615 359.685 440.489 358.557 439.363 357.428C438.914 356.977 438.439 356.278 438.826 355.774C440.008 354.234 440.825 352.417 441.194 350.511Z" fill="#E7EAEE"/><path fill-rule="evenodd" clip-rule="evenodd" d="M365.971 152.02C366.996 145.494 369.473 139.079 373.825 134.109C378.177 129.138 384.531 125.745 391.137 125.751C397.743 125.756 404.416 129.498 407.161 135.507C408.581 138.616 408.93 142.116 408.833 145.533C408.65 152.032 406.904 158.481 403.785 164.185C400.972 169.329 396.929 173.956 391.679 176.565C386.429 179.174 379.887 179.525 374.783 176.64C370.742 174.356 367.915 170.256 366.568 165.814C365.221 161.372 365.251 156.606 365.971 152.02ZM406.35 147.081C406.469 143.035 405.801 138.856 403.673 135.412C402.38 133.319 400.567 131.548 398.445 130.302C391.598 126.287 382.279 128.444 376.592 133.981C370.906 139.519 368.44 147.702 368.186 155.635C368.051 159.867 368.506 164.206 370.305 168.038C372.104 171.871 375.396 175.149 379.497 176.202C384.862 177.58 390.525 174.986 394.732 171.382C401.752 165.369 406.078 156.32 406.35 147.081Z" fill="#FFB61D"/><path fill-rule="evenodd" clip-rule="evenodd" d="M433.575 147.488C432.483 148.917 431.34 150.793 432.179 152.384C432.478 152.953 431.703 153.615 431.085 153.436C430.467 153.256 430.116 152.603 429.952 151.981C429.787 151.359 429.734 150.692 429.404 150.14C429.074 149.588 428.324 149.204 427.778 149.544C427.002 149.452 426.922 148.282 427.374 147.643C427.825 147.004 428.567 146.564 428.844 145.833C429.064 145.253 428.946 144.604 429.05 143.993C429.155 143.383 429.675 142.731 430.274 142.886C430.254 143.959 430.378 145.074 430.922 145.998C431.467 146.924 432.509 147.616 433.575 147.488Z" fill="#FFB61D"/><path fill-rule="evenodd" clip-rule="evenodd" d="M335.85 145.373C336.704 144.38 337.777 143.53 339.036 143.168C340.295 142.807 341.755 142.998 342.738 143.863C343.808 144.805 344.144 146.379 343.916 147.785C343.688 149.192 342.979 150.471 342.232 151.685C341.264 153.26 340.212 154.784 339.082 156.249C338.729 156.706 338.342 157.177 337.802 157.382C337.088 157.65 336.293 157.389 335.588 157.094C333.115 156.061 330.816 154.61 328.818 152.823C326.989 151.186 325.301 148.788 326.043 146.448C326.515 144.956 327.957 143.878 329.504 143.648C331.051 143.417 332.655 143.962 333.884 144.929C334.473 145.39 335.363 145.941 335.85 145.373ZM328.037 146.24C326.868 147.846 328.136 150.098 329.608 151.432C331.445 153.097 333.625 154.327 335.786 155.542C336.063 155.699 336.373 155.86 336.684 155.793C336.962 155.734 337.168 155.506 337.351 155.289C338.814 153.555 340.125 151.692 341.263 149.729C342.139 148.22 342.781 146.001 341.371 144.974C340.255 144.161 338.628 144.816 337.682 145.822C336.736 146.827 336.141 148.14 335.106 149.056C334.299 147.782 333.44 146.461 332.131 145.713C330.821 144.967 328.923 145.02 328.037 146.24Z" fill="#FFB61D"/><path fill-rule="evenodd" clip-rule="evenodd" d="M319.12 101.454C321.798 99.3669 324.776 97.6635 327.933 96.4132C329.868 95.6467 332.077 95.0569 333.99 95.8779C337.055 97.1927 337.653 101.595 336.04 104.514C334.427 107.434 331.368 109.204 328.456 110.831C322.745 114.02 317.034 117.21 311.324 120.399C312.449 118.155 311.18 115.52 310.141 113.235C307.801 108.088 306.576 102.437 306.575 96.7826C306.574 94.9962 306.708 93.1569 307.491 91.5518C308.275 89.9466 309.839 88.6149 311.624 88.5735C314.481 88.5059 316.381 91.4819 317.345 94.1722C318.189 96.5284 318.785 98.9737 319.12 101.454ZM331.223 97.3624C326.604 98.3009 322.301 100.731 319.112 104.201C318.798 104.542 318.188 104.392 317.901 104.027C317.614 103.662 317.559 103.172 317.504 102.712C317.145 99.6595 316.346 96.659 315.142 93.8304C314.47 92.2545 313.346 90.5134 311.632 90.4858C310.363 90.465 309.257 91.4819 308.789 92.6623C308.321 93.8427 308.36 95.1568 308.45 96.424C308.951 103.489 310.81 110.456 313.895 116.831C318.947 114 323.999 111.17 329.051 108.339C330.628 107.455 332.232 106.55 333.457 105.222C334.683 103.894 335.489 102.05 335.133 100.279C334.777 98.5068 332.994 97.003 331.223 97.3624Z" fill="#FFB61D"/><path fill-rule="evenodd" clip-rule="evenodd" d="M283.771 451.404C298.515 449.725 313.356 448.878 328.196 448.872C330.919 448.871 333.287 446.756 334.393 444.269C335.499 441.781 335.588 438.976 335.589 436.253C335.594 426.139 334.643 416.05 333.693 405.98C333.307 401.897 332.923 397.813 332.537 393.729C332.303 391.252 332.055 388.718 331.012 386.458C329.201 382.537 325.191 379.987 321.014 378.889C316.837 377.791 312.446 377.941 308.13 378.099C293.799 378.623 279.468 379.149 265.137 379.673C273.398 376.643 282.395 376.501 291.194 376.394C297.939 376.312 304.685 376.229 311.43 376.146C318.324 376.063 326.203 376.408 330.601 381.719C333.443 385.15 334.069 389.847 334.545 394.276C336.04 408.221 337.135 422.21 337.829 436.218C338.059 440.86 337.873 446.316 334.093 449.021C331.979 450.533 329.236 450.761 326.643 450.937C310.85 452.006 295.056 453.076 279.263 454.145C275.555 454.396 271.648 454.611 268.312 452.973C267.153 452.403 265.962 451.116 266.584 449.984C271.718 452.78 277.962 452.066 283.771 451.404Z" fill="#00160A"/><path fill-rule="evenodd" clip-rule="evenodd" d="M221.311 227.7C221.606 228.142 221.674 228.694 221.733 229.222C221.871 230.452 222.01 231.683 222.148 232.914C222.312 234.374 222.346 236.141 221.135 236.974C220.49 237.418 219.657 237.454 218.875 237.476C202.399 237.921 185.925 238.366 169.451 238.811C168.391 238.84 167.164 238.793 166.515 237.956C166.107 237.43 166.044 236.723 166.006 236.059C165.886 233.971 165.853 231.88 165.906 229.79C165.914 229.471 165.933 229.13 166.13 228.88C166.366 228.581 166.783 228.508 167.161 228.456C184.184 226.15 201.436 225.542 218.578 226.641C219.59 226.707 220.747 226.857 221.311 227.7ZM220.634 235.707C218.961 234.803 220.646 232.153 220.038 230.352C219.515 228.804 217.529 228.438 215.898 228.345C200.364 227.46 184.749 228.012 169.316 229.991C168.748 230.064 168.117 230.173 167.773 230.63C167.432 231.083 167.493 231.71 167.571 232.271C167.691 233.139 167.811 234.007 167.931 234.875C168.026 235.559 168.17 236.326 168.745 236.709C169.162 236.987 169.699 236.984 170.199 236.972C187.01 236.55 203.823 236.129 220.634 235.707Z" fill="#00160A"/><path fill-rule="evenodd" clip-rule="evenodd" d="M252.302 256.866C252.38 255.038 252.459 253.21 252.538 251.381C252.69 247.815 252.877 244.117 254.534 240.956C256.192 237.795 259.769 235.339 263.242 236.16C265.415 236.674 267.418 238.382 269.603 237.923C271.505 237.524 272.672 235.643 274.279 234.55C278.11 231.943 283.45 234.364 286.619 237.746C290.034 241.391 292.254 246.137 292.861 251.095C292.913 251.515 292.939 251.988 292.668 252.314C292.444 252.584 292.077 252.677 291.735 252.756C290.415 253.058 289.097 253.36 287.777 253.662C286.654 253.919 285.489 254.177 284.361 253.944C283.233 253.71 282.149 252.84 282.058 251.692C281.722 258.111 286.528 264.243 285.189 270.53C284.691 270.258 284.193 269.985 283.695 269.713C284.87 263.409 279.252 257.305 280.424 251.001C280.58 250.166 280.914 249.278 281.661 248.873C282.407 248.468 283.586 248.928 283.557 249.777C283.51 251.135 284.976 252.151 286.337 252.139C287.696 252.128 288.932 251.399 290.094 250.691C290.508 250.44 290.395 249.817 290.222 249.365C288.937 245.993 287.247 242.775 285.2 239.802C283.817 237.793 282.149 235.807 279.851 234.991C277.552 234.175 274.515 235.007 273.67 237.295C272.679 239.973 268.936 240.154 266.187 239.382C263.439 238.609 260.354 237.404 257.901 238.866C255.85 240.088 255.164 242.693 254.779 245.05C254.12 249.092 253.816 253.193 253.872 257.288C253.983 257.914 254.779 258.115 255.415 258.099C258.758 258.012 261.863 255.375 262.489 252.089C263.39 253.125 263.711 254.529 264.003 255.871C265.012 260.518 266.021 265.165 267.031 269.812C267.342 271.243 266.978 273.442 265.538 273.181C264.885 268.113 263.919 263.085 262.644 258.136C260.237 258.684 257.828 259.231 255.42 259.778C254.681 259.947 253.855 260.102 253.208 259.707C252.316 259.162 252.257 257.911 252.302 256.866Z" fill="#00160A"/><path fill-rule="evenodd" clip-rule="evenodd" d="M322.75 383.081C323.979 384.412 322.07 386.87 323.195 388.29C323.78 389.027 323.363 390.195 322.589 390.729C321.816 391.263 320.824 391.335 319.886 391.39C303.752 392.327 287.619 393.264 271.486 394.202C270.389 394.266 269.079 394.228 268.48 393.308C268.218 392.906 268.154 392.41 268.098 391.934C267.951 390.695 267.803 389.454 267.656 388.215C267.61 387.825 267.568 387.408 267.752 387.062C268.053 386.491 268.802 386.367 269.446 386.31C286.402 384.813 303.377 383.548 320.367 382.515C321.211 382.464 322.177 382.459 322.75 383.081ZM320.899 385.175C320.847 384.869 320.777 384.534 320.532 384.343C320.289 384.152 319.948 384.166 319.639 384.188C304.596 385.285 289.552 386.382 274.509 387.478C273.293 387.567 272.032 387.669 270.97 388.267C269.907 388.866 269.107 390.115 269.426 391.291C269.524 391.655 269.735 392.002 270.058 392.198C270.453 392.438 270.948 392.42 271.41 392.395C287.293 391.533 303.176 390.672 319.059 389.811C320.946 389.708 321.218 387.038 320.899 385.175Z" fill="#00160A"/><path fill-rule="evenodd" clip-rule="evenodd" d="M335.479 368.634C338.335 376.148 339.246 384.237 340.133 392.227C342.194 410.789 344.254 429.35 346.316 447.911C344.782 448.037 344.075 446.069 343.884 444.542C340.762 419.568 339.757 394.271 334.477 369.662C334.811 369.32 335.145 368.976 335.479 368.634Z" fill="#00160A"/><path fill-rule="evenodd" clip-rule="evenodd" d="M243.366 239.337C242.921 239.148 242.931 238.454 243.271 238.112C243.612 237.77 244.128 237.687 244.607 237.626C248.195 237.17 251.812 236.948 255.428 236.962C255.236 238.505 253.243 238.956 251.69 239.027C249.081 239.148 246.471 239.268 243.861 239.389C243.694 239.396 243.52 239.403 243.366 239.337Z" fill="#00160A"/><path fill-rule="evenodd" clip-rule="evenodd" d="M263.605 428.099C263.307 422.575 263.009 417.05 262.711 411.526C261.909 396.656 261.082 381.634 256.943 367.329C256.414 365.503 255.811 363.649 254.64 362.151C251.709 358.401 246.284 357.97 241.524 357.97C223.174 357.971 204.824 359.716 186.802 363.174C184.971 363.526 183.067 363.929 181.606 365.087C179.284 366.928 178.672 370.164 178.456 373.119C178.062 378.513 178.452 383.965 179.61 389.249C178.947 389.139 178.285 389.029 177.623 388.918C175.195 383.86 174.088 378.175 174.443 372.576C174.597 370.145 175.044 367.669 176.297 365.579C179.413 360.382 186.272 359.135 192.297 358.49C207.584 356.853 222.928 355.75 238.292 355.185C244.477 354.957 251.464 355.13 255.709 359.634C257.843 361.899 258.924 364.944 259.773 367.938C262.721 378.342 263.535 389.213 264.333 399.997C265.114 410.534 265.894 421.071 266.674 431.608C266.858 434.084 267.039 436.6 266.538 439.032C264.905 446.957 256.465 451.778 248.43 452.736C240.395 453.694 232.307 451.858 224.216 451.724C213.336 451.543 202.391 454.436 191.661 452.628C188.57 452.108 185.284 451.013 183.585 448.379C182.406 446.552 182.193 444.287 182.014 442.121C180.74 426.838 179.468 411.555 178.195 396.273C178.11 395.25 178.871 393.724 179.657 394.384C181.061 409.105 182.464 423.826 183.867 438.546C184.057 440.539 184.263 442.59 185.189 444.365C186.534 446.941 189.247 448.579 192.06 449.308C194.873 450.037 197.821 449.978 200.728 449.94C213.021 449.779 225.32 450.086 237.591 450.858C241.695 451.116 245.842 451.424 249.896 450.735C253.949 450.047 257.971 448.24 260.488 444.988C264.071 440.357 263.921 433.947 263.605 428.099Z" fill="#00160A"/><path fill-rule="evenodd" clip-rule="evenodd" d="M242.743 233.364C243.887 232.472 242.925 230.643 243.15 229.21C243.47 227.182 245.993 226.486 248.033 226.25C261.132 224.736 274.322 224.019 287.508 224.107C288.605 224.115 289.902 224.237 290.455 225.185C291.118 226.323 290.5 228.31 291.756 228.708C292.345 228.895 293.101 228.549 293.547 228.976C294.286 229.683 292.91 230.64 291.891 230.731C276.461 232.116 260.997 233.129 245.518 233.77C244.571 233.809 243.567 233.834 242.743 233.364ZM288.836 226.975C288.475 226.068 287.269 225.936 286.294 225.95C273.862 226.139 261.437 226.754 249.047 227.793C247.595 227.914 245.881 228.217 245.275 229.543C244.984 230.297 245.539 231.164 246.271 231.506C247.003 231.848 247.849 231.804 248.655 231.753C261.032 230.968 273.409 230.183 285.785 229.398C286.546 229.349 287.34 229.292 287.997 228.902C288.654 228.514 289.117 227.684 288.836 226.975Z" fill="#00160A"/><path fill-rule="evenodd" clip-rule="evenodd" d="M305.517 408.585C307.426 410.102 306.609 413.424 308.27 415.21C309.042 416.039 310.198 416.364 311.286 416.682C311.985 416.887 312.851 417.4 312.628 418.094C312.401 418.804 311.366 418.69 310.671 418.418C308.403 417.529 305.845 416.052 305.719 413.619C305.628 411.843 305.1 410.091 304.196 408.561C304.451 408.13 305.125 408.274 305.517 408.585Z" fill="#00160A"/><path fill-rule="evenodd" clip-rule="evenodd" d="M314.544 433.745C313.922 425.739 313.3 417.733 312.679 409.726C312.588 408.55 312.483 407.33 311.9 406.304C311.318 405.277 310.111 404.503 308.97 404.81C303.813 406.193 298.457 406.834 293.119 406.708C288.451 406.598 283.675 405.916 279.185 407.194C279.268 409.418 279.352 411.641 279.435 413.864C279.459 414.514 279.497 415.203 279.866 415.738C280.901 417.236 283.473 416.094 284.056 414.368C284.64 412.643 284.113 410.756 284.213 408.937C284.231 408.615 284.295 408.249 284.569 408.078C285.152 407.716 285.712 408.581 285.861 409.25C286.29 411.169 286.717 413.177 286.211 415.077C285.706 416.977 283.943 418.698 281.994 418.447C279.974 418.187 279.147 420.948 279.098 422.984C279.001 427.049 278.903 431.112 278.806 435.176C278.775 436.456 279.235 438.223 280.507 438.079C283.788 437.707 287.071 437.335 290.353 436.963C291.146 436.873 291.999 436.794 292.697 437.182C293.394 437.57 293.763 438.626 293.192 439.183C289.336 439.521 285.482 439.859 281.626 440.197C280.5 440.295 279.332 440.389 278.27 440.003C277.208 439.617 276.283 438.606 276.379 437.48C277.328 426.424 277.54 415.306 277.014 404.221C276.902 401.864 279.775 400.666 282.095 400.232C289.459 398.851 296.97 398.252 304.461 398.448C306.972 398.514 309.709 398.763 311.53 400.494C313.384 402.255 313.748 405.031 314.004 407.575C314.961 417.113 315.92 426.65 316.878 436.187C316.93 436.702 316.942 437.313 316.53 437.626C316.285 437.813 315.955 437.833 315.647 437.846C312.451 437.979 309.254 438.112 306.057 438.245C304.364 438.315 302.541 438.351 301.13 437.411C300.164 436.765 299.525 435.74 298.962 434.723C297.615 432.28 296.538 429.69 295.758 427.012C294.536 430.073 293.762 433.313 293.468 436.596C291.924 436.763 291.636 434.445 291.995 432.933C292.736 429.814 293.477 426.695 294.218 423.575C294.331 423.1 294.511 422.549 294.977 422.403C295.662 422.187 296.188 423.008 296.439 423.681C297.482 426.487 298.527 429.292 299.571 432.098C300.469 434.512 303.061 435.964 305.62 436.261C308.179 436.558 310.744 435.915 313.24 435.276C313.733 435.149 314.294 434.967 314.486 434.494C314.581 434.26 314.564 433.998 314.544 433.745ZM279.767 404.431C282.082 404.461 284.397 404.491 286.712 404.521C288.451 404.544 290.19 404.566 291.93 404.533C298.207 404.415 304.472 403.573 310.558 402.03C309.201 400.636 307.023 400.557 305.077 400.592C298.115 400.716 291.158 401.122 284.228 401.805C282.374 401.989 280.07 402.593 279.767 404.431Z" fill="#00160A"/><path fill-rule="evenodd" clip-rule="evenodd" d="M269.405 398.435C269.273 397.712 270.212 397.316 270.939 397.203C279.338 395.902 287.848 395.326 296.346 395.486C296.467 395.488 296.593 395.492 296.706 395.538C297.105 395.705 297.085 396.333 296.769 396.627C296.453 396.921 295.986 396.971 295.556 397.003C287.464 397.61 279.254 397.298 271.327 399.028C270.591 399.189 269.541 399.176 269.405 398.435Z" fill="#00160A"/><path fill-rule="evenodd" clip-rule="evenodd" d="M457.224 381.046C457.688 379.952 458.2 378.797 459.184 378.132C460.014 377.57 461.055 377.447 462.052 377.338C465.009 377.017 467.965 376.696 470.922 376.375C472.385 376.216 474.272 375.6 474.216 374.13C474.037 369.383 474.404 363.917 478.175 361.028C481.625 358.385 486.791 359.11 490.33 361.63C493.869 364.152 496.112 368.079 498.046 371.97C498.902 373.693 501.248 374.008 503.144 373.675C505.039 373.343 506.961 372.598 508.831 373.051C511.71 373.75 513.165 376.895 514.155 379.688C519.12 393.704 522.491 408.316 528.667 421.842C530.978 426.9 530.246 433.213 526.841 437.61C526.421 434.119 527.006 430.512 528.508 427.332C529.217 425.835 526.86 424.849 525.203 424.854C508.318 424.897 491.361 424.945 474.663 427.45C474.153 427.526 473.611 427.62 473.231 427.969C472.861 428.307 472.717 428.82 472.59 429.304C472.072 431.271 471.554 433.237 471.037 435.204C470.712 436.436 470.915 438.349 472.183 438.221C488.709 436.547 505.324 435.749 521.934 435.831C523.682 435.839 526.066 436.533 525.84 438.265C508.145 438.473 490.385 438.687 472.881 441.292C470.094 441.707 468.17 438.255 468.485 435.455C468.802 432.655 470.408 430.144 470.86 427.362C471.25 424.965 470.763 422.521 470.237 420.149C469.402 416.38 468.469 412.632 467.44 408.911C466.436 405.279 465.339 401.674 464.242 398.069C462.584 392.617 460.925 387.164 459.267 381.711C456.986 385.051 455.97 389.233 456.464 393.248C456.808 396.041 457.844 398.696 458.62 401.403C459.73 405.272 460.312 409.27 460.892 413.253C462.033 421.099 463.175 428.945 464.317 436.792C464.485 437.946 464.153 439.647 462.999 439.476C457.867 423.601 459.276 406.049 453.22 390.503C454.555 387.351 455.889 384.198 457.224 381.046ZM495.445 383.926C497.117 382.995 497.984 380.824 497.41 378.999C496.837 377.172 494.885 375.886 492.981 376.079C488.312 376.552 483.643 377.025 478.975 377.498C478.543 377.542 478.061 377.613 477.802 377.96C477.598 378.235 477.594 378.605 477.613 378.946C477.738 381.079 478.478 383.174 479.722 384.911C480.689 386.261 482.026 387.877 481.271 389.356C480.328 391.204 477.228 390.168 476.459 388.241C475.69 386.314 476.237 384.139 476.094 382.069C475.951 379.999 474.464 377.616 472.417 377.96C469.061 378.526 465.706 379.09 462.35 379.655C461.868 379.737 461.239 380.034 461.381 380.502C465.467 394.027 469.553 407.552 473.639 421.078C474.149 422.764 475.297 424.85 477.011 424.45C492.75 420.774 509.345 424.25 525.327 421.835C520.539 406.823 515.586 391.866 510.467 376.964C510.317 376.524 510.146 376.057 509.77 375.782C509.355 375.478 508.795 375.488 508.282 375.509C505.884 375.611 503.487 375.713 501.09 375.814C500.142 375.854 498.848 376.306 499.056 377.232C499.708 380.136 500.359 383.041 501.011 385.945C501.123 386.444 501.233 386.979 501.046 387.456C500.539 388.754 498.628 388.427 497.353 387.865C496.517 387.497 495.637 387.093 495.12 386.339C494.603 385.585 494.646 384.37 495.445 383.926ZM489.267 362.856C487.428 361.508 485.011 360.535 482.889 361.37C482.15 361.661 481.508 362.15 480.876 362.633C479.753 363.494 478.595 364.395 477.931 365.645C477.314 366.808 477.187 368.161 477.072 369.473C476.971 370.62 476.87 371.767 476.769 372.913C476.707 373.624 476.682 374.441 477.197 374.935C477.691 375.409 478.468 375.375 479.15 375.31C484.033 374.845 488.916 374.381 493.799 373.916C494.495 373.85 495.345 373.661 495.529 372.986C495.601 372.72 495.543 372.437 495.478 372.169C494.577 368.469 492.337 365.11 489.267 362.856ZM487.438 374.988C486.947 375.127 487.493 376.048 487.851 375.683C488.307 375.496 487.801 374.637 487.416 374.947L487.438 374.988Z" fill="#FFB61D"/><path fill-rule="evenodd" clip-rule="evenodd" d="M332.618 265.213C332.533 264.927 332.703 264.628 332.903 264.408C333.887 263.324 335.535 263.244 336.998 263.24C345.87 263.22 354.743 263.199 363.616 263.178C364.241 263.177 364.91 263.189 365.42 263.55C365.929 263.911 366.129 264.761 365.639 265.149C365.378 265.355 365.019 265.368 364.686 265.372C354.379 265.486 344.071 265.601 333.763 265.715C333.314 265.72 332.747 265.644 332.618 265.213Z" fill="#00160A"/><path fill-rule="evenodd" clip-rule="evenodd" d="M335.907 274.374C335.373 274.066 335.446 273.204 335.896 272.782C336.346 272.36 337.001 272.261 337.613 272.187C341.286 271.744 344.979 271.501 348.671 271.258C350.705 271.124 352.739 270.99 354.772 270.856C357.416 270.682 360.061 270.507 362.705 270.333C363.545 270.278 364.483 270.254 365.115 270.809C365.748 271.364 365.593 272.701 364.753 272.752C355.421 273.33 346.088 273.909 336.756 274.487C336.467 274.505 336.158 274.519 335.907 274.374Z" fill="#00160A"/><path fill-rule="evenodd" clip-rule="evenodd" d="M385.93 286.439C386.636 285.099 387.401 283.694 388.698 282.913C389.995 282.132 391.986 282.293 392.684 283.637C393.427 285.066 392.321 286.79 391.023 287.744C389.724 288.699 388.127 289.372 387.284 290.744C391.844 293.749 396.403 296.754 400.963 299.758C404.534 302.111 408.575 305.472 407.844 309.686C407.416 312.157 405.321 314.077 402.989 314.999C400.657 315.921 398.093 316.017 395.586 316.09C378.74 316.575 361.877 316.489 345.036 315.833C343.868 315.788 342.565 315.679 341.787 314.806C341.183 314.13 341.059 313.167 340.962 312.266C339.992 303.302 339.023 294.338 338.054 285.375C338.018 285.044 337.984 284.698 338.103 284.387C338.601 283.079 340.559 283.884 341.653 284.758C349.406 290.946 361.799 290.219 368.775 283.167C370.461 281.464 373.33 281.684 375.496 282.711C377.661 283.738 379.473 285.41 381.645 286.422C381.413 285.166 382.521 283.841 383.798 283.846C385.075 283.851 386.172 285.185 385.93 286.439ZM386.884 292.214C386.331 290.18 383.324 289.753 381.665 291.055C380.007 292.357 379.47 294.625 379.326 296.728C379.272 297.512 377.982 297.591 377.54 296.94C377.098 296.29 377.278 295.414 377.523 294.666C378.17 292.695 379.168 290.839 380.454 289.21C381.091 288.404 380.157 287.313 379.317 286.722C376.351 284.637 372.151 282.579 369.43 284.976C361.974 291.543 350.081 292.418 341.745 287.012C341.844 293.741 342.34 300.464 343.228 307.134C343.318 307.806 343.433 308.523 343.897 309.018C344.512 309.671 345.517 309.717 346.414 309.718C360.896 309.737 375.378 309.755 389.861 309.774C391.27 309.775 393.186 309.272 393.076 307.867C392.82 304.597 394.267 301.241 396.821 299.183C394.813 297.724 392.804 296.265 390.796 294.806C390.183 294.361 389.542 293.904 388.795 293.775C386.542 293.389 385.036 295.973 384.24 298.115C383.018 295.932 384.442 292.755 386.884 292.214ZM349.034 314.54C364.115 314.658 379.197 314.633 394.277 314.465C398.558 314.416 403.557 313.981 405.879 310.384C385.054 311.299 364.199 311.525 343.361 311.063C343.101 313.564 346.519 314.521 349.034 314.54ZM400.646 301.097C400.196 300.813 399.732 300.522 399.209 300.432C397.63 300.161 396.384 301.739 395.698 303.186C395.302 304.024 394.957 304.886 394.667 305.765C394.446 306.436 394.254 307.149 394.393 307.841C394.532 308.533 395.1 309.188 395.806 309.195C398.37 309.224 400.935 309.198 403.498 309.114C404.103 309.094 404.761 309.051 405.213 308.65C405.746 308.178 405.811 307.363 405.678 306.664C405.194 304.133 402.822 302.477 400.646 301.097ZM391.586 284.726C391.559 283.945 390.516 283.548 389.795 283.85C389.073 284.151 388.63 284.867 388.235 285.542C387.756 286.356 387.278 287.171 386.799 287.985C386.548 288.412 386.412 289.138 386.895 289.246C388.169 288.187 389.442 287.128 390.715 286.07C391.142 285.716 391.606 285.28 391.586 284.726ZM383.336 285.999C383.119 287.052 383.659 288.216 384.603 288.73C384.93 287.645 384.739 286.416 384.097 285.483C384.057 285.219 383.699 285.066 383.481 285.221C383.313 285.433 383.253 285.727 383.324 285.988L383.336 285.999Z" fill="#00160A"/><path fill-rule="evenodd" clip-rule="evenodd" d="M331.484 254.944C331.101 253.091 330.718 251.238 330.336 249.385C330.187 248.665 330.05 247.866 330.428 247.235C330.943 246.374 332.122 246.26 333.124 246.242C357.74 245.815 382.365 245.908 406.977 246.523C408.656 246.566 410.034 248.016 410.545 249.615C411.056 251.216 410.888 252.943 410.715 254.614C410.621 255.517 410.472 256.524 409.753 257.076C409.163 257.529 408.357 257.54 407.614 257.532C382.893 257.262 358.173 256.992 333.453 256.722C333.046 256.718 332.615 256.706 332.271 256.49C331.767 256.173 331.604 255.527 331.484 254.944ZM334.884 247.868C333.065 247.855 331.774 250.016 332.229 251.778C332.684 253.54 334.386 254.753 336.154 255.181C337.923 255.61 339.774 255.403 341.586 255.233C363.911 253.147 386.485 257.135 408.794 254.884C408.911 253.527 409.022 252.124 408.585 250.833C408.148 249.543 407.009 248.387 405.647 248.377C382.059 248.208 358.472 248.038 334.884 247.868Z" fill="#00160A"/><path fill-rule="evenodd" clip-rule="evenodd" d="M183.051 308.614C182.227 310.176 181.091 311.762 179.388 312.227C176.143 313.111 173.46 309.509 172.575 306.265C171.193 301.2 171.543 295.679 173.553 290.829C174.628 288.235 173.732 285.168 172.045 282.921C168.866 278.684 162.933 276.829 157.836 278.271C152.738 279.712 148.716 284.246 147.65 289.435C147.482 290.247 147.6 291.388 148.421 291.504C152.519 292.077 154.399 296.885 155.023 300.975C155.499 304.097 155.706 307.369 154.647 310.344C153.588 313.32 150.996 315.934 147.846 316.173C145.02 314.27 142.892 311.353 141.943 308.08C140.177 301.994 142.47 295.542 144.838 289.664C146.283 286.076 147.834 282.402 150.579 279.678C156.446 273.853 167.402 274.545 172.49 281.06C174.448 283.567 175.572 286.681 177.741 289.006C179.376 290.759 181.538 291.986 183.029 293.863C186.269 297.939 185.481 304.009 183.051 308.614ZM143.737 297.362C142.252 301.456 142.666 306.197 144.839 309.972C145.195 310.592 145.62 311.209 146.243 311.56C146.867 311.911 147.736 311.916 148.229 311.397C149.707 309.844 149.891 307.495 149.887 305.351C149.881 302.816 149.725 300.281 149.419 297.764C149.294 296.734 149.08 295.596 148.247 294.977C147.414 294.358 145.85 294.876 145.981 295.905C146.362 298.901 146.743 301.896 147.123 304.892C147.209 305.573 147.286 306.311 146.945 306.907C146.603 307.503 145.66 307.78 145.227 307.246C144.107 304.961 143.769 302.299 144.283 299.806C144.468 298.909 144.594 297.682 143.737 297.362ZM178.032 309.241C178.41 308.946 178.587 308.466 178.728 308.007C179.839 304.401 179.851 300.464 178.762 296.85C178.348 295.477 177.226 293.87 175.867 294.33C175.082 294.596 174.684 295.456 174.434 296.246C173.298 299.838 173.449 303.822 174.854 307.318C175.123 307.987 175.456 308.665 176.026 309.107C176.596 309.549 177.463 309.685 178.032 309.241ZM151.367 296.279C152.357 301.296 152.147 306.545 150.758 311.466C150.631 311.919 151.145 312.273 151.575 312.463C153.658 307.412 153.921 301.632 152.307 296.412C152.039 296.221 151.678 296.17 151.367 296.279ZM180.263 294.924C179.955 295.416 179.647 295.907 179.34 296.397C180.354 296.226 180.818 297.61 180.872 298.637C180.998 301.011 181.123 303.385 181.249 305.76C182.193 305.405 182.364 304.166 182.382 303.157C182.422 300.885 182.461 298.614 182.501 296.342C182.16 296.302 181.82 296.262 181.48 296.222C181.445 295.579 180.902 295 180.263 294.924Z" fill="#00160A"/><path fill-rule="evenodd" clip-rule="evenodd" d="M291.624 299.233C284.857 298.91 278.06 299.204 271.344 300.109C270.751 300.189 270.086 300.257 269.608 299.894C269.13 299.532 269.182 298.569 269.778 298.504C276.494 297.766 283.238 297.291 289.991 297.082C290.725 297.059 291.547 297.072 292.07 297.587C292.593 298.103 292.358 299.268 291.624 299.233Z" fill="#00160A"/><path fill-rule="evenodd" clip-rule="evenodd" d="M134.415 272.211C136.336 272.03 138.258 271.85 140.178 271.669C141.147 271.579 142.115 271.487 143.082 271.397C149.239 270.818 155.395 270.24 161.556 269.725C161.798 269.705 162.051 269.687 162.275 269.78C162.943 270.056 162.84 271.134 162.258 271.562C161.678 271.991 160.891 271.966 160.17 271.943C151.096 271.641 142.052 274.368 133.019 273.446C132.432 273.386 131.664 273.083 131.768 272.503C132.647 272.377 133.531 272.294 134.415 272.211Z" fill="#00160A"/><path fill-rule="evenodd" clip-rule="evenodd" d="M341.351 471.63C341.049 468.987 340.832 466.111 339.055 464.132C337.691 462.613 338.397 459.789 340.315 459.09C342.232 458.392 344.589 460.099 344.522 462.139C344.499 462.839 344.244 463.508 344.046 464.18C342.691 468.77 343.95 473.709 345.606 478.198C347.284 482.745 349.853 487.584 354.463 489.079C359.796 490.808 365.699 486.981 368.062 481.898C370.427 476.814 370.067 470.911 369.241 465.366C369.158 464.809 369.009 464.167 368.499 463.931C366.424 462.973 366.109 459.608 367.97 458.282C369.831 456.956 372.909 458.352 373.137 460.626C373.214 461.398 373.018 462.166 372.871 462.927C371.852 468.207 373.2 473.745 372.083 479.005C371.383 482.3 369.707 485.381 367.32 487.756C364.789 490.276 361.372 492.013 357.801 492.074C352.994 492.155 348.497 489.173 345.78 485.206C343.063 481.24 341.897 476.407 341.351 471.63Z" fill="#00160A"/><path fill-rule="evenodd" clip-rule="evenodd" d="M201.15 254.658C201.284 256.468 201.411 258.333 200.847 260.059C200.283 261.784 198.85 263.356 197.041 263.511C187.718 264.313 178.394 265.114 169.053 265.667C156.316 266.421 143.558 266.711 130.802 267.001C130.346 267.011 129.86 267.014 129.479 266.763C128.91 266.386 128.803 265.608 128.751 264.928C128.612 263.144 128.474 261.361 128.337 259.579C128.294 259.036 128.263 258.45 128.555 257.991C128.983 257.319 129.899 257.204 130.695 257.156C154.156 255.766 177.649 254.933 201.15 254.658ZM197.225 260.913C198.724 260.813 199.027 258.454 197.928 257.43C196.829 256.406 195.16 256.383 193.658 256.421C174.351 256.9 155.035 257.381 135.765 258.691C134.378 258.785 132.935 258.901 131.735 259.605C130.535 260.309 129.669 261.789 130.128 263.102C130.779 264.968 133.296 265.173 135.267 265.041C155.919 263.665 176.572 262.289 197.225 260.913Z" fill="#00160A"/><path fill-rule="evenodd" clip-rule="evenodd" d="M177.178 299.716C177.196 300.207 177.214 300.697 177.233 301.187C177.272 302.208 177.31 303.236 177.162 304.246C175.882 304.11 175.486 302.464 175.41 301.179C175.375 300.568 175.363 299.884 175.773 299.429C176.182 298.974 177.155 299.104 177.178 299.716Z" fill="#00160A"/><path fill-rule="evenodd" clip-rule="evenodd" d="M269.363 303.895C270.619 302.735 272.529 302.771 274.237 302.819C279.643 302.973 285.065 302.555 290.384 301.575C291.011 301.46 291.348 302.435 290.958 302.939C290.567 303.443 289.861 303.548 289.227 303.613C283.233 304.222 277.213 304.583 271.189 304.696C270.471 304.709 269.561 304.585 269.363 303.895Z" fill="#00160A"/><path fill-rule="evenodd" clip-rule="evenodd" d="M471.175 324.163C470.582 326.168 468.613 327.408 466.734 328.326C457.334 332.924 446.283 334.049 436.149 331.442C432.746 330.566 428.867 328.54 428.722 325.028C428.615 322.446 430.675 320.283 432.858 318.899C436.205 316.777 440.108 315.705 443.998 314.949C451.505 313.491 459.642 313.19 466.436 316.697C469.283 318.166 472.083 321.091 471.175 324.163ZM431.042 324.637C431.048 327.474 434.213 329.134 436.956 329.854C446.483 332.353 456.904 331.275 465.717 326.878C467.132 326.172 468.624 325.242 469.074 323.727C469.677 321.691 468.101 319.641 466.35 318.439C461.084 314.82 454.118 315.315 447.765 315.995C442.651 316.543 437.203 317.258 433.306 320.612C432.101 321.648 431.039 323.048 431.042 324.637Z" fill="#00160A"/><path fill-rule="evenodd" clip-rule="evenodd" d="M194.59 158.036C194.269 156.213 195.527 154.401 197.147 153.506C198.768 152.61 200.678 152.437 202.525 152.328C219.002 151.359 235.453 154.006 251.935 154.875C254.057 154.987 256.293 155.105 258.078 156.257C259.863 157.409 260.91 159.996 259.675 161.725C259.079 162.56 258.091 163.025 257.112 163.334C254.286 164.227 251.254 164.109 248.293 163.981C232.884 163.319 217.475 162.656 202.067 161.994C199.007 161.863 195.12 161.052 194.59 158.036ZM196.705 155.394C195.834 156.621 196.563 158.451 197.821 159.277C199.079 160.103 200.664 160.196 202.167 160.263C218.498 160.998 234.828 161.733 251.158 162.468C252.75 162.54 254.511 162.555 255.717 161.514C256.923 160.473 256.764 157.991 255.19 157.74C237.032 154.853 218.604 153.655 200.224 154.164C198.934 154.2 197.452 154.341 196.705 155.394Z" fill="#00160A"/><path fill-rule="evenodd" clip-rule="evenodd" d="M375.272 142.211C377.778 136.989 381.843 131.605 387.619 131.16C391.467 130.863 395.548 131.536 398.594 133.906C404.117 138.206 404.502 146.543 402.528 153.258C400.202 161.173 395.01 168.504 387.564 172.054C385.787 172.901 383.856 173.533 381.89 173.456C376.665 173.251 372.86 168.118 371.735 163.012C370.194 156.014 372.172 148.672 375.272 142.211ZM381.77 171.544C385.631 172.07 389.271 169.611 391.995 166.823C397.101 161.6 400.53 154.759 401.659 147.542C401.985 145.462 402.119 143.304 401.554 141.276C400.441 137.288 396.66 134.405 392.603 133.576C388.702 132.779 384.415 133.73 381.407 136.34C379.962 137.595 378.839 139.179 377.859 140.823C374.662 146.185 372.845 152.424 373.068 158.663C373.168 161.481 373.702 164.346 375.129 166.779C376.556 169.211 378.975 171.164 381.77 171.544Z" fill="#FFB61D"/><path fill-rule="evenodd" clip-rule="evenodd" d="M248.621 363.869C249.135 363.842 249.685 363.824 250.121 364.099C250.658 364.438 250.854 365.114 251.009 365.73C251.347 367.08 251.688 368.484 251.416 369.849C251.142 371.213 250.066 372.524 248.676 372.584C245.129 372.74 241.584 372.894 238.038 373.049C236.647 373.11 235.018 373.309 234.327 374.517C233.858 375.335 233.998 376.352 234.152 377.283C234.586 379.921 235.815 383.256 238.487 383.159C240.264 383.095 241.849 384.444 242.614 386.049C243.378 387.655 243.493 389.482 243.594 391.258C243.69 392.929 243.263 395.213 241.59 395.254C240.24 395.288 239.868 397.112 239.911 398.461C240.209 407.847 240.507 417.232 240.805 426.617C240.853 428.129 238.916 428.765 237.41 428.917C224.795 430.191 212.049 430.157 199.441 428.817C198.99 428.769 198.412 428.592 198.402 428.138C198.169 417.533 197.935 406.929 197.702 396.324C197.689 395.706 197.385 394.851 196.788 395.014C194.91 395.528 193.021 393.784 192.631 391.876C192.243 389.967 192.91 388.019 193.567 386.185C193.872 385.338 194.213 384.439 194.94 383.908C196.493 382.774 199.363 383.581 200.059 381.789C200.174 381.492 200.196 381.168 200.185 380.85C200.088 378.08 197.509 375.895 194.792 375.348C192.076 374.8 189.276 375.52 186.63 376.345C186.024 374.057 185.869 371.651 186.175 369.305C186.248 368.751 186.361 368.169 186.733 367.753C187.264 367.159 188.148 367.076 188.943 367.034C208.835 365.979 228.728 364.924 248.621 363.869ZM195.583 385.355C195.2 385.799 195.116 386.418 195.047 387.001C194.867 388.517 194.687 390.035 194.508 391.552C194.47 391.871 194.435 392.208 194.564 392.503C194.839 393.133 195.672 393.242 196.36 393.259C200.012 393.35 203.664 393.44 207.315 393.532C207.931 393.546 208.577 393.555 209.124 393.272C210.003 392.816 210.365 391.577 209.869 390.72C210.315 390.674 210.762 390.629 211.209 390.583C211.013 391.906 212.36 393.013 213.684 393.208C215.008 393.403 216.338 392.999 217.671 392.893C220.467 392.672 223.26 393.769 226.045 393.439C226.338 393.405 226.651 393.344 226.856 393.132C227.124 392.854 227.119 392.42 227.097 392.035C226.992 390.185 226.886 388.337 226.78 386.488C226.747 385.905 226.697 385.279 226.323 384.832C225.789 384.193 224.831 384.173 223.999 384.205C219.979 384.361 215.959 384.516 211.938 384.672C211.658 384.683 211.347 384.707 211.152 384.909C210.934 385.136 210.95 385.493 210.979 385.806C211.114 387.245 211.249 388.684 211.384 390.122C210.851 390.175 210.328 390.331 209.853 390.579C209.734 389.446 209.616 388.312 209.497 387.178C209.388 386.144 208.984 384.82 207.944 384.806C204.626 384.762 201.308 384.718 197.99 384.674C197.127 384.662 196.146 384.701 195.583 385.355ZM214.701 396.509C214.645 395.746 214.314 394.735 213.553 394.817C208.821 395.326 204.032 395.296 199.308 394.73C199.424 405.026 199.616 415.321 199.883 425.615C199.917 426.94 201.589 427.47 202.908 427.605C206.824 428.006 210.767 428.143 214.701 428.015C215.024 428.004 215.373 427.982 215.619 427.773C215.942 427.498 215.963 427.016 215.959 426.591C215.846 416.554 215.426 406.521 214.701 396.509ZM238.363 395.942C238.234 395.72 237.939 395.674 237.683 395.652C233.613 395.307 229.521 395.21 225.439 395.363C225.069 395.376 224.673 395.401 224.38 395.628C223.935 395.972 223.907 396.621 223.92 397.184C224.145 407.46 224.37 417.736 224.595 428.013C229.089 428.446 233.665 428.022 238.002 426.768C238.272 426.691 238.558 426.598 238.733 426.378C238.921 426.14 238.933 425.813 238.937 425.51C239.022 418.899 238.852 412.287 238.681 405.678C238.601 402.563 238.52 399.449 238.439 396.336C238.436 396.2 238.431 396.058 238.363 395.942ZM187.892 369.892C187.112 371.118 187.95 372.851 189.233 373.536C190.515 374.222 192.053 374.155 193.505 374.071C202.288 373.562 211.072 373.053 219.855 372.545C228.233 372.059 236.61 371.573 244.973 370.893C246.198 370.793 247.485 370.667 248.497 369.97C249.509 369.273 250.097 367.8 249.418 366.775C248.738 365.748 247.273 365.7 246.042 365.764C227.79 366.705 209.539 367.647 191.287 368.588C190.026 368.653 188.569 368.827 187.892 369.892ZM223 427.773C222.383 417.741 222.261 407.68 222.634 397.637C222.655 397.06 222.675 396.459 222.444 395.93C221.772 394.384 219.61 394.389 217.944 394.646C217.182 394.764 216.209 395.128 216.266 395.897C216.981 405.504 217.696 415.126 217.535 424.758C217.514 426.033 218.244 427.294 219.361 427.91C220.477 428.526 221.933 428.471 223 427.773ZM241.851 390.74C241.634 389.414 241.407 388.06 240.76 386.882C240.114 385.705 238.956 384.719 237.615 384.652C235.066 384.525 232.517 384.398 229.969 384.271C229.306 384.238 228.389 384.438 228.421 385.101C228.518 387.118 228.615 389.136 228.712 391.152C228.754 392.032 228.919 393.095 229.734 393.429C229.998 393.537 230.289 393.545 230.573 393.552C233.896 393.628 237.219 393.704 240.542 393.78C241.177 393.794 241.708 393.237 241.882 392.626C242.054 392.016 241.953 391.366 241.851 390.74ZM225.761 380.801C225.429 379.4 225.082 377.967 224.286 376.768C223.49 375.568 222.139 374.631 220.703 374.737C218.491 374.899 216.278 375.062 214.065 375.225C212.687 375.326 211.126 375.524 210.318 376.646C209.341 378.002 210.011 379.894 209.747 381.545C209.654 382.125 210.107 382.681 210.649 382.906C211.192 383.131 211.801 383.105 212.387 383.075C216.349 382.871 220.309 382.667 224.27 382.463C224.851 382.433 225.549 382.327 225.781 381.793C225.915 381.484 225.84 381.128 225.761 380.801ZM232.702 378.264C231.949 377.232 231.967 375.703 232.746 374.689C231.358 373.826 229.413 373.986 228.184 375.063C226.955 376.14 226.541 378.046 227.213 379.536C227.449 380.061 227.313 380.683 227.481 381.234C227.717 382.018 228.537 382.51 229.349 382.611C230.161 382.711 230.976 382.498 231.767 382.287C232.804 382.009 234.066 381.455 234.056 380.381C234.048 379.525 233.208 378.956 232.702 378.264ZM207.951 381.939C208.411 380.435 207.792 378.719 206.61 377.679C205.43 376.64 203.776 376.235 202.208 376.376C201.579 376.432 200.923 376.588 200.466 377.027C200.011 377.465 199.848 378.254 200.258 378.734C200.562 379.089 201.081 379.193 201.399 379.536C201.883 380.058 201.72 380.893 201.942 381.571C202.443 383.101 204.521 383.245 206.124 383.098C206.673 383.048 207.278 382.971 207.64 382.555C207.791 382.38 207.883 382.161 207.951 381.939ZM208.21 376.878C208.582 376.518 208.649 375.886 208.361 375.456C207.722 375.266 207.006 375.646 206.669 376.223C206.919 376.796 207.623 377.127 208.224 376.955M226.476 375.28C226.57 375.029 226.515 374.729 226.339 374.527C225.731 374.335 225.024 374.507 224.572 374.956C225.037 375.483 225.882 375.625 226.492 375.279L226.476 375.28Z" fill="#00160A"/><path fill-rule="evenodd" clip-rule="evenodd" d="M470.581 332.637C451.109 340.252 431.635 347.866 412.163 355.481C403.786 358.757 394.095 363.673 393.197 372.622C404.576 363.868 418.632 358.643 432.967 357.84C423.064 370.317 410.56 380.72 396.488 388.186C383.852 394.892 367.854 402.043 366.77 416.307C380.34 400.147 401.206 390.364 422.309 390.266C408.808 410.04 387.16 424.066 363.595 428.306C364.404 434.382 365.212 440.459 366.021 446.535C374.028 446.251 382.083 447.397 389.693 449.901C395.113 473.185 400.533 496.467 405.952 519.751C407.286 525.481 408.46 532.064 404.952 536.787C401.471 541.471 394.898 542.277 389.076 542.69C366.134 544.322 343.191 545.953 320.248 547.583C317.501 535.139 314.754 522.694 312.007 510.248C273.307 513.842 234.607 517.435 195.908 521.029C187.758 521.786 179.138 522.464 171.764 518.914C145.015 506.036 112.581 530.962 84.3287 521.843C109.151 521.375 133.897 517.045 157.404 509.057C165.929 506.16 176.136 498.225 171.682 490.4C149.883 505.61 121.912 511.683 95.7681 506.881C97.3026 481.491 96.3157 455.95 92.8251 430.754C111.428 428.093 129.761 423.551 147.454 417.221C152.376 415.46 157.439 413.433 160.944 409.554C164.449 405.676 165.866 399.411 162.786 395.187C135.875 409.527 104.803 415.945 74.4125 413.44C75.9983 447.827 77.5842 482.214 79.1701 516.601C74.6778 482.239 72.2956 447.601 72.041 412.947C87.6849 411.56 103.328 410.173 118.972 408.786C116.456 397.62 113.925 386.198 115.218 374.825C116.509 363.451 122.363 351.934 132.652 346.919C124.868 330.317 113.104 315.597 98.6266 304.345C81.6546 291.154 59.8345 281.209 52.0841 261.159C46.9596 247.903 49.4732 232.484 56.5688 220.169C63.6645 207.855 74.9082 198.368 87.1289 191.112C70.304 186.788 57.56 170.016 57.901 152.648C58.2419 135.279 71.6343 119.021 88.6157 115.361C80.6093 105.819 68.0023 101.446 58.7937 93.0593C48.0662 83.2896 42.6756 67.5302 46.5832 53.5569C50.4907 39.5835 64.2488 28.5895 78.7454 29.209C90.6524 29.7178 101.131 37.249 109.443 45.7907C122.333 59.0379 131.92 75.4757 137.103 93.2183C140.558 105.044 153.219 111.06 163.912 117.18C174.605 123.3 185.709 133.961 182.696 145.906C178.713 129.559 165.339 115.857 149.093 111.479C140.629 109.198 137.543 99.125 134.82 90.7914C129.522 74.5746 120.476 59.595 108.592 47.3551C99.6603 38.1566 87.9836 30.13 75.181 30.821C62.0017 31.5324 50.3837 42.2531 47.3706 55.1031C44.3575 67.953 49.4094 82.0332 59.0259 91.0733C68.8209 100.282 82.8334 104.792 90.7308 115.672C73.6035 119.152 60.0629 135.635 59.9729 153.112C59.8829 170.589 73.2532 187.21 90.3437 190.866C78.2999 197.917 67.0298 206.872 59.5991 218.685C52.1684 230.498 48.9832 245.491 53.4293 258.719C63.7129 289.316 106.576 296.619 121.703 325.134C125.799 311.679 119.794 297.531 116.708 283.807C113.621 270.085 115.365 252.462 128.16 246.619C124.421 228.596 120.681 210.574 116.942 192.551C114.156 179.122 112.758 162.108 124.311 154.715C116.171 152.191 108.946 146.813 104.192 139.741C109.326 147.6 119.215 152.059 128.505 150.704C116.766 125.257 103.75 100.398 89.522 76.2548C104.853 99.3708 118.42 123.656 130.069 148.828C183.948 147.371 237.909 149.03 291.596 153.797C298.724 154.43 306.395 155.351 311.664 160.193C319.236 167.151 330.605 169.69 340.417 166.612C343.539 174.351 345.836 183.044 343.182 190.956C340.528 198.868 331.128 204.907 323.614 201.277C325.575 211.368 327.537 221.46 329.498 231.55C348.71 231.782 367.92 232.174 387.127 232.728C397.306 233.021 407.945 233.484 416.792 238.527C425.639 243.57 431.882 254.741 427.941 264.131C430.455 256.371 432.968 248.611 435.481 240.851C444.34 254.913 448.692 271.768 447.746 288.361C450.814 283.691 453.883 279.022 456.952 274.353C446.049 257.192 444.661 234.384 453.403 216.028C461.977 230.227 466.806 246.664 467.275 263.244C470.472 233.363 491.643 206.123 519.809 195.646C514.922 206.906 510.036 218.167 505.149 229.426C500.965 239.067 495.65 249.76 485.597 252.823C478.966 254.842 469.363 254.72 468.161 261.548C487.208 256.553 507.481 256.305 526.644 260.834C511.878 278.588 483.421 282.96 464.006 270.457C454.847 280.672 446.912 291.983 440.423 304.072C451.445 290.373 468.598 281.807 486.171 281.225C476.73 292.383 466.081 302.518 454.47 311.397C460.633 311.989 467.296 312.801 471.766 317.084C476.236 321.367 476.347 330.382 470.581 332.637ZM213.539 220.187C218.646 220.128 224.366 220.31 227.931 223.967C230.651 226.757 231.38 230.873 231.973 234.724C234.685 252.336 237.223 269.973 239.588 287.634C240.182 292.064 236.468 296.152 232.225 297.557C227.982 298.962 223.369 298.345 218.944 297.714C222.633 294.53 228.862 296.812 232.832 293.987C236.393 291.453 236.373 286.25 235.947 281.9C234.348 265.591 232.171 249.339 229.421 233.185C228.935 230.329 228.339 227.291 226.317 225.218C223.623 222.457 219.319 222.273 215.462 222.268C199.628 222.248 183.794 222.229 167.96 222.209C165.231 222.206 162.36 222.238 159.991 223.592C153.173 227.489 155.687 237.781 159.075 244.865C168.677 242.919 178.487 242.006 188.282 242.149C196.96 242.275 207.781 245.093 209.245 253.647C212.46 272.44 215.674 291.233 218.888 310.026C220.574 319.88 221.503 331.852 213.628 338.011C209.694 341.088 204.472 341.821 199.516 342.448C187.331 343.989 175.145 345.529 162.96 347.07C168.035 391.507 173.11 435.945 178.185 480.382C178.751 485.339 179.787 491.037 184.146 493.465C186.724 494.901 189.851 494.783 192.798 494.623C231.624 492.505 270.413 489.701 309.14 486.212C307.591 482.683 307.56 478.517 309.057 474.964C312.98 497.928 316.902 520.892 320.825 543.856C327.693 539.122 326.637 528.846 324.813 520.707C320.197 500.099 315.581 479.492 310.965 458.884C309.096 462.312 307.227 465.741 305.358 469.169C304.441 464.889 307.009 460.46 310.572 457.915C314.134 455.37 318.524 454.327 322.805 453.409C335.965 450.587 349.268 448.432 362.647 446.954C358.759 419.529 354.871 392.105 350.983 364.679C327.081 371.244 301.769 369.178 277.073 367.061C269.758 366.434 260.463 363.972 259.764 356.664C258.011 338.292 256.258 319.92 254.504 301.548C254.276 299.152 252.888 295.927 250.603 296.681C244.989 298.535 241.65 290.536 241.19 284.641C239.749 266.153 238.307 247.664 236.866 229.175C236.677 226.75 236.628 223.952 238.436 222.325C239.702 221.186 241.525 220.977 243.221 220.823C255.319 219.716 267.416 218.61 279.514 217.505C286.423 216.872 294.269 216.546 299.297 221.327C302.845 224.701 304.035 229.817 304.784 234.655C306.164 243.573 306.621 252.634 306.146 261.645C305.186 252.836 304.228 244.028 303.269 235.22C302.838 231.256 302.311 227.054 299.807 223.952C295.534 218.657 287.584 218.746 280.802 219.303C268.688 220.3 256.574 221.297 244.46 222.294C242.829 222.428 241.061 222.621 239.875 223.749C238.332 225.218 238.376 227.647 238.53 229.771C239.828 247.639 241.126 265.507 242.424 283.375C242.669 286.747 243.002 290.352 245.134 292.977C247.266 295.602 251.892 296.426 253.884 293.693C251.155 287.694 254.93 280.347 260.518 276.85C266.106 273.353 272.963 272.738 279.534 272.214C290.866 271.31 302.198 270.406 313.531 269.502C312.754 246.046 310.224 222.65 305.97 199.571C302.051 198.475 298.482 196.158 295.885 193.025C293.941 198.03 288.153 201.212 282.885 200.169C277.617 199.126 273.478 193.979 273.588 188.61C272.963 194.789 267.581 200.148 261.4 200.745C255.219 201.343 248.909 197.115 247.112 191.171C244.152 194.471 240.311 197.316 235.895 197.719C231.48 198.12 226.595 195.332 225.877 190.956C220.078 198.48 206.6 197.716 201.688 189.586C196.635 197.925 182.249 197.72 177.436 189.241C175.275 197.08 163.21 197.707 157.419 191.998C151.628 186.29 150.5 177.496 149.695 169.405C140.135 178.615 138.411 193.412 140.225 206.561C142.039 219.712 146.767 232.379 147.915 245.604C150.533 246.262 153.406 245.847 155.73 244.473C153.219 236.884 151.568 226.689 158.385 222.515C161.119 220.841 164.503 220.755 167.708 220.718C182.985 220.541 198.262 220.365 213.539 220.187ZM364.874 347.895C384.914 346.899 405.586 349.511 424.63 343.196C427.577 342.218 430.596 340.931 432.495 338.474C427.63 336.238 422.464 332.383 422.583 327.031C422.661 323.515 425.097 320.477 427.841 318.279C430.722 315.971 434.076 314.258 437.634 313.276C437.922 312.395 436.374 312.204 435.607 312.724C434.84 313.245 433.676 313.888 433.166 313.115C433.028 312.907 433.001 312.648 432.976 312.401C431.065 292.949 428.232 273.588 424.491 254.404C423.367 248.636 421.696 242.211 416.612 239.263C413.867 237.671 410.577 237.404 407.411 237.185C383.581 235.536 359.707 234.527 335.823 234.157C330.179 234.07 323.865 234.28 319.907 238.306C316.906 241.36 316.046 245.896 315.728 250.167C314.744 263.39 317.576 276.554 319.418 289.685C321.625 305.416 322.419 321.305 323.875 337.123C324.068 339.228 324.303 341.421 325.442 343.202C327.394 346.255 331.357 347.213 334.946 347.716C340.247 348.459 345.608 348.773 350.961 348.655C355.605 348.552 360.235 348.125 364.874 347.895ZM200.413 245.858C193.629 242.876 185.859 243.675 178.498 244.53C167.363 245.822 156.229 247.115 145.094 248.407C139.743 249.029 134.386 249.651 129.092 250.649C127.815 250.89 126.535 251.155 125.331 251.641C120.611 253.549 117.798 258.637 117.144 263.685C116.489 268.732 117.611 273.821 118.687 278.796C122.029 294.258 124.994 309.863 125.798 325.662C125.957 328.789 126.037 331.958 126.897 334.969C127.756 337.981 129.511 340.878 132.256 342.386C134.366 343.546 136.847 343.787 139.251 343.945C161.283 345.393 183.304 341.84 205.098 338.299C208.199 337.795 211.462 337.22 213.879 335.214C217.612 332.115 218.17 326.663 218.143 321.81C218.094 312.85 217.009 303.896 214.917 295.182C212.471 284.992 208.63 274.967 208.528 264.488C208.483 259.865 209.09 254.885 206.678 250.941C205.253 248.611 202.913 246.957 200.413 245.858ZM95.57 439.912C98.5314 461.193 99.5267 482.747 98.5383 504.21C98.486 505.342 99.8608 505.918 100.974 506.131C115.221 508.855 129.894 505.365 143.72 500.975C151.579 498.48 159.444 495.636 166.241 490.967C169.35 488.831 172.497 485.613 171.915 481.886C168.18 457.941 166.125 433.736 165.772 409.504C153.192 419.333 137.229 423.504 121.757 427.44C114.424 429.306 106.992 431.184 99.4253 431.121C97.5959 431.105 96.0776 432.712 95.5661 434.468C95.0554 436.225 95.3181 438.1 95.57 439.912ZM384.727 450.669C361.162 448.375 337.124 451.069 314.653 458.524C316.002 468.789 317.846 478.987 320.175 489.074C321.108 493.113 322.118 497.133 323.129 501.154C325.097 508.984 327.064 516.813 329.032 524.642C329.306 525.732 329.649 526.923 330.589 527.539C331.427 528.09 332.512 528.027 333.512 527.944C356.779 526.003 380.034 523.901 403.273 521.637C398.193 498.991 393.112 476.345 388.032 453.7C387.837 452.83 387.602 451.892 386.91 451.33C386.31 450.844 385.495 450.745 384.727 450.669ZM349.991 351.259C344.863 351.52 339.659 351.775 334.652 350.638C329.646 349.501 324.773 346.772 322.202 342.328C320.727 344.026 317.793 344.154 316.176 342.589C314.558 341.025 314.587 338.089 316.236 336.557C309.722 336.616 303.209 336.674 296.695 336.733C299.671 338.487 299.427 343.657 296.35 345.228C293.272 346.798 289.013 344.145 288.942 340.691C288.91 339.141 289.861 337.4 291.405 337.261C290.765 336.164 289.102 336.813 287.837 336.693C285.931 336.513 284.89 334.436 284.221 332.642C281.509 325.366 279.041 318.002 276.574 310.64C278.302 313.467 282.192 314.739 285.257 313.478C286.339 313.033 286.372 311.476 285.911 310.4C285.106 308.522 283.272 307.073 281.235 306.914C279.197 306.754 277.077 307.999 276.388 309.923C275.366 309.159 275.802 307.394 276.873 306.702C277.945 306.01 279.317 306.071 280.59 306.148C292.603 306.874 304.662 306.862 316.674 306.113C317.221 306.079 317.824 306.018 318.196 305.617C318.618 305.163 318.577 304.463 318.51 303.847C318.051 299.621 317.592 295.396 317.133 291.17C317.082 290.702 317.01 290.19 316.659 289.874C316.274 289.526 315.693 289.542 315.175 289.579C300.117 290.652 285.098 292.273 270.158 294.437C268.567 294.668 267.088 293.333 266.587 291.806C266.084 290.28 266.316 288.621 266.554 287.032C266.637 286.474 266.743 285.87 267.156 285.486C267.536 285.133 268.087 285.05 268.603 284.984C284.146 283 299.791 281.81 315.456 281.419C315.076 282.967 313.058 283.3 311.464 283.328C296.926 283.586 282.404 284.752 268.01 286.816C266.861 288.781 268.436 291.428 270.557 292.255C272.679 293.081 275.055 292.639 277.293 292.219C289.625 289.898 302.137 288.53 314.68 288.131C316.47 288.074 316.684 285.498 316.308 283.746C315.434 279.678 314.56 275.61 313.686 271.543C305 273.187 296.127 273.843 287.294 273.495C282.067 273.288 276.869 274.201 271.717 275.111C267.339 275.885 262.674 276.801 259.51 279.924C255.812 283.575 255.15 289.283 255.374 294.475C255.742 302.992 257.904 311.323 258.97 319.781C260.274 330.116 259.939 340.592 260.94 350.96C261.209 353.753 261.594 356.599 262.846 359.11C264.098 361.621 266.375 363.777 269.151 364.191C291.958 367.592 315.213 367.978 338.122 365.337C340.238 365.093 342.373 364.818 344.37 364.079C347.523 362.912 350.226 360.574 351.835 357.622C352.481 356.437 352.963 355.082 352.727 353.754C352.492 352.425 351.338 351.191 349.991 351.259ZM167.652 409.524C170.038 435.785 172.425 462.045 174.812 488.305C175.242 493.025 175.655 497.901 174.179 502.405C172.704 506.909 168.823 510.98 164.086 511.135C166.867 515.203 171.666 517.529 176.52 518.381C181.373 519.232 186.35 518.782 191.256 518.329C231.685 514.593 272.113 510.857 312.541 507.123C311.674 502.07 310.806 497.018 309.938 491.966C309.744 490.833 309.187 489.394 308.039 489.48C280.242 491.551 252.445 493.623 224.648 495.694C213.234 496.545 201.764 497.396 190.356 496.463C184.583 495.991 177.453 493.696 176.884 487.933C172.327 441.817 167.052 395.771 161.06 349.819C160.967 349.113 160.853 348.357 160.369 347.833C159.724 347.133 158.657 347.08 157.705 347.075C152.021 347.046 146.337 347.017 140.653 346.988C142.313 356.405 144.468 365.735 147.106 374.926C147.594 376.625 148.405 378.608 150.145 378.914C156.395 380.011 161.328 385.152 163.899 390.953C166.47 396.755 167.078 403.205 167.652 409.524ZM145.813 246.066C140.934 221.321 136.807 196.428 133.437 171.433C133.246 170.019 133.062 168.554 133.478 167.189C134.336 164.377 137.411 162.904 140.272 162.225C145.865 160.898 151.705 161.341 157.438 161.763C209.846 165.628 262.426 167.174 314.971 166.396C312.881 162.157 308.678 159.266 304.208 157.733C299.737 156.2 294.96 155.859 290.246 155.534C243.992 152.337 197.669 149.342 151.308 149.901C145.636 149.969 139.897 150.099 134.421 151.576C128.944 153.053 123.674 156.028 120.515 160.739C115.536 168.162 116.74 177.969 118.281 186.773C121.89 207.392 126.281 227.875 131.44 248.161C136.232 247.463 141.022 246.765 145.813 246.066ZM258.659 197.702C261.163 197.729 263.766 197.588 265.982 196.421C269.885 194.367 271.618 189.633 271.876 185.23C272.134 180.826 271.265 176.413 271.544 172.011C271.609 171.008 272.168 169.678 273.142 169.93C273.847 174.998 274.552 180.065 275.257 185.133C275.646 187.93 276.051 190.78 277.276 193.326C278.502 195.87 280.706 198.107 283.48 198.64C285.073 198.946 286.737 198.672 288.255 198.101C291.891 196.734 294.937 193.255 294.799 189.373C294.609 184.014 294.417 178.654 294.227 173.295C294.152 171.176 293.363 168.35 291.245 168.462C277.119 169.201 262.952 169.136 248.834 168.266C247.805 168.202 247.533 169.66 247.642 170.686C248.208 176.002 248.772 181.318 249.337 186.633C249.764 190.647 250.675 195.364 254.358 197.016C255.692 197.614 257.196 197.687 258.659 197.702ZM331.105 531.26C330.428 531.734 329.981 532.464 329.57 533.18C327.427 536.91 325.706 540.88 324.448 544.993C349.174 543.266 373.879 541.258 398.56 538.972C399.488 538.886 400.494 538.764 401.159 538.112C401.591 537.689 401.813 537.102 402.022 536.534C402.946 534.024 403.869 531.515 404.793 529.005C405.243 527.784 405.642 526.265 404.763 525.305C404.032 524.508 402.791 524.533 401.713 524.619C379.148 526.427 356.594 528.374 334.053 530.459C333.027 530.554 331.949 530.668 331.105 531.26ZM374.691 378.923C374.023 371.122 372.661 362.367 366.295 357.81C363.81 364.65 361.303 371.594 360.734 378.851C360.166 386.107 361.769 393.84 366.636 399.251C367.321 400.011 368.081 400.749 368.443 401.705C368.806 402.662 368.622 403.924 367.735 404.432C361.118 398.675 358.38 389.443 358.535 380.675C358.69 371.907 361.377 363.405 364.04 355.05C364.625 353.215 362.951 351.283 361.073 350.855C359.194 350.428 357.254 351.055 355.43 351.676C355.076 351.796 354.919 352.202 354.807 352.56C353.545 356.579 352.272 360.84 353.249 364.937C357.459 382.593 356.915 401.123 361.2 418.76C361.358 419.411 361.529 420.076 361.908 420.628C364.75 415.072 367.592 409.516 370.433 403.96C371.769 401.349 373.111 398.719 373.945 395.908C375.566 390.441 375.178 384.604 374.691 378.923ZM475.214 250.77C475.763 251.224 476.499 251.366 477.207 251.445C485.242 252.344 492.826 246.874 497.275 240.123C501.725 233.372 503.827 225.396 506.745 217.855C509.483 210.777 512.984 203.995 517.17 197.665C508.79 205.528 498.474 211.033 489.728 218.486C480.981 225.939 473.537 236.391 474.154 247.865C474.212 248.926 474.394 250.095 475.214 250.77ZM153.382 174.733C154.524 179.74 154.052 185.305 156.826 189.627C159.515 193.816 165.188 195.813 169.909 194.232C174.63 192.65 177.956 187.639 177.578 182.674C177.492 181.546 177.238 180.439 176.983 179.336C175.989 175.016 174.994 170.696 174 166.376C173.901 165.946 173.79 165.493 173.485 165.175C173.048 164.718 172.348 164.665 171.716 164.64C165.64 164.408 159.564 164.175 153.486 163.943C152.902 163.92 152.261 163.916 151.806 164.284C151.231 164.751 151.198 165.607 151.273 166.343C151.564 169.216 152.74 171.918 153.382 174.733ZM317.873 179.403C318.018 186.32 322.524 192.334 327.276 197.361C327.74 197.852 328.216 198.345 328.796 198.692C329.734 199.253 330.875 199.385 331.963 199.292C335.634 198.977 338.775 196.2 340.325 192.857C341.874 189.514 342.049 185.69 341.715 182.021C341.381 178.351 340.569 174.737 340.242 171.067C340.176 170.331 339.905 169.37 339.166 169.373C332.67 169.398 326.173 169.422 319.677 169.448C318.846 169.451 317.965 169.468 317.263 169.912C316.561 170.357 316.169 171.396 316.69 172.044C318.281 174.023 317.819 176.865 317.873 179.403ZM416.665 393.349C398.866 393.035 382.549 403.587 370.1 416.311C368.002 418.456 365.953 420.707 364.556 423.362C364.308 423.832 364.113 424.487 364.519 424.83C364.734 425.013 365.043 425.023 365.325 425.023C375.68 424.986 385.639 420.612 394.052 414.575C402.466 408.538 409.554 400.876 416.665 393.349ZM196.424 192.976C198.967 191.512 200.604 188.598 200.529 185.665C200.492 184.177 200.053 182.734 199.699 181.289C198.789 177.569 198.436 173.715 198.653 169.892C198.7 169.078 198.769 168.242 198.525 167.464C198.28 166.686 197.631 165.971 196.816 165.926C190.091 165.559 183.365 165.191 176.638 164.824C176.397 164.811 176.132 164.804 175.937 164.947C175.634 165.17 175.652 165.62 175.708 165.991C176.535 171.464 179.184 176.62 179.353 182.153C179.416 184.189 179.144 186.275 179.714 188.231C180.444 190.735 182.53 192.712 184.95 193.686C187.369 194.66 190.084 194.716 192.651 194.253C193.965 194.016 195.268 193.641 196.424 192.976ZM465.559 267.909C470.43 269.283 474.737 272.156 479.462 273.969C489.939 277.987 502.409 276.309 511.45 269.666C515.333 266.812 519.216 263.959 523.098 261.106C518.365 262.227 513.469 262.655 508.615 262.376C500.502 261.908 492.49 259.478 484.387 260.087C477.493 260.605 470.789 263.389 465.559 267.909ZM326.456 230.423C325.498 225.119 324.541 219.815 323.584 214.512C322.3 207.403 321.017 200.295 319.734 193.187C319.643 192.682 319.533 192.141 319.159 191.79C318.785 191.439 318.056 191.439 317.853 191.909C316.571 194.867 313.947 197.212 310.864 198.154C308.993 198.725 308.834 201.277 309.051 203.221C310.585 216.936 312.401 230.619 314.497 244.259C315.107 238.681 319.887 233.836 325.458 233.152C326.541 233.019 326.65 231.497 326.456 230.423ZM224.116 187.284C223.521 181.566 222.771 175.864 221.865 170.187C221.679 169.017 221.18 167.558 219.996 167.505C213.874 167.237 207.752 166.969 201.63 166.7C201.412 166.691 201.181 166.683 200.988 166.786C200.494 167.048 200.575 167.768 200.721 168.308C202.132 173.55 202.882 178.97 202.945 184.398C202.96 185.734 202.945 187.121 203.504 188.334C204.327 190.12 206.2 191.144 207.981 191.979C211.083 193.432 214.475 194.71 217.86 194.182C221.245 193.654 224.471 190.691 224.116 187.284ZM226.764 187.316C227.381 190.307 228.513 193.787 231.444 194.647C233.917 195.373 236.592 195.574 239.073 194.874C241.554 194.174 243.816 192.508 244.927 190.182C245.717 188.526 245.895 186.652 245.998 184.82C246.28 179.802 246.086 174.756 245.42 169.774C245.384 169.508 245.345 169.233 245.209 169C244.852 168.382 244.011 168.295 243.296 168.28C237.062 168.144 230.829 168.008 224.595 167.872C224.086 167.861 223.374 168.39 223.805 168.662C224.503 174.921 225.49 181.148 226.764 187.316ZM436.232 249.228C431.362 260.238 429.928 272.738 432.177 284.564C433.076 289.289 434.843 294.302 438.933 296.833C440.136 297.578 442.142 297.797 442.588 296.454C447.761 280.846 445.347 262.912 436.232 249.228ZM120.589 387.459C122.655 388.877 124.984 389.91 127.42 390.49C130.501 391.225 133.699 391.233 136.864 391.309C144.26 391.487 151.647 392.054 158.984 393.006C160.007 393.138 160.853 392.031 160.826 391C160.799 389.967 160.171 389.056 159.521 388.255C155.608 383.435 149.894 380.112 143.769 379.096C139.43 378.377 134.994 378.78 130.597 378.654C126.201 378.527 121.612 377.783 118.106 375.127C117.92 377.652 117.906 380.191 118.062 382.718C118.125 383.741 118.228 384.802 118.75 385.684C119.187 386.424 119.881 386.973 120.589 387.459ZM298.529 191.297C299.218 192.548 300.326 193.514 301.462 194.383C302.691 195.325 304.02 196.208 305.53 196.553C309.249 197.405 313.052 194.65 314.62 191.171C316.187 187.692 316.028 183.705 315.666 179.907C315.391 177.036 315.017 174.173 314.545 171.327C314.467 170.853 314.375 170.357 314.077 169.979C313.554 169.317 312.596 169.24 311.752 169.218C307.218 169.097 302.684 168.977 298.15 168.856C297.146 168.83 295.721 169.31 296.019 170.269C297.353 174.562 297.935 179.088 297.73 183.578C297.61 186.199 297.262 188.999 298.529 191.297ZM458.986 271.003C463.8 263.235 465.241 253.454 462.871 244.628C460.777 236.824 455.909 229.911 454.365 221.98C450.768 232.896 447.145 244.647 450.399 255.67C452.067 261.32 455.436 266.302 458.986 271.003ZM379.238 393.22C393.555 389.532 406.77 381.671 416.844 370.849C419.857 367.611 422.942 364.44 426.096 361.338C418.37 362.397 410.828 364.786 403.902 368.369C393.335 373.835 384.064 382.346 379.238 393.22ZM466.465 298.19C471.73 293.242 476.996 288.293 482.262 283.344C464.454 285.614 447.824 295.903 437.845 310.826C440.417 312.807 444.108 311.641 447.107 310.399C451.281 308.674 455.489 306.929 459.204 304.362C461.82 302.554 464.148 300.368 466.465 298.19ZM120.134 406.346C120.178 406.803 120.233 407.286 120.509 407.653C121.116 408.455 122.352 408.258 123.316 407.976C134.366 404.747 145.262 400.987 155.951 396.714C156.722 396.406 157.621 395.919 157.636 395.089C149.436 394.52 141.235 393.952 133.035 393.383C131.029 393.244 129.015 393.103 127.049 392.684C124.09 392.052 121.27 390.784 118.835 388.991C119.013 394.79 119.574 400.57 120.134 406.346ZM379.187 350.86C378.525 351.338 378.258 352.181 378.03 352.964C377.249 355.655 376.465 358.509 377.19 361.214C377.56 362.593 378.301 363.838 379.033 365.063C381.06 368.451 383.088 371.839 385.114 375.227C385.303 375.542 385.508 375.873 385.833 376.044C386.801 376.552 387.756 375.358 388.206 374.362C391.123 367.891 394.106 361.049 393.445 353.983C393.343 352.896 393.048 351.663 392.077 351.165C391.631 350.936 391.113 350.907 390.612 350.882C387.607 350.733 384.602 350.584 381.598 350.434C380.766 350.393 379.861 350.372 379.187 350.86ZM425.116 326.905C425.04 331.46 429.012 335.267 433.37 336.593C437.728 337.918 442.404 337.348 446.933 336.862C454.896 336.007 463.318 335.302 469.864 330.688C471.316 329.664 472.689 328.401 473.338 326.746C474.35 324.165 473.332 321.118 471.43 319.101C469.527 317.084 466.89 315.931 464.249 315.086C454.813 312.065 444.338 312.414 435.124 316.053C430.264 317.973 425.205 321.68 425.116 326.905ZM119.384 373.425C120.242 374.226 121.981 374.43 122.315 373.306C123.461 369.453 126.037 366.15 129.072 363.514C132.107 360.879 135.605 358.843 139.081 356.824C140.019 356.28 139.96 354.929 139.778 353.86C139.427 351.789 139.076 349.719 138.725 347.648C138.636 347.124 138.461 346.499 137.947 346.358C137.527 346.244 137.113 346.527 136.769 346.795C134.276 348.743 131.783 350.69 129.289 352.636C124.293 356.538 118.939 361.014 117.856 367.259C117.479 369.435 117.77 371.919 119.384 373.425ZM138.834 359.488C133.234 362.984 127.307 366.856 124.762 372.948C124.603 373.327 124.458 373.726 124.47 374.137C124.494 374.947 125.148 375.63 125.897 375.941C126.645 376.253 127.479 376.267 128.29 376.276C133.084 376.333 137.878 376.389 142.671 376.446C142.904 376.448 143.157 376.445 143.341 376.302C143.631 376.075 143.602 375.634 143.545 375.27C142.78 370.438 142.015 365.606 141.251 360.773C141.142 360.085 140.92 359.263 140.249 359.076C139.761 358.939 139.264 359.219 138.834 359.488ZM376.995 351.156C373.465 350.246 369.658 350.445 366.243 351.717C366.904 353.887 368.076 355.901 369.638 357.547C374.9 363.095 376.456 371.15 377.053 378.773C377.372 382.844 377.484 386.932 377.39 391.016C379.702 387.45 382.012 383.884 384.324 380.318C384.554 379.964 384.791 379.589 384.816 379.167C384.841 378.745 384.65 378.343 384.455 377.967C382.174 373.563 378.823 369.765 376.706 365.279C374.59 360.793 373.942 355.066 376.995 351.156ZM140.53 164.508C138.583 164.817 136.363 165.312 135.438 167.052C134.799 168.256 134.988 169.712 135.193 171.059C136.04 176.607 136.885 182.156 137.732 187.704C142.062 179.918 146.116 171.983 150.169 164.05C149.418 163.202 148.089 163.309 146.971 163.486C144.824 163.827 142.677 164.168 140.53 164.508ZM407.025 352.893C407.625 353.688 409.19 352.808 408.822 351.882C414.604 353.543 420.908 352.361 426.37 349.839C431.832 347.316 436.6 343.536 441.294 339.772C439.323 339.497 437.351 339.222 435.381 338.946C434.978 338.89 434.457 338.898 434.303 339.273C433.242 341.871 430.957 343.817 428.434 345.046C425.911 346.275 423.134 346.87 420.389 347.455C418.485 347.861 416.579 348.267 414.675 348.673C411.724 349.301 408.397 350.206 407.025 352.893ZM302.412 312.66C302.782 312.567 303.18 312.455 303.417 312.155C303.785 311.69 303.6 311.022 303.504 310.436C303.408 309.851 303.556 309.072 304.14 308.971C304.673 309.077 304.918 309.708 304.931 310.251C304.944 310.794 304.825 311.36 305.021 311.866C305.458 312.994 307.014 313.038 308.213 312.885C308.923 312.795 309.632 312.704 310.342 312.614C310.564 312.586 310.801 312.551 310.967 312.399C311.492 311.919 310.761 311.134 310.598 310.441C310.473 309.905 310.724 309.326 310.559 308.801C310.28 307.907 309.091 307.77 308.154 307.801C300.992 308.039 293.831 308.277 286.668 308.514C286.791 309.87 287.162 311.202 287.757 312.425C287.885 312.69 288.036 312.962 288.29 313.107C288.549 313.256 288.865 313.246 289.162 313.232C290.942 313.15 292.722 313.067 294.503 312.984C294.655 312.977 294.814 312.968 294.94 312.884C295.265 312.669 295.152 312.174 295.003 311.814C294.746 311.194 294.489 310.575 294.232 309.956C294.008 309.417 294.983 309.098 295.394 309.512C295.804 309.927 295.82 310.577 296.013 311.127C296.415 312.269 297.629 312.965 298.83 313.112C300.032 313.259 301.239 312.958 302.412 312.66ZM406.425 350.574C406.815 350.158 405.954 349.724 405.389 349.793C402.163 350.189 398.938 350.584 395.714 350.98C395.283 351.033 394.713 351.269 394.816 351.691C395.875 356.03 395.478 360.713 393.701 364.811C393.363 365.592 393.141 366.784 393.951 367.046C397.314 361.009 401.526 355.447 406.425 350.574ZM296.541 315.934C296.44 315.583 296.326 315.215 296.059 314.967C295.756 314.684 295.318 314.613 294.907 314.567C292.794 314.336 290.64 314.481 288.577 314.994C289.223 317.087 289.868 319.18 290.513 321.274C290.636 321.67 290.8 322.115 291.185 322.27C291.382 322.35 291.603 322.336 291.815 322.322C293.901 322.175 295.987 322.029 298.073 321.883C297.62 319.885 297.109 317.901 296.541 315.934ZM282.958 323.253C283.19 323.379 283.473 323.341 283.734 323.298C285.623 322.99 287.512 322.683 289.4 322.375C288.719 320.191 288.037 318.007 287.356 315.822C287.256 315.502 287.131 315.15 286.836 314.991C286.602 314.865 286.319 314.891 286.055 314.922C284.371 315.118 282.687 315.314 281.003 315.51C280.686 315.547 280.312 315.626 280.194 315.922C280.114 316.123 280.189 316.349 280.265 316.552C281.007 318.554 281.748 320.556 282.49 322.558C282.589 322.826 282.707 323.116 282.958 323.253ZM304.179 314.527C303.779 314.18 303.188 314.204 302.661 314.248C300.998 314.385 299.334 314.521 297.671 314.658C298.168 316.789 298.794 318.891 299.545 320.947C299.643 321.217 299.754 321.501 299.983 321.674C300.269 321.89 300.66 321.877 301.018 321.856C302.153 321.787 303.289 321.719 304.424 321.651C304.947 321.619 305.583 321.507 305.759 321.014C305.843 320.777 305.788 320.515 305.734 320.269C305.388 318.731 305.043 317.192 304.698 315.655C304.605 315.244 304.497 314.804 304.179 314.527ZM294.255 329.841C294.091 329.867 293.916 329.897 293.796 330.013C293.563 330.238 293.669 330.626 293.792 330.926C294.229 331.995 294.666 333.065 295.103 334.134C295.265 334.531 295.448 334.952 295.81 335.182C296.145 335.394 296.566 335.399 296.961 335.396C298.471 335.387 299.98 335.378 301.489 335.369C301.71 335.368 301.95 335.36 302.12 335.219C302.429 334.964 302.314 334.474 302.172 334.1C301.591 332.569 301.011 331.039 300.43 329.508C300.243 329.017 299.56 329.01 299.041 329.091C297.446 329.341 295.851 329.591 294.255 329.841ZM306.954 314.225C306.637 314.226 306.281 314.243 306.066 314.478C305.808 314.761 305.891 315.203 305.988 315.573C306.417 317.195 306.847 318.818 307.275 320.44C307.351 320.725 307.439 321.03 307.668 321.217C307.972 321.465 308.411 321.418 308.799 321.359C310.23 321.141 311.661 320.922 313.091 320.704C312.938 319.043 312.674 317.393 312.303 315.767C312.187 315.259 312.026 314.704 311.586 314.425C311.257 314.216 310.842 314.21 310.452 314.212C309.286 314.216 308.12 314.22 306.954 314.225ZM309.867 335.178C309.403 333.495 308.94 331.811 308.476 330.126C308.299 329.483 308.048 328.755 307.426 328.512C307.119 328.393 306.778 328.419 306.451 328.447C304.924 328.58 303.397 328.713 301.87 328.846C302.273 330.354 302.749 331.843 303.298 333.304C303.574 334.04 303.993 334.874 304.769 334.999C306.452 335.272 308.169 335.332 309.867 335.178ZM312.525 335.061C313.908 335.174 315.428 335.251 316.547 334.429C316.061 332.542 315.577 330.656 315.091 328.77C314.982 328.345 314.836 327.872 314.447 327.67C314.161 327.521 313.818 327.562 313.499 327.607C312.127 327.798 310.757 327.988 309.385 328.179C309.711 330.176 310.264 332.135 311.031 334.008C311.148 334.296 311.281 334.594 311.527 334.783C311.805 334.997 312.176 335.033 312.525 335.061ZM435.856 308.209C436.913 306.04 437.97 303.87 439.027 301.7C439.139 301.472 439.252 301.226 439.212 300.975C439.172 300.732 438.995 300.537 438.825 300.357C437.321 298.767 435.816 297.175 434.311 295.584C433.686 296.438 433.758 297.598 433.858 298.653C434.185 302.111 434.513 305.57 434.84 309.029C435.301 309.132 435.65 308.633 435.856 308.209ZM314.045 313.974C313.848 313.96 313.623 313.956 313.485 314.098C313.33 314.258 313.364 314.515 313.409 314.733C313.707 316.169 314.004 317.605 314.302 319.041C314.413 319.573 314.544 320.142 314.945 320.509C316.245 321.694 318.748 319.655 319.956 320.934C320.169 318.894 320.016 316.818 319.508 314.832C319.472 314.692 319.43 314.544 319.323 314.448C319.199 314.337 319.02 314.32 318.854 314.309C317.251 314.197 315.648 314.086 314.045 313.974ZM284.145 324.625C283.972 324.649 283.791 324.675 283.649 324.776C283.333 325.001 283.345 325.466 283.39 325.851C283.511 326.878 283.645 327.941 284.182 328.825C284.719 329.709 285.781 330.363 286.78 330.096C288.21 329.712 289.642 329.328 291.074 328.944C291.011 327.576 290.734 326.218 290.256 324.935C290.137 324.614 289.986 324.277 289.692 324.104C289.386 323.924 289.005 323.966 288.653 324.014C287.151 324.217 285.648 324.422 284.145 324.625ZM317.529 312.622C317.96 312.557 318.419 312.478 318.739 312.183C319.692 311.302 318.603 309.512 319.375 308.469C319.677 308.062 318.938 307.698 318.432 307.719C316.171 307.814 313.91 307.91 311.649 308.006C311.737 308.941 311.899 309.87 312.134 310.779C312.397 311.793 313.385 312.486 314.408 312.711C315.431 312.935 316.494 312.78 317.529 312.622ZM299.255 324.8C298.964 323.402 297.092 323.075 295.687 323.336C294.283 323.598 292.714 324.105 291.521 323.32C291.597 324.796 291.941 326.259 292.534 327.614C292.658 327.898 292.808 328.196 293.079 328.348C293.384 328.52 293.761 328.466 294.106 328.406C295.49 328.167 296.875 327.928 298.26 327.689C298.946 327.57 299.85 327.027 299.489 326.431C299.201 325.957 299.368 325.343 299.255 324.8ZM290.703 330.542C289.571 330.733 288.44 330.925 287.309 331.116C286.697 331.22 285.942 331.466 285.876 332.083C285.711 333.645 287.267 334.904 288.806 335.215C290.345 335.526 291.943 335.222 293.506 335.376C293.441 334.049 293.163 332.732 292.686 331.492C292.573 331.197 292.438 330.892 292.187 330.699C291.781 330.386 291.208 330.456 290.703 330.542ZM320.513 327.512C319.012 327.353 317.486 327.433 316.009 327.747C316.825 329.69 317.404 331.732 317.731 333.814C317.881 334.769 319.243 334.787 320.179 334.549C320.529 334.46 320.91 334.35 321.109 334.049C321.281 333.79 321.273 333.456 321.258 333.146C321.178 331.432 321.098 329.717 321.017 328.003C321.012 327.895 321.005 327.78 320.943 327.691C320.851 327.56 320.672 327.529 320.513 327.512ZM296.002 342.873C297.417 341.46 296.691 338.608 294.773 338.044C292.855 337.478 290.7 339.483 291.125 341.437C291.564 343.457 294.538 344.333 296.002 342.873ZM307.127 326.312C308.027 325.137 306.679 323.402 305.221 323.146C303.762 322.89 302.285 323.449 300.804 323.428C300.259 323.419 300.236 324.24 300.413 324.756C300.643 325.423 300.872 326.09 301.101 326.758C301.195 327.031 301.365 327.358 301.653 327.341C302.709 327.275 303.764 327.209 304.82 327.143C305.662 327.09 306.613 326.982 307.127 326.312ZM321.718 337.658C321.609 337.363 321.448 337.075 321.194 336.889C320.966 336.723 320.681 336.653 320.4 336.619C318.185 336.352 316.034 338.562 316.361 340.769C317.305 341.891 319.08 342.2 320.347 341.464C321.613 340.729 322.224 339.033 321.718 337.658ZM308.042 324.313C307.993 325.283 308.847 326.112 309.783 326.374C310.719 326.636 311.715 326.467 312.672 326.296C313.162 326.209 313.711 326.083 313.968 325.656C314.514 324.746 313.429 323.079 314.431 322.73C313.758 322.638 313.086 322.545 312.413 322.453C311.525 322.331 310.606 322.211 309.744 322.457C308.883 322.703 308.087 323.417 308.042 324.313ZM316.082 325.555C317.101 326.441 318.807 326.319 319.754 325.356C320.701 324.393 320.824 322.762 320.11 321.615C318.326 321.946 316.543 322.277 314.759 322.608C314.984 323.681 315.254 324.835 316.082 325.555ZM453.902 308.507C452.513 309.022 451.124 309.536 449.735 310.051C449.045 310.307 448.345 310.567 447.748 310.996C450.02 311.882 452.885 310.724 453.902 308.507ZM324.808 198.277C324.772 197.663 324.123 197.162 323.52 197.282C323.558 197.906 324.181 198.43 324.803 198.364L324.808 198.277Z" fill="#00160A"/></svg>