<svg fill="none" xmlns="http://www.w3.org/2000/svg" viewBox="0 0 560 432"><path fill-rule="evenodd" clip-rule="evenodd" d="M513.927 303.957C476.075 380.29 312.274 445.995 149.5 375.448C55.8753 334.871 20.4596 237.093 18.6052 191.866C17.1469 156.299 43.6615 118.38 59.6682 102.088C93.6924 67.4566 275.278 24.3224 316.754 26.5378C375.307 24.8951 411.835 75.7117 457.923 78.1354C490.693 79.858 588.821 152.925 513.927 303.957Z" fill="#93DEFF"/><path fill-rule="evenodd" clip-rule="evenodd" d="M285.76 186.362C285.569 189.199 285.802 192.065 286.448 194.835C286.72 196.004 288.473 196.219 289.384 195.439C290.295 194.659 290.538 193.362 290.636 192.166C290.781 190.399 290.735 188.617 290.497 186.859C290.375 185.951 290.187 185.015 289.639 184.28C289.091 183.545 288.09 183.075 287.235 183.403C286.145 183.821 285.837 185.197 285.76 186.362Z" fill="white"/><path fill-rule="evenodd" clip-rule="evenodd" d="M147.912 116.719C157.915 111.765 169.861 110.877 180.488 114.299C183.157 109.168 187.091 104.702 191.841 101.405C192.757 100.768 194.069 100.193 194.893 100.945C194.562 106.217 194.23 111.504 194.541 116.776C194.784 120.881 195.415 124.961 195.473 129.072C195.64 140.954 190.982 152.462 184.645 162.515C199.859 172.746 211.327 188.421 216.475 206.017C214.322 207.128 157.989 209.086 127.517 206.649C126.811 207.128 126.151 205.973 126.07 205.124C125.255 196.539 124.797 187.798 126.579 179.36C128.359 170.922 132.616 162.721 139.649 157.73C133.122 143.52 135.66 126.089 127.699 112.631C127.226 111.832 126.828 110.586 127.655 110.164C127.962 110.008 128.329 110.057 128.668 110.114C134.22 111.057 139.51 113.498 143.829 117.111C144.943 118.044 146.609 117.363 147.912 116.719Z" fill="white"/><path fill-rule="evenodd" clip-rule="evenodd" d="M363.782 205.147C363.744 205.147 369.566 196.418 373.137 192.357C376.397 188.648 378.307 183.779 378.44 178.843C367.167 178.398 355.951 176.535 345.139 173.314C343.484 172.82 341.778 172.261 340.523 171.075C337.594 168.304 338.319 163.473 339.83 159.735C341.663 155.198 344.327 150.998 347.649 147.406C348.785 146.178 350.018 144.991 350.762 143.493C351.506 141.995 351.663 140.067 350.658 138.728C348.966 136.473 348.61 133.51 348.434 130.697C348.258 127.883 348.178 124.957 346.9 122.445C345.621 119.932 342.719 117.978 340.023 118.802C339.37 117.804 340.661 116.652 341.798 116.29C346.093 114.925 350.904 116.12 354.669 118.597C358.434 121.073 361.29 124.705 363.744 128.485C364.702 129.962 366.322 131.695 367.884 130.884C378.549 125.346 391.565 124.539 402.832 128.717C404.398 129.297 406.806 129.546 407.125 127.907C408.715 119.742 415.529 112.846 423.673 111.159C420.473 113.454 420.279 118.124 420.92 122.011C421.56 125.897 422.689 130.038 421.091 133.638C419.801 136.544 423.05 139.275 425.681 141.061C429.654 143.758 433.207 147.071 436.172 150.848C439.106 154.584 441.552 159.387 440.211 163.945C438.457 169.911 431.436 172.273 425.393 173.746C419.495 175.184 413.596 176.622 407.699 178.06C407.59 183.814 409.644 189.584 413.364 193.974C416.349 197.496 420.686 201.126 419.737 205.644C421.724 208.795 403.072 208.63 363.782 205.147Z" fill="white"/><path fill-rule="evenodd" clip-rule="evenodd" d="M377.938 282.962C379.97 284.219 382.224 285.725 384.548 285.164C389.928 283.867 395.688 284.193 400.887 286.089C403.076 286.887 405.061 284.623 406.432 282.74C410.413 277.274 415.62 272.706 421.557 269.469C425.651 276.189 421.504 285.488 425.063 292.506C430.572 303.367 429.108 317.394 421.476 326.884C429.486 334.709 434.932 345.117 436.794 356.159C435.842 356.44 387.059 362.49 360.272 355.23C359.975 347.448 362.781 339.591 367.94 333.757C360.281 324.738 356.545 312.498 357.861 300.739C357.998 299.515 358.174 298.21 357.629 297.107C354.771 291.32 352.803 285.096 351.814 278.719C351.755 278.338 351.706 277.92 351.908 277.592C352.175 277.155 352.758 277.06 353.268 277.018C361.843 276.319 370.623 278.435 377.938 282.962Z" fill="white"/><path fill-rule="evenodd" clip-rule="evenodd" d="M145.928 357.216C146.903 351.381 147.878 345.546 148.852 339.71C149.105 338.196 149.07 336.168 147.61 335.693C143.056 334.213 139.208 330.692 137.329 326.288C136.738 324.901 134.911 324.407 133.459 324.815C132.008 325.224 130.849 326.292 129.75 327.326C130.377 324.876 132.627 322.93 135.142 322.664C135.996 321.225 134.773 319.238 133.154 318.82C131.534 318.402 129.828 319.133 128.475 320.117C128.37 318.558 130.267 317.795 131.704 317.182C133.143 316.57 134.546 314.635 133.32 313.666C132.786 313.244 132.027 313.319 131.353 313.415C129.403 313.694 127.454 313.973 125.505 314.252C125.727 312.682 127.766 312.28 129.346 312.158C130.926 312.037 132.967 311.267 132.791 309.692C132.114 303.622 133.584 297.466 136.037 291.873C138.069 287.239 132.088 282.597 132.48 277.553C132.511 277.162 132.604 276.735 132.919 276.502C133.296 276.223 133.822 276.334 134.269 276.473C137.348 277.423 140.204 279.091 142.543 281.307C143.678 282.383 145.507 281.65 146.936 281.012C152.204 278.661 158.379 278.418 163.816 280.346C168.726 282.088 173.08 273.686 177.946 275.547C176.704 279.635 175.462 283.722 174.22 287.809C173.878 288.937 173.554 290.231 174.176 291.232C176.274 294.602 177.547 298.483 177.852 302.442C178.066 305.231 178.606 308.998 181.395 309.217C180.18 309.751 178.841 310.417 178.42 311.675C178 312.933 179.437 314.594 180.525 313.834C181.465 313.179 182.982 313.726 183.288 314.829C181.679 314.672 179.934 314.847 178.676 315.863C177.418 316.879 176.924 318.933 177.99 320.149C180.33 319.185 183.092 319.311 185.334 320.485C183.998 321.467 182.163 321.176 180.508 321.078C178.853 320.979 176.837 321.361 176.251 322.912C174.297 328.09 169.493 332.084 164.046 333.062C161.364 333.544 160.933 337.173 161.154 339.89C161.618 345.59 162.082 351.289 162.546 356.989C161.591 357.897 150.495 359.154 145.928 357.216Z" fill="white"/><path fill-rule="evenodd" clip-rule="evenodd" d="M71.6791 332.738C71.489 335.575 71.7218 338.441 72.3675 341.211C72.6398 342.379 74.3927 342.595 75.3037 341.815C76.2148 341.035 76.4576 339.738 76.5557 338.542C76.7008 336.775 76.6542 334.993 76.4172 333.235C76.2946 332.327 76.1065 331.391 75.5588 330.656C75.0112 329.921 74.0101 329.451 73.1545 329.779C72.0649 330.197 71.7572 331.573 71.6791 332.738Z" fill="white"/><path fill-rule="evenodd" clip-rule="evenodd" d="M292.03 348.382C292.37 348.572 292.321 349.12 292.035 349.384C291.748 349.647 291.334 349.704 290.946 349.749C289.595 349.905 288.109 350.03 286.99 349.258C287.559 348.851 288.128 348.446 288.697 348.04C288.339 347.527 287.638 347.423 287.017 347.347C286.396 347.271 285.69 347.122 285.386 346.575C285.084 346.027 285.744 345.157 286.241 345.537C287.774 346.711 290.029 346.845 291.69 345.86C292.784 345.212 293.82 344.088 295.068 344.33C294.196 346.029 292.468 347.259 290.578 347.528C290.621 348.188 291.433 348.665 292.03 348.382Z" fill="#00160A"/><path fill-rule="evenodd" clip-rule="evenodd" d="M75.1497 347.497C73.7977 347.654 72.3101 347.779 71.1904 347.005C71.7638 346.598 72.3372 346.191 72.9105 345.784C72.5155 345.285 71.8068 345.199 71.1759 345.112C70.5449 345.025 69.8272 344.831 69.5658 344.25C69.3046 343.669 70.0861 342.857 70.5319 343.312C71.6275 344.43 73.4478 344.501 74.9282 343.993C76.4086 343.485 77.672 342.508 79.0218 341.715C79.0562 343.713 76.7174 344.765 74.7923 345.298C74.837 345.949 75.643 346.416 76.2298 346.13C76.5704 346.319 76.5238 346.867 76.2376 347.13C75.9514 347.395 75.5366 347.452 75.1497 347.497Z" fill="#00160A"/><path fill-rule="evenodd" clip-rule="evenodd" d="M72.1964 343.552C70.0815 342.764 69.6556 340.011 69.5687 337.755C69.5112 336.263 69.4537 334.772 69.3962 333.28C69.364 332.444 69.3341 331.59 69.5808 330.791C69.9924 329.459 71.2151 328.414 72.5956 328.214C73.9761 328.016 75.4443 328.673 76.2156 329.835C76.6565 330.499 76.8714 331.285 77.0399 332.064C77.3993 333.725 77.5787 335.426 77.5742 337.125C77.5699 338.772 77.3671 340.493 76.4529 341.864C75.5386 343.234 73.74 344.127 72.1964 343.552ZM74.0914 342.311C75.1859 341.966 75.5881 340.645 75.7433 339.508C76.0126 337.533 76.0353 335.526 75.8106 333.548C75.6975 332.551 75.5031 331.518 74.8902 330.723C74.2772 329.929 73.1301 329.466 72.2359 329.92C71.1269 330.483 70.9994 331.989 71.0201 333.232C71.0471 334.852 71.0742 336.473 71.1013 338.093C71.1181 339.101 71.1451 340.151 71.6121 341.045C72.079 341.939 73.1298 342.614 74.0914 342.311Z" fill="#00160A"/><path fill-rule="evenodd" clip-rule="evenodd" d="M286.903 330.119C288.407 329.159 290.536 329.848 291.669 331.227C292.801 332.605 293.14 334.466 293.244 336.248C293.305 337.28 293.3 338.315 293.231 339.346C293.132 340.795 292.886 342.287 292.083 343.496C291.281 344.705 289.799 345.562 288.381 345.251C287.163 344.984 286.242 343.923 285.801 342.756C285.36 341.588 285.318 340.314 285.28 339.067C285.244 337.88 285.209 336.692 285.173 335.505C285.113 333.528 285.236 331.184 286.903 330.119ZM288.691 343.887C289.512 344.089 290.38 343.587 290.847 342.882C291.313 342.177 291.456 341.311 291.544 340.47C291.738 338.62 291.715 336.747 291.477 334.902C291.355 333.957 291.16 332.98 290.578 332.225C289.996 331.471 288.924 331.016 288.059 331.415C287.02 331.894 286.786 333.244 286.735 334.386C286.639 336.55 286.709 338.722 286.945 340.876C287.081 342.108 287.487 343.59 288.691 343.887Z" fill="#00160A"/><path fill-rule="evenodd" clip-rule="evenodd" d="M286.719 334.231C286.529 337.068 286.762 339.934 287.408 342.704C287.68 343.873 289.433 344.088 290.343 343.308C291.254 342.528 291.498 341.231 291.596 340.035C291.74 338.268 291.694 336.486 291.458 334.728C291.335 333.82 291.146 332.884 290.599 332.149C290.052 331.414 289.05 330.944 288.195 331.272C287.105 331.69 286.798 333.066 286.719 334.231Z" fill="white"/><path fill-rule="evenodd" clip-rule="evenodd" d="M283.71 197.622C283.865 197.112 284.522 196.926 285.041 197.048C285.559 197.17 286 197.501 286.49 197.711C288.316 198.494 290.409 197.475 291.961 196.235C292.483 195.819 293.32 195.4 293.715 195.939C292.779 197.528 291.111 198.667 289.29 198.96C289.345 199.613 290.144 200.079 290.739 199.806C291.075 199.997 291.025 200.54 290.741 200.802C290.455 201.063 290.043 201.12 289.66 201.164C288.319 201.321 286.85 201.447 285.724 200.702C286.325 200.23 286.925 199.758 287.526 199.286C286.133 199.098 284.796 198.515 283.71 197.622Z" fill="#00160A"/><path fill-rule="evenodd" clip-rule="evenodd" d="M353.268 277.018C361.843 276.319 370.623 278.435 377.938 282.962C379.97 284.219 382.224 285.725 384.548 285.164C389.928 283.867 395.688 284.193 400.887 286.089C403.076 286.887 405.061 284.623 406.432 282.74C410.413 277.274 415.62 272.706 421.557 269.469C425.651 276.189 421.504 285.488 425.063 292.506C430.572 303.367 429.108 317.394 421.476 326.884C429.486 334.709 434.932 345.117 436.794 356.159C435.842 356.44 435.217 355.197 434.987 354.231C432.932 345.603 428.851 337.464 423.165 330.656C421.834 329.062 419.658 327.41 417.902 328.519C403.947 337.33 386.258 339.991 370.329 335.675C367.701 334.963 365.835 338.155 364.992 340.743C363.418 345.572 361.845 350.401 360.272 355.23C359.975 347.448 362.781 339.591 367.94 333.757C360.281 324.738 356.545 312.498 357.861 300.739C357.998 299.515 358.174 298.21 357.629 297.107C354.771 291.32 352.803 285.096 351.814 278.719C351.755 278.338 351.706 277.92 351.908 277.592C352.175 277.155 352.758 277.06 353.268 277.018ZM388.046 292.478C385.016 295.259 382.519 298.616 380.726 302.317C379.667 298.769 380.241 294.767 382.254 291.66C379.531 292.678 377.009 294.233 374.877 296.211C374.879 293.255 376.382 290.339 378.787 288.621C377.745 288.652 376.704 288.682 375.662 288.713C376.747 287.367 378.275 286.385 379.95 285.957C372.279 280.487 362.662 277.806 353.267 278.519C354.923 288.312 358.879 297.708 364.724 305.737C362.227 304.716 360.186 302.63 359.22 300.111C358.148 310.205 360.718 320.647 366.351 329.091C367.399 330.663 368.572 332.189 370.094 333.31C372.619 335.169 375.854 335.739 378.976 336.024C391.464 337.165 404.274 334.511 415.281 328.503C417.396 327.348 419.47 326.055 421.147 324.324C423.365 322.034 424.79 319.074 425.706 316.019C428.109 308.004 427.089 299.023 422.95 291.752C422.203 293.983 421.455 296.213 420.707 298.444C420.392 299.385 418.992 300.367 418.725 299.412C422.438 290.614 423.234 280.613 420.96 271.338C412.481 276.966 405.376 284.648 400.427 293.54C400.218 291.469 400.751 289.331 401.905 287.599C396.552 291.699 391.912 296.729 388.257 302.395C387.592 299.138 387.521 295.76 388.046 292.478Z" fill="#00160A"/><path fill-rule="evenodd" clip-rule="evenodd" d="M66.8289 199.29C67.5516 199.417 68.3317 199.139 68.8128 198.585C67.3526 198.326 65.9553 197.72 64.7669 196.832C65.2404 196.022 66.4531 196.509 67.3273 196.851C69.4449 197.679 72.0886 196.829 73.3255 194.92C73.6583 194.407 74.5495 194.995 74.4517 195.599C74.354 196.203 73.7587 196.576 73.2224 196.87C72.1975 197.432 71.1727 197.993 70.1479 198.555C70.9901 198.631 71.801 199.016 72.3922 199.62C71.2751 200.531 69.7016 200.548 68.2611 200.522C67.8699 200.516 67.4567 200.502 67.1257 200.294C66.7947 200.086 66.6004 199.608 66.8289 199.29Z" fill="#00160A"/><path fill-rule="evenodd" clip-rule="evenodd" d="M284.838 183.396C285.998 181.582 288.917 181.267 290.438 182.791C291.31 183.666 291.675 184.921 291.906 186.135C292.218 187.779 292.346 189.459 292.286 191.132C292.23 192.673 291.992 194.272 291.122 195.547C290.253 196.821 288.61 197.672 287.137 197.212C284.932 196.524 284.434 193.681 284.325 191.373C284.267 190.154 284.21 188.935 284.152 187.715C284.082 186.235 284.039 184.646 284.838 183.396ZM285.76 186.36C285.569 189.197 285.802 192.063 286.447 194.833C286.72 196.001 288.473 196.216 289.384 195.437C290.295 194.657 290.538 193.36 290.636 192.164C290.781 190.397 290.735 188.614 290.497 186.857C290.375 185.949 290.187 185.013 289.639 184.278C289.091 183.543 288.09 183.073 287.235 183.401C286.145 183.819 285.837 185.195 285.76 186.36Z" fill="#00160A"/><path fill-rule="evenodd" clip-rule="evenodd" d="M67.1991 184.898C67.009 187.735 67.2418 190.601 67.8875 193.371C68.1598 194.539 69.9127 194.755 70.8237 193.975C71.7348 193.195 71.9776 191.898 72.0757 190.702C72.2208 188.935 72.1742 187.153 71.9372 185.395C71.8146 184.487 71.6265 183.551 71.0788 182.816C70.5312 182.081 69.5301 181.611 68.6745 181.939C67.5848 182.357 67.2771 183.733 67.1991 184.898Z" fill="white"/><path fill-rule="evenodd" clip-rule="evenodd" d="M67.6338 196.219C66.0354 195.42 65.5975 193.375 65.4223 191.597C65.2515 189.864 65.1537 188.122 65.1292 186.38C65.1129 185.216 65.1417 184 65.6883 182.973C66.2827 181.855 67.4892 181.089 68.7534 181.026C70.0176 180.963 71.2941 181.606 71.9962 182.659C72.457 183.35 72.67 184.175 72.8318 184.989C73.1652 186.668 73.3141 188.383 73.275 190.094C73.237 191.756 72.9906 193.495 72.0083 194.836C71.0259 196.178 69.1213 196.962 67.6338 196.219ZM67.2071 193.241C67.3233 193.794 67.4842 194.372 67.8948 194.76C68.7007 195.522 70.1249 195.143 70.8057 194.267C71.4863 193.392 71.611 192.216 71.6559 191.108C71.7221 189.473 71.6705 187.833 71.5017 186.205C71.4059 185.281 71.2602 184.328 70.7531 183.551C70.246 182.772 69.2822 182.219 68.3866 182.464C66.9698 182.852 66.6965 184.712 66.7018 186.181C66.7103 188.545 66.7208 190.928 67.2071 193.241Z" fill="#00160A"/><path fill-rule="evenodd" clip-rule="evenodd" d="M363.782 205.147C364.141 199.752 369.566 196.418 373.137 192.357C376.397 188.648 378.307 183.779 378.44 178.843C367.167 178.398 355.951 176.535 345.139 173.314C343.484 172.82 341.778 172.261 340.523 171.075C337.594 168.304 338.319 163.473 339.83 159.735C341.663 155.198 344.327 150.998 347.649 147.406C348.785 146.178 350.018 144.991 350.762 143.493C351.506 141.995 351.663 140.067 350.658 138.728C348.966 136.473 348.61 133.51 348.434 130.697C348.258 127.883 348.178 124.957 346.9 122.445C345.621 119.932 342.719 117.978 340.023 118.802C339.37 117.804 340.661 116.652 341.798 116.29C346.093 114.925 350.904 116.12 354.669 118.597C358.434 121.073 361.29 124.705 363.744 128.485C364.702 129.962 366.322 131.695 367.884 130.884C378.549 125.346 391.565 124.539 402.832 128.717C404.398 129.297 406.806 129.546 407.125 127.907C408.715 119.742 415.529 112.846 423.673 111.159C420.473 113.454 420.279 118.124 420.92 122.011C421.56 125.897 422.689 130.038 421.091 133.638C419.801 136.544 423.05 139.275 425.681 141.061C429.654 143.758 433.207 147.071 436.172 150.848C439.106 154.584 441.552 159.387 440.211 163.945C438.457 169.911 431.436 172.273 425.393 173.746C419.495 175.184 413.596 176.622 407.699 178.06C407.59 183.814 409.644 189.584 413.364 193.974C416.349 197.496 420.686 201.126 419.737 205.644C417.719 200.84 413.932 197.044 410.891 192.812C407.849 188.582 405.452 183.287 406.827 178.261C404.135 177.298 401.309 179.223 399.273 181.231C397.237 183.238 395.089 185.605 392.234 185.766C387.531 186.03 384.594 180.291 379.998 179.265C379.892 182.342 379.086 185.393 377.66 188.122C376.144 191.025 373.965 193.519 371.808 195.983C369.132 199.037 366.457 202.092 363.782 205.147ZM368.164 132.155C365.304 133.546 369.734 138.98 367.174 140.867C365.858 133.724 362.126 127.048 356.731 122.186C353.228 119.027 348.579 116.54 343.944 117.417C346.654 118.482 348.303 121.298 349.013 124.122C349.722 126.945 349.697 129.9 350.191 132.77C351.061 137.82 353.587 142.572 357.288 146.117C355.602 146.095 353.969 145.059 353.231 143.543C348.041 148.209 343.872 154.002 341.095 160.403C339.999 162.928 339.144 165.94 340.5 168.336C341.644 170.357 344.011 171.296 346.22 172.012C354.169 174.585 362.437 176.171 370.774 176.719C375.755 177.046 381.134 177.129 385.116 180.14C386.563 181.234 387.751 182.673 389.328 183.57C390.904 184.467 393.13 184.65 394.357 183.315C399.15 178.102 406.437 176.082 413.401 174.8C420.364 173.518 427.635 172.66 433.706 169.017C435.984 167.649 438.145 165.756 438.881 163.202C439.883 159.731 438.013 156.108 435.9 153.177C431.639 147.267 426.094 142.287 419.762 138.682C419.486 139.778 418.808 140.768 417.886 141.423C417.589 140.182 418.131 138.916 418.566 137.716C421.251 130.298 420.027 122.107 418.771 114.318C410.53 119.074 406.248 129.77 408.931 138.898C407.36 139.19 406.617 136.988 406.77 135.397C406.922 133.806 407.05 131.728 405.575 131.11C393.716 126.139 379.727 126.531 368.164 132.155Z" fill="#00160A"/><path fill-rule="evenodd" clip-rule="evenodd" d="M149.804 301.693C150.632 303.092 150.724 304.9 150.041 306.374C149.679 307.157 148.454 307.13 147.839 306.525C147.225 305.921 147.063 305.006 146.945 304.152C146.836 303.379 146.743 302.565 147.037 301.843C147.332 301.12 148.156 300.553 148.889 300.817C149.294 300.963 149.584 301.323 149.804 301.693Z" fill="#00160A"/><path fill-rule="evenodd" clip-rule="evenodd" d="M162.546 356.989C159.924 350.334 159.048 342.998 160.031 335.912C157.56 338.619 153.001 339.081 150.038 336.924C150.747 343.895 149.294 351.07 145.928 357.216C146.903 351.381 147.878 345.546 148.852 339.71C149.105 338.196 149.07 336.168 147.61 335.693C143.056 334.213 139.208 330.692 137.329 326.288C136.738 324.901 134.911 324.407 133.459 324.815C132.008 325.224 130.849 326.292 129.75 327.326C130.377 324.876 132.627 322.93 135.142 322.664C135.996 321.225 134.773 319.238 133.154 318.82C131.534 318.402 129.828 319.133 128.475 320.117C128.37 318.558 130.267 317.795 131.704 317.182C133.143 316.57 134.546 314.635 133.32 313.666C132.786 313.244 132.027 313.319 131.353 313.415C129.403 313.694 127.454 313.973 125.505 314.252C125.727 312.682 127.766 312.28 129.346 312.158C130.926 312.037 132.967 311.267 132.791 309.692C132.114 303.622 133.584 297.466 136.037 291.873C138.069 287.239 132.088 282.597 132.48 277.553C132.511 277.162 132.604 276.735 132.919 276.502C133.296 276.223 133.822 276.334 134.269 276.473C137.348 277.423 140.204 279.091 142.543 281.307C143.678 282.383 145.507 281.65 146.936 281.012C152.204 278.661 158.379 278.418 163.816 280.346C168.726 282.088 173.08 273.686 177.946 275.547C176.704 279.635 175.462 283.722 174.22 287.809C173.878 288.937 173.554 290.231 174.176 291.232C176.274 294.602 177.547 298.483 177.852 302.442C178.066 305.231 178.606 308.998 181.395 309.217C180.18 309.751 178.841 310.417 178.42 311.675C178 312.933 179.437 314.594 180.525 313.834C181.465 313.179 182.982 313.726 183.288 314.829C181.679 314.672 179.934 314.847 178.676 315.863C177.418 316.879 176.924 318.933 177.99 320.149C180.33 319.185 183.092 319.311 185.334 320.485C183.998 321.467 182.163 321.176 180.508 321.078C178.853 320.979 176.837 321.361 176.251 322.912C174.297 328.09 169.493 332.084 164.046 333.062C161.364 333.544 160.933 337.173 161.154 339.89C161.618 345.59 162.082 351.289 162.546 356.989ZM164.712 316.023C163.853 316.807 162.371 317.625 161.735 316.651C165.411 312.707 170.452 310.058 175.786 309.269C176.874 309.108 177.115 307.655 177.038 306.557C176.654 301.158 175.105 295.844 172.526 291.085C172.139 292.085 170.915 292.673 169.893 292.348C172.942 287.767 174.948 282.495 175.717 277.046C170.836 279.069 166.499 282.389 163.272 286.573C162.823 284.967 163.541 283.107 164.953 282.221C158.514 279.859 151.115 280.253 144.964 283.287C145.124 284.285 145.284 285.283 145.444 286.281C142.427 282.627 138.495 279.733 134.108 277.94C135.534 283.265 137.613 288.415 140.284 293.238C139.124 293.489 137.864 292.484 137.851 291.298C135.428 296.57 134.096 302.341 133.963 308.142C133.925 309.81 134.596 312.066 136.255 311.894C140.785 311.425 145.486 313 148.818 316.103C145.725 315.21 142.633 314.316 139.54 313.423C138.209 313.038 136.682 312.678 135.515 313.425C134.349 314.172 134.487 316.489 135.872 316.516C139.5 315.459 143.6 316.169 146.66 318.386C143.078 317.588 139.332 317.538 135.729 318.237C134.831 320.406 137.882 322.103 140.23 322.092C142.577 322.08 145.516 321.827 146.655 323.879C143.777 323.73 140.9 323.58 138.022 323.43C138.812 328.558 143.22 332.912 148.356 333.64C149.336 333.779 149.979 334.692 150.709 335.361C153.611 338.022 159.183 336.215 159.97 332.357C166.654 332.151 173.02 327.706 175.514 321.501C172.124 321.983 168.734 322.464 165.343 322.945C166.137 321.414 168.022 320.827 169.737 320.649C171.452 320.47 173.265 320.53 174.785 319.717C176.305 318.904 177.293 316.76 176.204 315.423C171.968 316.912 167.732 318.402 163.495 319.89C164.905 317.789 167.128 316.25 169.59 315.667C171.306 315.261 173.13 315.301 174.773 314.659C176.416 314.016 177.883 312.324 177.418 310.623C172.737 310.921 168.176 312.86 164.712 316.023Z" fill="#00160A"/><path fill-rule="evenodd" clip-rule="evenodd" d="M160.467 298.463C159.898 298.433 159.21 298.323 159 297.794C160.385 296.225 163.385 296.724 164.187 298.657C162.947 298.592 161.707 298.528 160.467 298.463Z" fill="#00160A"/><path fill-rule="evenodd" clip-rule="evenodd" d="M158.34 327.869C158.785 328.405 158.692 329.246 158.275 329.802C157.857 330.358 157.19 330.672 156.518 330.856C155.542 331.125 154.386 331.12 153.643 330.433C152.567 329.437 153.085 327.412 154.408 326.78C155.73 326.149 157.405 326.741 158.34 327.869ZM154.484 328.175C154.148 328.801 154.862 329.572 155.572 329.573C156.282 329.575 156.894 329.102 157.443 328.653C156.721 327.863 155.432 327.666 154.506 328.204L154.484 328.175Z" fill="#00160A"/><path fill-rule="evenodd" clip-rule="evenodd" d="M162.056 306.436C161.183 306.877 160.079 306.17 159.749 305.25C159.419 304.329 159.64 303.311 159.895 302.366C160.04 301.828 160.234 301.239 160.718 300.964C161.369 300.595 162.239 301.017 162.618 301.663C162.996 302.309 163.014 303.096 163.023 303.844C163.033 304.819 162.927 305.997 162.056 306.436Z" fill="#00160A"/><path fill-rule="evenodd" clip-rule="evenodd" d="M146.344 327.914C148.969 328.252 151.736 326.982 153.19 324.77C154.644 322.558 154.714 319.514 153.364 317.238C152.649 316.034 151.562 314.533 152.427 313.433C152.866 312.873 153.647 312.731 154.357 312.692C155.133 312.65 155.958 312.699 156.606 313.128C157.254 313.556 157.632 314.474 157.237 315.144C155.68 317.789 155.919 321.377 157.812 323.793C159.705 326.208 163.132 327.297 166.073 326.417C166.61 326.256 167.492 326.31 167.386 326.861C167.36 326.995 167.267 327.106 167.173 327.203C165.511 328.919 162.632 328.639 160.492 327.578C158.504 326.591 156.798 325.042 155.623 323.159C154.572 324.951 153.487 326.784 151.878 328.099C150.269 329.413 147.999 330.122 146.07 329.348C145.542 329.136 144.994 328.5 145.376 328.077C145.604 327.823 146.005 327.87 146.344 327.914Z" fill="#00160A"/><path fill-rule="evenodd" clip-rule="evenodd" d="M150.995 297.819C151.127 298.233 150.55 298.484 150.118 298.531C149.299 298.619 148.481 298.708 147.661 298.796C147.03 298.864 146.122 298.678 146.191 298.047C147.316 296.861 149.302 296.613 150.683 297.487C150.815 297.57 150.948 297.671 150.995 297.819Z" fill="#00160A"/><path fill-rule="evenodd" clip-rule="evenodd" d="M371.873 343.716C371.71 342.161 371.747 340.333 372.979 339.371C374.062 338.526 375.6 338.726 376.952 338.968C379.099 339.352 381.246 339.735 383.394 340.12C385.072 340.419 386.867 340.708 388.427 340.021C389.672 339.473 391.098 340.059 392.458 340.071C393.568 340.081 394.639 339.701 395.684 339.326C398.889 338.176 402.094 337.026 405.299 335.875C405.888 335.664 406.543 335.452 407.123 335.688C408.004 336.048 408.201 337.184 408.269 338.133C408.347 339.213 408.424 340.295 408.502 341.376C408.597 342.696 408.683 344.074 408.165 345.293C407.647 346.511 406.322 347.496 405.04 347.165C401.731 346.312 398.364 345.68 394.971 345.276C394.288 345.194 393.398 345.243 393.174 345.893C392.658 347.384 390.526 347.145 388.97 346.882C385.402 346.28 381.6 347.22 378.724 349.415C377.954 350.003 377.234 350.684 376.345 351.07C375.457 351.456 374.32 351.477 373.615 350.812C373.133 350.358 372.943 349.683 372.788 349.04C372.368 347.288 372.062 345.509 371.873 343.716ZM387.972 342.474C383.642 341.652 379.29 340.942 374.923 340.344C374.234 340.25 373.592 340.819 373.365 341.476C373.138 342.134 373.226 342.853 373.326 343.542C373.545 345.052 373.812 346.557 374.123 348.051C374.221 348.519 374.334 349.008 374.652 349.366C374.97 349.723 375.56 349.884 375.932 349.582C378.299 347.659 381.102 346.275 384.067 345.565C384.96 345.351 385.886 345.19 386.675 344.722C387.463 344.253 388.097 343.383 387.972 342.474ZM400.298 339.128C397.993 339.763 395.544 340.487 393.995 342.307C393.524 342.86 393.427 344.038 394.153 344.01C397.775 343.873 401.423 344.439 404.834 345.665C405.559 345.926 406.376 345.406 406.719 344.716C407.062 344.026 407.05 343.222 407.032 342.451C406.997 341 406.962 339.549 406.926 338.097C406.92 337.865 406.888 337.586 406.679 337.483C406.539 337.415 406.373 337.454 406.223 337.496C404.248 338.04 402.273 338.584 400.298 339.128ZM389.035 344.513C389.135 344.854 389.281 345.198 389.55 345.43C390.212 345.999 391.323 345.591 391.767 344.84C392.21 344.089 392.165 343.155 392.064 342.289C391.942 341.25 390.392 340.911 389.606 341.6C388.82 342.29 388.739 343.51 389.035 344.513Z" fill="#00160A"/><path fill-rule="evenodd" clip-rule="evenodd" d="M414.837 316.662C412.92 316.427 410.939 316.728 409.177 317.52C408.722 317.724 408.279 317.052 408.477 316.595C408.674 316.136 409.189 315.918 409.659 315.752C412.379 314.795 415.835 314.322 417.776 316.456C416.945 317.024 415.836 316.784 414.837 316.662Z" fill="#00160A"/><path fill-rule="evenodd" clip-rule="evenodd" d="M393.904 326.829C393.949 328.311 392.546 329.514 391.087 329.779C389.629 330.043 388.146 329.608 386.727 329.177C385.493 328.803 385.108 327.069 385.76 325.956C386.411 324.842 387.729 324.291 389.003 324.083C390.051 323.911 391.165 323.929 392.129 324.376C393.092 324.824 393.872 325.767 393.904 326.829ZM387.066 327.185C387.135 327.628 387.655 327.822 388.091 327.928C388.939 328.136 389.812 328.345 390.675 328.217C391.538 328.089 392.398 327.54 392.623 326.697C391.341 325.372 389.052 325.19 387.577 326.296C387.29 326.512 387.011 326.829 387.066 327.185Z" fill="#00160A"/><path fill-rule="evenodd" clip-rule="evenodd" d="M371.716 319.271C369.157 319.277 366.598 319.283 364.039 319.289C363.499 319.29 362.738 319.006 362.92 318.499C365.593 317.337 368.695 317.196 371.462 318.11C371.971 318.278 372.525 318.965 372.051 319.216C371.95 319.27 371.83 319.271 371.716 319.271Z" fill="#00160A"/><path fill-rule="evenodd" clip-rule="evenodd" d="M400.031 309.533C400.177 308.619 400.428 307.56 401.274 307.184C402.089 306.822 403.078 307.338 403.547 308.097C404.016 308.855 404.094 309.783 404.162 310.672C403.007 310.777 401.853 310.883 400.699 310.989C400.081 311.045 399.933 310.146 400.031 309.533Z" fill="#00160A"/><path fill-rule="evenodd" clip-rule="evenodd" d="M410.051 320.462C409.679 320.385 409.296 320.303 408.986 320.084C408.763 319.925 408.588 319.7 408.491 319.445C411.099 318.345 414.421 319.342 415.993 321.694C414.012 321.284 412.032 320.873 410.051 320.462Z" fill="#00160A"/><path fill-rule="evenodd" clip-rule="evenodd" d="M404.684 304.565C405.347 303.505 407 304.001 408 304.753C408.987 305.493 409.868 306.371 410.614 307.353C410.581 307.93 409.685 307.799 409.199 307.485C407.694 306.512 406.19 305.539 404.684 304.565Z" fill="#00160A"/><path fill-rule="evenodd" clip-rule="evenodd" d="M368.502 322.071C369.557 321.71 370.612 321.349 371.667 320.989C372.09 320.844 372.541 320.698 372.976 320.804C373.409 320.911 373.783 321.382 373.617 321.797C371.544 322.572 369.445 323.275 367.323 323.906C366.987 323.616 367.055 323.042 367.347 322.707C367.639 322.372 368.08 322.215 368.502 322.071Z" fill="#00160A"/><path fill-rule="evenodd" clip-rule="evenodd" d="M377.255 308.767C377.658 309.04 377.865 309.514 378.052 309.963C378.302 310.559 378.555 311.203 378.42 311.835C378.286 312.468 377.576 313.013 376.995 312.729C376.336 312.408 375.621 313.586 374.972 313.246C374.665 313.085 374.606 312.678 374.584 312.333C374.523 311.402 374.474 310.415 374.915 309.593C375.357 308.772 376.483 308.245 377.255 308.767Z" fill="#00160A"/><path fill-rule="evenodd" clip-rule="evenodd" d="M369.205 308.351C370.177 305.961 372.965 304.464 375.495 304.975C375.838 305.044 376.263 305.302 376.141 305.631C376.077 305.805 375.884 305.888 375.709 305.952C373.542 306.752 371.373 307.552 369.205 308.351Z" fill="#00160A"/><path fill-rule="evenodd" clip-rule="evenodd" d="M382.119 320.433C381.574 320.502 380.881 320.45 380.675 319.94C381.041 319.649 381.479 319.339 381.935 319.445C382.39 319.551 382.555 320.346 382.098 320.442L382.119 320.433Z" fill="#00160A"/><path fill-rule="evenodd" clip-rule="evenodd" d="M393.03 319.65C393.604 319.554 393.905 318.748 393.536 318.299C393.167 317.851 392.318 317.992 392.113 318.537C391.909 319.08 392.457 319.746 393.03 319.65Z" fill="#00160A"/><path fill-rule="evenodd" clip-rule="evenodd" d="M380.292 323.538C379.489 323.421 378.456 322.899 378.703 322.125C379.588 321.615 380.686 322.052 381.697 322.198C382.708 322.345 384.072 321.791 383.905 320.783C384.074 321.208 384.243 321.633 384.412 322.057C385.441 321.783 386.401 321.255 387.185 320.535C387.627 320.127 388.023 319.427 387.63 318.971C386.719 317.917 387.708 315.941 389.098 316.038C390.488 316.135 391.194 318.228 390.145 319.147C389.873 319.385 390.147 319.822 390.429 320.048C392.395 321.626 395.136 322.188 397.565 321.508C398.65 321.205 400.038 320.758 400.728 321.65C397.264 324.152 392 323.716 388.994 320.681C387.302 323.441 383.495 324.002 380.292 323.538Z" fill="#00160A"/><path fill-rule="evenodd" clip-rule="evenodd" d="M396.615 318.791C396.949 318.941 397.001 319.482 396.702 319.693C396.403 319.905 395.91 319.675 395.88 319.311C396.006 319.04 396.298 318.855 396.597 318.858L396.615 318.791Z" fill="#00160A"/><path fill-rule="evenodd" clip-rule="evenodd" d="M384.035 319.172C384.385 319.709 385.411 319.041 385.061 318.504C384.711 317.967 383.686 318.635 384.035 319.172Z" fill="#00160A"/><path fill-rule="evenodd" clip-rule="evenodd" d="M354.92 159.379C353.574 159.53 352.123 159.857 350.932 159.214C352.342 157.889 354.445 157.632 356.376 157.726C359.651 157.888 362.88 158.883 365.678 160.591C365.091 161.672 363.468 161.141 362.354 160.616C360.052 159.532 357.448 159.099 354.92 159.379Z" fill="#00160A"/><path fill-rule="evenodd" clip-rule="evenodd" d="M402.21 148.13C401.995 147.322 401.985 146.66 402.723 146.265C403.797 145.691 407.189 145.744 407.554 146.58C407.921 147.416 406.527 151.262 404.571 151.262C403.788 151.262 402.424 148.94 402.21 148.13Z" fill="#00160A"/><path fill-rule="evenodd" clip-rule="evenodd" d="M423.727 157.658C419.517 157.92 415.348 158.84 411.418 160.373C410.879 160.583 410.05 160.665 409.927 160.1C410.614 158.947 411.991 158.43 413.279 158.053C416.162 157.211 419.13 156.659 422.123 156.408C422.556 156.372 423.018 156.348 423.396 156.561C423.775 156.774 423.998 157.317 423.727 157.658Z" fill="#00160A"/><path fill-rule="evenodd" clip-rule="evenodd" d="M424.577 162.382C421.247 162.68 417.917 162.978 414.587 163.275C413.98 163.329 413.071 162.924 413.42 162.424C416.846 161.354 420.442 160.832 424.03 160.886C424.917 160.899 425.947 161.027 426.413 161.781C425.942 162.241 425.232 162.324 424.577 162.382Z" fill="#00160A"/><path fill-rule="evenodd" clip-rule="evenodd" d="M375.612 151.541C374.906 152.371 373.475 152.133 372.719 151.349C371.963 150.564 371.705 149.439 371.478 148.374C371.359 147.818 371.255 147.187 371.586 146.725C371.933 146.24 376.764 146.206 376.994 146.621C377.223 147.037 377.081 147.387 376.994 147.71C376.835 148.296 376.123 150.94 375.612 151.541Z" fill="#00160A"/><path fill-rule="evenodd" clip-rule="evenodd" d="M350.389 164.712C354.588 162.982 359.275 162.455 363.753 163.209C364.234 163.29 364.76 163.416 365.033 163.818C365.306 164.222 365.043 164.941 364.561 164.873C359.359 164.133 353.711 164.187 349.283 167.017C348.818 166.753 348.786 166.047 349.083 165.602C349.38 165.157 349.895 164.915 350.389 164.712Z" fill="#00160A"/><path fill-rule="evenodd" clip-rule="evenodd" d="M381.22 168.849C381.004 168.227 381.468 167.465 382.12 167.372C382.38 167.541 382.551 167.841 382.565 168.151C382.361 168.631 381.827 168.947 381.309 168.896L381.22 168.849Z" fill="#00160A"/><path fill-rule="evenodd" clip-rule="evenodd" d="M374.426 141.896C375.154 141.908 376.152 142.394 375.834 143.048C372.671 143.234 369.548 144.071 366.717 145.492C366.3 145.45 366.101 144.896 366.262 144.508C366.424 144.121 366.807 143.879 367.176 143.679C369.388 142.478 371.911 141.857 374.426 141.896Z" fill="#00160A"/><path fill-rule="evenodd" clip-rule="evenodd" d="M392.075 168.317C392.536 167.821 393.464 167.903 393.831 168.472C393.472 169.158 392.266 169.09 391.986 168.368L392.075 168.317Z" fill="#00160A"/><path fill-rule="evenodd" clip-rule="evenodd" d="M395.279 167.987C395.6 167.521 396.511 167.924 396.381 168.475C396.245 168.753 395.945 168.941 395.636 168.941C395.281 168.805 395.106 168.329 395.288 167.995L395.279 167.987Z" fill="#00160A"/><path fill-rule="evenodd" clip-rule="evenodd" d="M384.4 165.452C384.08 165.919 383.169 165.515 383.3 164.965C383.434 164.687 383.736 164.499 384.044 164.499C384.4 164.635 384.574 165.111 384.392 165.445L384.4 165.452Z" fill="#00160A"/><path fill-rule="evenodd" clip-rule="evenodd" d="M379.027 166.725C378.998 167.267 379.672 167.703 380.154 167.456C380.636 167.21 380.677 166.409 380.223 166.114C379.769 165.82 379.054 166.185 379.027 166.725Z" fill="#00160A"/><path fill-rule="evenodd" clip-rule="evenodd" d="M392.741 166.389C393.202 166.733 393.984 166.399 394.052 165.828C394.12 165.257 393.439 164.747 392.911 164.974C392.383 165.2 392.281 166.045 392.741 166.389Z" fill="#00160A"/><path fill-rule="evenodd" clip-rule="evenodd" d="M401.279 143.514C403.984 141.557 407.727 142.455 410.919 143.432C411.419 143.585 412.044 144.044 411.756 144.481C411.583 144.74 411.206 144.731 410.897 144.693C407.691 144.301 404.486 143.907 401.279 143.514Z" fill="#00160A"/><path fill-rule="evenodd" clip-rule="evenodd" d="M389.185 166.391C390.158 169.415 393.655 171.376 396.743 170.629C398.102 170.3 399.652 169.562 400.766 170.406C398.813 172.041 396.065 172.676 393.592 172.065C391.12 171.454 388.984 169.61 388.018 167.254C386.103 169.922 383.067 171.759 379.814 172.214C379.328 172.283 378.776 172.302 378.409 171.977C378.041 171.652 378.138 170.877 378.628 170.843C381.313 170.656 383.917 169.477 385.829 167.582C386.867 166.554 387.721 164.901 386.89 163.699C386.117 162.578 385.495 161.354 385.047 160.068C384.88 159.592 384.751 159.02 385.057 158.619C385.284 158.321 385.678 158.22 386.041 158.136C387.147 157.883 388.29 157.629 389.403 157.84C390.516 158.05 391.6 158.856 391.765 159.978C392.113 162.346 388.451 164.111 389.185 166.391Z" fill="#00160A"/><path fill-rule="evenodd" clip-rule="evenodd" d="M168.791 158.223C169.031 157.526 170.33 157.767 170.303 158.504C170.032 159.197 168.743 158.942 168.755 158.198L168.791 158.223Z" fill="#00160A"/><path fill-rule="evenodd" clip-rule="evenodd" d="M157.063 161.432C156.915 160.688 155.494 160.971 155.642 161.715C155.79 162.459 157.211 162.176 157.063 161.432Z" fill="#00160A"/><path fill-rule="evenodd" clip-rule="evenodd" d="M159.079 162.693C159.42 162.273 160.02 162.084 160.539 162.233C160.709 162.445 160.763 162.745 160.677 163.002C160.292 163.159 159.907 163.316 159.521 163.473C159.358 163.227 159.194 162.981 159.031 162.734L159.079 162.693Z" fill="#00160A"/><path fill-rule="evenodd" clip-rule="evenodd" d="M159.251 160.927C158.992 160.747 158.819 160.45 158.788 160.137C159.069 159.553 160.064 159.546 160.353 160.126C160.087 160.508 159.693 160.8 159.25 160.943L159.251 160.927Z" fill="#00160A"/><path fill-rule="evenodd" clip-rule="evenodd" d="M150.192 162.851C149.807 163.354 148.937 162.702 149.042 162.077C149.146 161.453 149.73 161.047 150.225 160.653C151.28 159.81 152.13 158.711 153.279 158.002C154.428 157.293 156.074 157.089 157.033 158.04C154.336 158.902 151.915 160.606 150.192 162.851Z" fill="#00160A"/><path fill-rule="evenodd" clip-rule="evenodd" d="M146.896 156.026C148.459 154.564 150.402 153.511 152.481 153.001C152.925 152.892 153.41 152.812 153.825 153.002C154.24 153.193 154.503 153.764 154.225 154.127C151.579 154.596 149.09 155.907 147.206 157.821C146.863 158.17 146.214 157.75 146.196 157.261C146.179 156.773 146.539 156.36 146.896 156.026Z" fill="#00160A"/><path fill-rule="evenodd" clip-rule="evenodd" d="M166.683 158.698C166.636 158.339 167.249 158.535 167.433 158.846C167.184 159.219 166.934 159.592 166.683 159.964C166.165 159.797 166.141 158.908 166.65 158.713L166.683 158.698Z" fill="#00160A"/><path fill-rule="evenodd" clip-rule="evenodd" d="M182.14 156.749C179.879 156.052 177.618 155.356 175.357 154.66C174.827 154.497 174.249 154.295 173.98 153.811C177.102 153.105 180.534 153.94 182.982 156.003C183.085 156.09 183.191 156.188 183.224 156.317C183.344 156.78 182.597 156.889 182.14 156.749Z" fill="#00160A"/><path fill-rule="evenodd" clip-rule="evenodd" d="M167.163 160.815C167.414 160.513 167.95 160.521 168.192 160.83C168.434 161.14 168.314 161.661 167.96 161.833C167.435 161.782 166.984 161.308 166.957 160.78L167.163 160.815Z" fill="#00160A"/><path fill-rule="evenodd" clip-rule="evenodd" d="M180.544 161.651C178.199 160.827 175.853 160.004 173.507 159.181C173.315 159.114 173.112 159.038 172.99 158.876C172.72 158.522 173.032 157.969 173.458 157.836C173.884 157.703 174.341 157.852 174.761 158C176.025 158.442 177.288 158.886 178.553 159.329C179.634 159.708 180.967 160.585 180.544 161.651Z" fill="#00160A"/><path fill-rule="evenodd" clip-rule="evenodd" d="M487.708 59.8077C496.223 63.2559 502.016 71.558 504.703 80.3433C507.39 89.1293 507.417 98.4761 507.42 107.663C507.448 175.732 507.475 243.802 507.503 311.871C507.503 321.829 507.426 332.179 503.106 341.152C499.145 349.377 491.649 355.825 482.923 358.511C476.591 360.461 469.849 360.475 463.224 360.475C337.775 360.453 212.325 360.431 86.876 360.409C80.6257 360.408 73.9432 360.279 68.7984 356.73C60.5599 351.048 59.7452 339.404 59.7421 329.395C59.7175 251.622 59.6929 173.849 59.6682 96.0756C59.6682 90.2949 59.6886 84.3731 61.6861 78.9485C65.1338 69.5853 74.09 63.1132 83.6109 60.1296C93.1324 57.1459 103.293 57.1302 113.271 57.1399C135.848 57.166 158.425 57.1907 181.003 57.2153C277.379 57.3199 373.755 57.4251 470.131 57.5304C476.078 57.5371 482.196 57.5752 487.708 59.8077ZM277.821 358.841C277.767 309.351 277.714 259.861 277.661 210.372C206.479 210.401 135.297 210.43 64.1158 210.459C63.5032 210.459 62.8175 210.489 62.395 210.933C61.9984 211.35 61.9747 211.986 61.9743 212.561C61.9424 254.09 61.9105 295.618 61.8785 337.147C61.8785 339.31 61.8785 341.494 62.3351 343.608C63.8497 350.604 70.2277 355.718 77.0637 357.839C83.8998 359.961 91.2194 359.639 98.3717 359.372C126.066 358.338 153.789 358.43 181.503 358.521C213.609 358.627 245.715 358.734 277.821 358.841ZM279.649 210.589C279.691 259.947 279.732 309.306 279.774 358.665C342.166 358.607 404.558 358.548 466.95 358.49C471.642 358.486 476.384 358.475 480.947 357.384C491.684 354.816 500.564 346.016 503.726 335.438C505.593 329.19 505.594 322.558 505.579 316.036C505.498 280.8 505.419 245.564 505.338 210.328C430.108 210.415 354.879 210.502 279.649 210.589ZM279.627 59.7405C279.691 109.228 279.756 158.716 279.821 208.203C354.365 208.208 428.908 208.213 503.452 208.218C504.073 208.218 504.786 208.176 505.165 207.684C505.436 207.331 505.448 206.85 505.448 206.405C505.459 170.333 505.47 134.261 505.481 98.1894C505.481 92.8642 505.475 87.4717 504.139 82.3168C500.491 68.2309 485.994 57.8007 471.478 58.8177C460.715 59.571 449.914 59.5815 439.124 59.592C385.959 59.6412 332.792 59.6913 279.627 59.7405ZM277.817 208.012C277.758 158.531 277.699 109.049 277.64 59.5673C216.179 59.5457 154.717 59.5233 93.2563 59.5016C78.7613 59.4964 65.0875 70.9054 62.4961 85.1668C61.8204 88.8852 61.8245 92.6894 61.8296 96.4691C61.892 133.659 61.9533 170.85 62.0146 208.04C133.948 208.338 205.883 208.329 277.817 208.012Z" fill="#00160A"/><path fill-rule="evenodd" clip-rule="evenodd" d="M164.947 158.702C164.51 159.846 165.065 161.171 165.944 162.024C167.226 163.267 169.201 163.744 170.908 163.223C172.137 162.847 173.627 162.058 174.536 162.966C171.826 165.696 166.681 165.311 164.407 162.209C163.696 164.061 162.07 165.536 160.157 166.063C158.245 166.589 156.092 166.155 154.534 164.927C155.679 163.978 157.377 164.719 158.865 164.727C160.438 164.736 161.977 163.774 162.656 162.355C163.336 160.936 163.122 159.134 162.129 157.913C161.116 156.669 160.332 155.239 159.828 153.716C159.711 153.363 159.609 152.979 159.722 152.625C159.953 151.9 160.884 151.728 161.644 151.69C163.201 151.612 164.761 151.57 166.32 151.563C167.07 151.56 167.977 151.662 168.293 152.341C168.499 152.789 168.35 153.316 168.168 153.775C167.694 154.97 167.012 156.083 166.162 157.048C165.708 157.565 165.192 158.059 164.947 158.702Z" fill="#00160A"/><path fill-rule="evenodd" clip-rule="evenodd" d="M178.281 128.252C175.976 127.824 173.547 128.082 171.384 128.986C171.083 129.111 170.736 129.248 170.446 129.101C170.092 128.919 170.055 128.389 170.276 128.058C170.496 127.727 170.882 127.552 171.254 127.409C175.08 125.942 179.543 126.242 183.139 128.208C181.769 129.162 179.921 128.558 178.281 128.252Z" fill="#00160A"/><path fill-rule="evenodd" clip-rule="evenodd" d="M177.152 139.906C176.957 140.286 176.723 140.678 176.342 140.871C175.777 141.159 175.044 140.89 174.658 140.387C174.273 139.883 174.179 139.21 174.226 138.578C174.323 137.287 175.44 135.838 176.658 136.275C177.965 136.744 177.783 138.669 177.152 139.906Z" fill="#00160A"/><path fill-rule="evenodd" clip-rule="evenodd" d="M154.776 137.698C154.914 138.795 154.428 140.024 153.425 140.49C152.421 140.954 150.994 140.325 150.886 139.223C150.849 138.84 150.961 138.46 151.078 138.094C151.419 137.024 152.121 135.767 153.24 135.862C154.101 135.936 154.67 136.841 154.776 137.698Z" fill="#00160A"/><path fill-rule="evenodd" clip-rule="evenodd" d="M145.001 129.83C144.823 129.257 145.517 128.818 146.09 128.639C149.47 127.583 153.123 127.415 156.585 128.158C157.094 128.267 157.655 128.436 157.909 128.891C158.163 129.345 157.774 130.089 157.279 129.926C153.879 128.809 150.103 128.872 146.742 130.101C146.12 130.329 145.198 130.462 145.001 129.83Z" fill="#00160A"/><path fill-rule="evenodd" clip-rule="evenodd" d="M194.893 100.945C194.562 106.217 194.23 111.504 194.541 116.776C194.784 120.881 195.415 124.961 195.473 129.072C195.64 140.954 190.982 152.462 184.645 162.515C199.859 172.746 211.327 188.421 216.475 206.017C214.282 204.649 213.339 201.997 212.418 199.582C207.333 186.244 198.385 174.405 186.941 165.873C185.299 164.65 182.51 163.725 181.603 165.56C179.552 169.705 176.522 173.362 172.829 176.146C171.489 177.155 169.989 178.154 168.942 179.422C168.952 179.525 168.956 179.63 168.956 179.735C168.956 181.88 167.217 183.618 165.073 183.618C163.615 183.618 162.345 182.815 161.682 181.627C152.015 177.377 144.15 169.127 140.451 159.227C133.383 164.128 129.308 172.469 127.746 180.927C126.184 189.384 126.847 198.075 127.517 206.649C126.811 207.128 126.151 205.973 126.07 205.124C125.255 196.539 124.797 187.798 126.579 179.36C128.359 170.922 132.616 162.721 139.649 157.73C133.122 143.52 135.66 126.089 127.699 112.631C127.226 111.832 126.828 110.586 127.655 110.164C127.962 110.008 128.329 110.057 128.668 110.114C134.22 111.057 139.51 113.498 143.829 117.111C144.943 118.044 146.609 117.363 147.912 116.719C157.915 111.765 169.861 110.877 180.488 114.299C183.157 109.168 187.091 104.702 191.841 101.405C192.757 100.768 194.069 100.193 194.893 100.945ZM160.577 170.28C164.001 170.58 167.489 170.877 170.845 170.131C178.52 168.428 184.026 161.637 187.542 154.605C191.569 146.554 193.825 137.622 194.105 128.624C191.622 130.62 189.139 132.617 186.657 134.614C185.187 135.796 183.581 137.252 183.609 139.139C183.649 141.821 181.987 144.454 179.549 145.572C177.109 146.691 174.03 146.231 172.024 144.449C169.76 142.439 168.473 138.799 165.457 138.534C161.9 138.221 160.205 142.783 157.343 144.917C153.696 147.638 147.809 145.595 145.989 141.425C145.642 140.632 145.766 139.224 144.973 138.741C142.443 137.2 139.649 137.144 136.352 137.254C136.939 144.438 138.678 151.526 141.482 158.166C142.724 161.108 144.239 164.045 146.677 166.108C150.434 169.284 155.676 169.85 160.577 170.28ZM181.187 115.927C180.08 118.039 178.224 120.682 175.997 119.829C177.427 118.604 178.663 117.152 179.643 115.545C168.565 112.387 156.293 113.646 146.087 118.988C146.966 120.051 148.046 120.947 149.253 121.613C147.976 122.83 146.005 121.338 144.796 120.053C140.681 115.679 135.057 112.752 129.113 111.893C131.552 115.807 133.807 123.56 135.878 135.152C139.233 135.912 141.489 136.303 142.645 136.328C143.974 136.356 145.594 136.218 146.175 135.022C147.711 131.862 151.556 130.018 154.981 130.801C158.407 131.583 161.071 134.913 161.083 138.426C163.304 136.971 166.277 136.74 168.696 137.834C168.948 134.844 171.214 132.128 174.109 131.343C177.005 130.557 180.332 131.757 182.06 134.21C182.812 135.277 184.476 134.493 185.473 133.651C187.539 131.906 189.605 130.16 191.671 128.415C192.836 127.432 194.117 126.156 193.873 124.651C192.664 117.201 192.513 109.58 193.426 102.088C188.312 105.626 184.073 110.419 181.187 115.927ZM175.906 169.569C170.933 172.946 164.369 172.358 158.401 171.635C155.14 171.24 151.767 170.807 148.964 169.096C148.388 168.744 147.633 168.342 147.101 168.757C150.442 172.927 154.769 176.302 159.627 178.528C160.349 178.859 161.413 179.053 161.755 178.337C162.542 176.689 164.93 176.079 166.411 177.146C167.616 178.016 169.282 177.181 170.473 176.293C173.147 174.299 175.587 171.991 177.729 169.433C177.415 168.813 176.481 169.178 175.906 169.569ZM147.704 141.576C149.203 144.106 152.624 145.3 155.371 144.249C158.118 143.199 159.872 140.03 159.302 137.144C158.732 134.259 155.905 131.995 152.964 132.069C150.024 132.143 147.314 134.548 146.89 137.458C146.685 138.869 146.977 140.349 147.704 141.576ZM170.544 137.2C170.191 139.291 171.01 141.495 172.493 143.01C173.582 144.122 175.083 144.908 176.64 144.851C179.422 144.748 181.446 142.087 182.304 139.439C182.528 138.748 182.703 138.014 182.567 137.301C182.391 136.375 181.718 135.627 181.017 134.999C179.254 133.421 176.876 132.225 174.571 132.756C172.505 133.23 170.898 135.111 170.544 137.2Z" fill="#00160A"/></svg>