<svg width="200" height="201" viewBox="0 0 200 201" fill="none" xmlns="http://www.w3.org/2000/svg">
<path fill-rule="evenodd" clip-rule="evenodd" d="M37.4032 147.324C49.4752 160.464 96.1581 152.916 126.897 152.916C140.158 152.916 184.659 159.562 166.282 113.918C106.029 -35.7405 -0.847104 105.687 37.4032 147.324Z" fill="#93DEFF"/>
<path fill-rule="evenodd" clip-rule="evenodd" d="M90.8163 148.381C90.8749 148.336 90.9365 148.287 90.9621 148.218C91.044 147.995 90.7227 147.847 90.4856 147.852C90.1413 147.86 89.7002 148.092 89.8056 148.42C89.8664 148.609 90.1 148.697 90.296 148.662C90.4922 148.627 90.6584 148.502 90.8163 148.381ZM91.8395 144.479C92.0992 144.56 92.3557 144.661 92.5821 144.812C93.0069 145.097 93.296 145.539 93.5736 145.968C93.7722 146.276 93.9741 146.59 94.0733 146.943C94.1808 147.325 94.1616 147.733 94.0896 148.124C93.8653 149.34 93.1147 150.45 92.0693 151.111C91.024 151.772 89.6994 151.974 88.5045 151.655C88.2717 151.593 88.0376 151.508 87.8586 151.347C87.7082 151.212 87.6069 151.032 87.5141 150.852C87.0275 149.908 86.6992 148.86 86.7368 147.799C86.7744 146.737 87.2106 145.663 88.0368 144.996C89.0736 144.159 90.568 144.08 91.8395 144.479Z" fill="white"/>
<path fill-rule="evenodd" clip-rule="evenodd" d="M146.719 86.7483C146.149 86.7411 145.615 87.219 145.559 87.7859C145.535 88.0176 145.634 88.3056 145.865 88.3376C146.037 88.3614 146.189 88.228 146.305 88.0976C146.551 87.8222 146.762 87.516 146.932 87.1883C146.989 87.0782 147.039 86.9371 146.964 86.8384C146.91 86.7667 146.809 86.7494 146.719 86.7483ZM146.473 84.2059C147.282 84.488 148.015 84.9846 148.577 85.631C149.061 86.1864 149.429 86.9078 149.327 87.6371C149.29 87.9048 149.191 88.1603 149.079 88.4062C148.652 89.3368 147.918 90.2288 146.91 90.4091C146.381 90.5038 145.836 90.3904 145.327 90.2174C144.739 90.0174 144.179 89.7368 143.666 89.3859C143.394 89.1998 143.124 88.9787 143.005 88.6715C142.922 88.4598 142.92 88.2267 142.923 87.9995C142.931 87.4379 142.968 86.8667 143.164 86.3403C143.411 85.6742 143.896 85.1243 144.41 84.6336C144.617 84.4363 144.836 84.2419 145.102 84.136C145.536 83.963 146.031 84.0518 146.473 84.2059Z" fill="white"/>
<path fill-rule="evenodd" clip-rule="evenodd" d="M146.72 43.6838C150.068 47.1363 152.71 51.2646 154.44 55.7448C154.558 56.0526 154.674 56.3942 154.56 56.704C153.688 59.0888 152.004 61.0774 150.353 63.0107C149.297 64.2459 148.242 65.4814 147.187 66.7166C146.18 67.896 145.173 69.0755 144.131 70.2254C138.83 76.079 132.565 81.1976 125.31 84.347C125.036 84.4659 124.742 84.5843 124.447 84.5368C124.152 84.4894 123.876 84.2043 123.953 83.9168C124.85 80.5763 125.753 77.0838 125.033 73.7011C124.859 72.8851 124.666 71.8579 125.343 71.367C130.822 67.3918 134.768 61.7099 138.549 56.1051C139.499 54.6958 140.447 53.2824 141.289 51.8059C142.782 49.184 143.933 46.3683 144.702 43.4523C144.807 43.0523 145.314 42.872 145.716 42.9768C146.118 43.0819 146.431 43.3862 146.72 43.6838Z" fill="white"/>
<path fill-rule="evenodd" clip-rule="evenodd" d="M42.3184 57.0955C42.8627 62.0157 44.3776 66.8269 46.7504 71.1717C48.2197 73.8616 50.0067 76.3629 51.7891 78.8565C53.0293 80.5917 54.3555 82.4 56.2907 83.2968C56.8053 83.5355 56.7333 84.2771 56.5955 84.8272C55.9984 87.2048 55.72 89.6619 55.7696 92.1128C55.7744 92.3443 55.7803 92.5843 55.6893 92.7973C55.3805 93.5203 54.3224 93.3997 53.5941 93.104C49.0869 91.2744 45.6267 87.5952 42.3944 83.9603C38.1976 79.2408 34.0632 74.3144 31.584 68.5059C31.4155 68.1109 31.2517 67.6955 31.28 67.2669C31.3088 66.8304 31.5331 66.4336 31.7605 66.06C34.008 62.3685 37.1347 59.2163 40.8077 56.9389C41.0667 56.7787 41.3427 56.6179 41.6469 56.6075C41.9512 56.5968 42.2848 56.7928 42.3184 57.0955Z" fill="white"/>
<path fill-rule="evenodd" clip-rule="evenodd" d="M146.063 143.414C146.451 142.756 146.933 142.031 147.687 141.906C147.984 141.857 148.141 141.534 148.242 141.25C149.488 137.754 149.608 133.867 148.58 130.301C148.287 129.283 148.648 128.204 149.006 127.206C149.928 124.633 150.851 122.059 151.773 119.486C151.245 118.572 149.851 118.599 149.137 117.821C148.218 116.819 148.911 115.227 149.631 114.075C153.836 107.341 158.041 100.607 162.246 93.8725C162.761 93.0474 163.891 92.7888 164.839 93.0088C165.786 93.2285 166.595 93.8248 167.375 94.4069C170.442 96.6976 173.508 98.9882 176.575 101.279C178.221 102.508 180.038 104.078 179.943 106.131C179.891 107.266 179.241 108.276 178.613 109.223C176.182 112.885 173.751 116.548 171.321 120.21C169.952 122.273 170.33 124.983 169.916 127.425C169.262 131.282 166.617 134.45 164.167 137.501C161.718 140.552 159.267 143.959 159.129 147.869C158.965 152.53 156.751 157.082 153.186 160.088C154.22 157.579 147.687 158.58 140.214 155.606C141.443 151.256 143.765 147.307 146.063 143.414Z" fill="white"/>
<path fill-rule="evenodd" clip-rule="evenodd" d="M64.0027 154.324C63.5368 153.943 63.3883 153.3 63.3059 152.701C62.3541 145.782 66.4416 138.952 65.7133 132.004C65.3381 128.424 63.6933 125.084 61.6232 122.145C60.1936 120.117 60.1136 117.398 60.6469 114.971C61.1803 112.544 62.256 110.274 62.9816 107.897C66.2085 97.3278 62.2821 86.0371 58.4 75.6928C66.1355 71.9523 75.1624 72.6768 83.732 73.1835C92.3016 73.6904 101.518 73.7262 108.661 68.9403C109.64 79.2936 107.481 89.6584 105.335 99.8323C116.226 98.7712 127.117 97.7102 138.008 96.6491C138.32 96.6187 138.662 96.5952 138.921 96.7726C139.267 97.0091 139.321 97.4915 139.34 97.9118C139.849 108.679 140.158 119.456 140.266 130.234C140.269 130.505 140.259 130.806 140.07 130.998C139.907 131.162 139.66 131.196 139.431 131.222C124.172 132.922 108.913 134.623 93.6547 136.323C92.3352 136.47 90.4557 136.126 90.5328 134.794C90.8773 128.856 90.6763 122.885 89.9328 116.982C85.8779 116.829 81.7952 117.448 77.9651 118.795C77.0963 119.101 76.0515 119.923 76.52 120.719C79.6205 125.988 75.7723 133.907 79.9832 138.33C81.4309 139.851 81.3309 142.243 81.044 144.328C80.4291 148.797 79.384 153.206 77.9285 157.474C78.6323 152.561 64.4328 156.958 64.0027 154.324Z" fill="white"/>
<path fill-rule="evenodd" clip-rule="evenodd" d="M20.3588 42.8141C20.3719 42.9189 20.3151 43.0291 20.2221 43.0795C20.1481 43.0053 20.074 42.9312 20 42.8571C20.111 42.8085 20.2369 42.7946 20.3558 42.8178L20.3588 42.8141Z" fill="#1A1A1A"/>
<path fill-rule="evenodd" clip-rule="evenodd" d="M91.5728 144.479C91.8325 144.56 92.089 144.661 92.3154 144.812C92.7402 145.097 93.0293 145.539 93.3069 145.968C93.5056 146.276 93.7074 146.59 93.8066 146.943C93.9141 147.325 93.8949 147.733 93.8229 148.124C93.5986 149.34 92.848 150.45 91.8026 151.111C90.7573 151.772 89.4328 151.974 88.2378 151.655C88.005 151.593 87.7709 151.508 87.592 151.347C87.4416 151.212 87.3402 151.032 87.2474 150.852C86.7608 149.908 86.4325 148.86 86.4701 147.799C86.5077 146.737 86.944 145.663 87.7701 144.996C88.8069 144.159 90.3013 144.08 91.5728 144.479ZM90.1154 150.797C90.7656 150.698 91.3376 150.274 91.7112 149.733C92.0848 149.192 92.2762 148.543 92.3685 147.892C92.421 147.52 92.4258 147.094 92.1634 146.826C92.0061 146.665 91.7818 146.593 91.5666 146.529C90.7584 146.287 89.836 146.081 89.112 146.515C88.585 146.83 88.2912 147.414 88.0248 147.968C87.7128 148.616 87.7898 149.434 88.2173 150.012C88.6448 150.591 89.4042 150.905 90.1154 150.797Z" fill="#1A1A1A"/>
<path fill-rule="evenodd" clip-rule="evenodd" d="M121.264 115.284C121.275 115.146 121.292 114.998 121.383 114.894C121.472 114.793 121.613 114.756 121.744 114.725C125.14 113.935 128.647 113.625 132.129 113.81C132.573 113.833 133.143 113.983 133.172 114.426C133.34 116.966 133.509 119.507 133.677 122.047C133.685 122.175 133.69 122.318 133.607 122.417C133.54 122.498 133.432 122.529 133.33 122.555C129.709 123.5 125.892 123.686 122.196 123.098C122.101 123.083 122.001 123.066 121.927 123.004C121.838 122.929 121.806 122.807 121.781 122.693C121.236 120.269 121.061 117.761 121.264 115.284ZM122.065 119.498C122.131 120.457 122.332 121.407 122.66 122.311C122.987 122.358 123.311 122.426 123.637 122.481C126.446 122.957 129.318 122.478 132.127 122.001C132.326 121.967 132.545 121.922 132.667 121.761C132.793 121.597 132.777 121.369 132.754 121.164C132.657 120.289 132.56 119.413 132.463 118.538C132.456 118.467 132.446 118.392 132.398 118.339C132.34 118.275 132.245 118.265 132.159 118.259C130.163 118.128 128.161 118.277 126.167 118.426C125.065 118.508 123.962 118.59 122.86 118.673C122.601 118.692 122.306 118.73 122.157 118.943C122.047 119.1 122.051 119.307 122.065 119.498ZM122.095 115.837C121.921 116.397 121.89 117 122.005 117.574C122.026 117.678 122.055 117.786 122.134 117.857C122.25 117.961 122.427 117.944 122.581 117.921C124.459 117.646 126.358 117.509 128.256 117.513C128.524 117.513 128.606 117.153 128.603 116.885C128.599 116.493 128.595 116.1 128.59 115.708C128.588 115.481 128.577 115.231 128.421 115.065C128.234 114.866 127.922 114.873 127.65 114.893C127.021 114.941 126.393 114.989 125.764 115.037C125.463 115.061 124.665 115.265 124.298 115.289C123.66 115.391 123.021 115.493 122.383 115.594C122.315 115.605 122.243 115.618 122.19 115.663C122.139 115.706 122.115 115.773 122.095 115.837ZM130.516 117.544C131.015 117.55 131.515 117.5 132.003 117.395C132.119 117.37 132.241 117.338 132.324 117.253C132.445 117.128 132.444 116.932 132.435 116.758C132.41 116.252 132.384 115.746 132.358 115.24C132.349 115.06 132.329 114.857 132.187 114.744C132.063 114.645 131.888 114.65 131.73 114.661C131.175 114.699 130.62 114.737 130.065 114.774C129.977 114.781 129.885 114.788 129.811 114.837C129.677 114.925 129.657 115.111 129.653 115.272C129.641 115.809 129.662 116.346 129.718 116.879C129.735 117.033 129.757 117.196 129.853 117.318C130.001 117.509 130.274 117.541 130.516 117.544Z" fill="#FFB61D"/>
<path fill-rule="evenodd" clip-rule="evenodd" d="M129.954 104.183C130.696 103.862 131.606 103.969 132.253 104.454C132.899 104.939 133.257 105.783 133.157 106.585C133.611 106.339 134.188 106.098 134.612 106.392C135.091 106.726 134.982 107.443 134.91 108.022C134.784 109.034 134.947 110.08 135.374 111.005C135.551 111.387 135.703 111.967 135.311 112.122C135.245 112.148 135.173 112.154 135.102 112.159C130.507 112.53 125.913 112.9 121.318 113.27C121.192 113.28 121.051 113.286 120.956 113.203C120.858 113.118 120.846 112.974 120.841 112.845C120.797 111.764 120.753 110.684 120.709 109.603C120.697 109.313 120.691 109 120.855 108.761C121.126 108.364 121.694 108.366 122.168 108.29C122.642 108.214 123.194 107.814 123.011 107.37C122.807 106.875 123.501 106.513 124.03 106.432C124.559 106.352 125.261 106.036 125.101 105.526C124.926 104.968 125.694 104.621 126.273 104.544C126.682 104.49 127.11 104.438 127.498 104.578C127.886 104.718 128.214 105.118 128.127 105.521C128.026 105.983 128.589 106.413 129.032 106.25C129.475 106.087 129.655 105.48 129.431 105.065C129.247 104.726 129.6 104.336 129.954 104.183ZM132.327 111.304C132.155 110.986 132.154 110.607 132.152 110.244C132.145 108.545 132.041 106.845 131.84 105.158C131.83 105.072 131.814 104.977 131.744 104.927C131.684 104.884 131.603 104.889 131.529 104.896C131.17 104.93 130.745 105.009 130.603 105.34C130.542 105.482 130.55 105.642 130.558 105.795C130.649 107.499 130.74 109.202 130.831 110.906C130.839 111.065 130.861 111.247 130.992 111.336C131.064 111.384 131.155 111.393 131.241 111.398C131.605 111.418 131.972 111.386 132.327 111.304ZM126.147 108.685C126.103 108.969 126.04 109.251 126.023 109.538C125.995 110.017 126.097 110.493 126.197 110.963C126.261 111.264 126.65 111.412 126.935 111.296C127.221 111.18 127.393 110.876 127.44 110.571C127.488 110.267 127.432 109.958 127.384 109.654C127.193 108.459 127.111 107.248 127.138 106.039C127.145 105.733 126.846 105.456 126.542 105.487C126.237 105.517 125.999 105.846 126.066 106.145C126.251 106.977 126.279 107.843 126.147 108.685ZM129.169 107.054C128.99 106.819 128.579 106.944 128.439 107.204C128.3 107.464 128.342 107.779 128.377 108.072C128.468 108.838 128.476 109.613 128.403 110.38C128.381 110.607 128.357 110.854 128.482 111.044C128.674 111.336 129.096 111.333 129.443 111.298C129.553 111.287 129.678 111.266 129.733 111.171C129.771 111.104 129.762 111.023 129.752 110.947C129.591 109.756 129.431 108.566 129.271 107.375C129.255 107.262 129.238 107.144 129.169 107.054ZM133.149 107.565C133.014 107.749 132.985 107.989 132.974 108.217C132.934 108.998 133.037 109.779 133.14 110.555C133.181 110.86 133.321 111.253 133.629 111.232C133.94 111.211 134.022 110.794 134.014 110.482C133.995 109.655 133.976 108.827 133.957 108C133.952 107.782 133.929 107.53 133.748 107.409C133.559 107.282 133.284 107.381 133.149 107.565ZM123.731 107.37C123.731 107.37 123.868 108.45 123.916 109C123.976 109.69 124.052 110.38 124.145 111.067C124.158 111.167 124.176 111.275 124.25 111.343C124.378 111.462 124.87 111.383 124.961 111.234C125.051 111.085 125.046 110.899 125.038 110.724C125.013 110.173 124.988 109.621 124.963 109.07C124.937 108.479 124.796 107.204 124.796 107.204M121.945 111.28C121.985 111.403 122.031 111.533 122.131 111.615C122.326 111.777 122.643 111.677 122.797 111.476C122.951 111.275 122.985 111.01 123.015 110.758C123.051 110.449 123.086 110.128 122.986 109.834C122.886 109.54 122.609 109.28 122.299 109.308C122.015 109.333 121.794 109.593 121.727 109.871C121.661 110.15 121.717 110.441 121.786 110.718C121.833 110.907 121.886 111.094 121.945 111.28Z" fill="white"/>
<path fill-rule="evenodd" clip-rule="evenodd" d="M140.571 67.0629C140.2 67.6197 139.798 68.1837 139.224 68.5277C138.65 68.8715 137.857 68.9384 137.341 68.5123C136.773 68.0419 136.737 67.1941 136.782 66.4573C136.8 66.1739 136.822 65.8877 136.904 65.6155C137.045 65.1432 137.353 64.74 137.674 64.3664C138.064 63.9128 138.495 63.4755 139.036 63.2203C139.577 62.9651 140.249 62.9203 140.756 63.2379C141.362 63.6179 141.587 64.4261 141.472 65.1328C141.357 65.8392 140.968 66.4672 140.571 67.0629ZM139.393 67.652C139.861 67.1539 140.262 66.5931 140.582 65.9896C140.793 65.5925 140.973 65.1608 140.964 64.7112C140.956 64.2616 140.719 63.7915 140.301 63.6248C139.757 63.4075 139.16 63.7549 138.706 64.1243C138.382 64.3875 138.069 64.6757 137.861 65.0376C137.73 65.2661 137.644 65.5179 137.56 65.7675C137.4 66.24 137.238 66.7325 137.299 67.2275C137.36 67.7227 137.714 68.2197 138.21 68.2709C138.669 68.3184 139.077 67.9885 139.393 67.652Z" fill="#FFB61D"/>
<path fill-rule="evenodd" clip-rule="evenodd" d="M45.0131 73.357C45.5941 73.9455 46.0739 74.6341 46.4248 75.3831C46.7776 76.1359 46.4219 77.1034 45.7299 77.5639C45.0379 78.0245 44.1021 78.0183 43.3432 77.6791C42.5843 77.3397 41.988 76.7063 41.5488 76.0005C41.2176 75.4682 40.9608 74.8719 40.9333 74.2458C40.9056 73.6197 41.1363 72.9607 41.6315 72.5767C42.1325 72.1885 42.8371 72.133 43.4429 72.3191C44.0488 72.5055 44.5677 72.9058 45.0131 73.357ZM42.7456 72.9989C42.2429 72.9471 41.7963 73.4087 41.7099 73.9069C41.6237 74.4047 41.8136 74.9103 42.0592 75.3519C42.592 76.3098 43.5427 77.1607 44.6373 77.1079C45.2003 77.0805 45.817 76.6906 45.8072 76.1274C45.8029 75.8837 45.6827 75.6589 45.5627 75.4469C45.2437 74.8837 44.8992 74.3261 44.4392 73.8706C43.9792 73.4151 43.3896 73.0653 42.7456 72.9989Z" fill="#FFB61D"/>
<path fill-rule="evenodd" clip-rule="evenodd" d="M88.9528 147.461C89.3565 147.154 89.8584 146.956 90.3645 146.988C90.8704 147.021 91.3709 147.311 91.5826 147.772C91.8098 148.266 91.6682 148.881 91.3138 149.294C90.9594 149.706 90.4256 149.934 89.8866 150.01C89.5189 150.061 89.0805 150.015 88.8792 149.703C88.7821 149.552 88.76 149.367 88.7405 149.189C88.7056 148.869 88.6704 148.55 88.6354 148.23C88.6205 148.094 88.6061 147.954 88.6496 147.825C88.701 147.673 88.8253 147.558 88.9528 147.461ZM90.5496 148.381C90.6082 148.336 90.6698 148.287 90.6954 148.217C90.7773 147.995 90.456 147.847 90.2189 147.852C89.8747 147.86 89.4336 148.092 89.5389 148.419C89.5997 148.609 89.8333 148.697 90.0293 148.662C90.2256 148.627 90.3917 148.502 90.5496 148.381Z" fill="#1A1A1A"/>
<path fill-rule="evenodd" clip-rule="evenodd" d="M146.131 45.2419C149.276 48.4976 151.758 52.3909 153.383 56.616C153.495 56.9061 153.603 57.2285 153.497 57.5205C152.677 59.7699 151.095 61.6448 149.543 63.468L146.57 66.9632C145.623 68.0755 144.677 69.1877 143.698 70.272C138.718 75.7922 132.832 80.6195 126.016 83.5893C125.759 83.7016 125.483 83.8133 125.206 83.7685C124.929 83.7237 124.669 83.4549 124.742 83.1837C125.584 80.0336 126.432 76.74 125.756 73.5499C125.593 72.7803 125.411 71.8115 126.047 71.3485C131.195 67.5997 134.902 62.2413 138.454 56.9557C139.347 55.6267 140.238 54.2939 141.028 52.9013C142.431 50.4288 143.512 47.7733 144.234 45.0237C144.334 44.6461 144.81 44.4763 145.187 44.5752C145.565 44.6741 145.859 44.9613 146.131 45.2419ZM143.93 49.2851C143.61 49.1528 143.315 49.5104 143.152 49.8155C142.976 50.1459 142.8 50.4768 142.624 50.8077C139.365 56.9285 136.057 63.1435 131.091 67.9645C130.621 68.42 130.097 68.9701 130.183 69.6184C130.461 71.6963 129.351 73.8904 127.514 74.8989C126.68 75.3571 126.69 76.5387 126.812 77.4824C126.861 77.8602 127.003 78.3339 127.383 78.3659C128.497 78.4597 129.565 79.008 130.291 79.8576C130.52 80.1256 130.954 79.9581 131.253 79.7704C138.765 75.0477 144.537 68.0717 150.173 61.2179C150.367 60.9813 150.574 60.6835 150.473 60.3947C149.62 57.9653 149.757 55.2043 150.846 52.8709C150.203 51.5928 149.438 50.3768 148.563 49.2448C147.107 49.8765 145.396 49.8915 143.93 49.2851ZM126.111 82.3419C126.407 82.4971 126.766 82.3496 127.062 82.1947C127.842 81.788 128.592 81.3264 129.306 80.8144C129.495 80.6789 129.551 80.4088 129.485 80.1864C129.418 79.964 129.251 79.7845 129.066 79.644C128.488 79.2056 127.681 79.0904 127.003 79.3496C126.878 79.3976 126.754 79.46 126.668 79.5624C126.567 79.6827 126.53 79.8424 126.498 79.996C126.334 80.7717 126.205 81.5547 126.111 82.3419ZM147.207 47.6675C146.697 46.6693 145.91 45.8147 144.957 45.224C144.626 45.516 144.561 45.96 144.495 46.4125V46.4128C144.45 46.7232 144.405 47.0379 144.272 47.3104C144.229 47.3992 144.175 47.484 144.123 47.5688C144.022 47.7299 143.922 47.8904 143.89 48.0757C143.841 48.3581 144.079 48.7123 144.351 48.6189C144.571 48.5429 144.802 48.5917 145.035 48.6411C145.158 48.6669 145.281 48.6931 145.404 48.7011C146.119 48.7472 146.713 48.1867 147.207 47.6675ZM151.253 53.6493C150.706 54.7371 150.793 56.0216 150.892 57.2349L151.035 58.9752C151.051 59.1664 151.155 59.4248 151.339 59.3717C151.454 59.0512 151.672 58.7867 151.89 58.5216C152.082 58.2899 152.274 58.0573 152.397 57.7864C152.814 56.8685 152.351 55.8109 151.894 54.912L151.253 53.6493ZM126.775 72.9621C126.798 73.3027 127.152 73.5573 127.493 73.5477C127.834 73.5381 128.141 73.3176 128.34 73.0408C128.539 72.7637 128.649 72.4341 128.755 72.1098L129.107 71.0397C129.205 70.7413 129.211 70.285 128.899 70.2501C128.786 70.2373 128.678 70.2971 128.586 70.3627C128.236 70.6115 127.982 70.9685 127.734 71.3189L127.058 72.273C126.912 72.48 126.758 72.7093 126.775 72.9621ZM46.2171 70.1056C43.8443 65.7611 42.3293 60.9499 41.7851 56.0293C41.7515 55.7267 41.4179 55.5307 41.1136 55.5413C40.8093 55.5517 40.5333 55.7125 40.2744 55.8731C36.6013 58.1504 33.4747 61.3024 31.2272 64.9941C30.9997 65.3677 30.7755 65.7645 30.7467 66.2011C30.7184 66.6293 30.8821 67.0451 31.0507 67.4397C33.5299 73.2483 37.6643 78.1749 41.8611 82.8941C45.0933 86.5291 48.5536 90.2085 53.0608 92.0381C53.7891 92.3339 54.8472 92.4541 55.156 91.7312C55.2459 91.5208 55.2411 91.2843 55.2365 91.0555L55.2363 91.0466C55.1867 88.596 55.4651 86.1387 56.0621 83.7613C56.2 83.2112 56.272 82.4693 55.7573 82.2309C53.8221 81.3341 52.496 79.5258 51.2557 77.7904C49.4733 75.2968 47.6864 72.7957 46.2171 70.1056ZM50.4061 89.0971C50.1395 89.168 49.8733 89 49.6507 88.8368C45.5488 85.8315 42.3699 81.7637 39.2467 77.7507L33.7349 70.6688C34.6651 70.0763 34.7832 68.7888 34.8035 67.6859C34.8299 66.2523 34.8491 64.7765 34.3312 63.4395C34.2163 63.1424 34.3661 62.8131 34.5267 62.5376C35.2147 61.3568 36.1691 60.332 37.2981 59.5619C37.4075 59.4872 37.5232 59.4133 37.6541 59.3947C38 59.3459 38.2653 59.6821 38.4501 59.9784C39.1797 61.1485 40.1827 62.472 41.5584 62.3757C42.0821 62.3389 42.3728 62.956 42.5256 63.4584C44.4259 69.7059 47.9939 75.3408 52.1781 80.3541C52.7219 81.0056 52.8581 81.8851 52.9933 82.7563C53.144 83.728 53.2933 84.6896 54.004 85.3141C54.6109 85.8477 54.4984 86.8056 54.3344 87.5968C54.3011 87.7587 54.2611 87.932 54.1381 88.0424C54.0469 88.1245 53.9235 88.1586 53.8048 88.1904L50.4061 89.0971ZM40.6816 60.9285C39.9291 60.4027 39.2789 59.7309 38.7784 58.9613C38.6701 58.7949 38.5651 58.6083 38.584 58.4107C38.6045 58.1957 38.7664 58.0237 38.9272 57.8797C39.3245 57.5243 39.7736 57.2267 40.2557 56.9992C40.4323 56.9157 40.6603 56.8483 40.8069 56.9771C40.8933 57.0528 40.9208 57.1741 40.9432 57.2869L41.6381 60.7629C41.6792 60.9683 41.4637 61.1533 41.2544 61.1595C41.0448 61.1653 40.8533 61.0485 40.6816 60.9285ZM33.8035 67.6517C33.7888 68.3056 33.7389 69.0395 33.2488 69.4725C33.1464 69.4845 33.0781 69.372 33.0381 69.2771C32.6851 68.4413 32.3272 67.5853 32.2715 66.68C32.216 65.7744 32.5195 64.7939 33.2595 64.2691C33.3595 64.1979 33.5064 64.1392 33.5947 64.2245C33.6301 64.2587 33.6453 64.3083 33.6584 64.356C33.8595 65.0952 33.8437 65.8736 33.8264 66.6392L33.8035 67.6517ZM53.7717 89.3997C53.8904 89.497 53.9032 89.6709 53.9064 89.8245L53.9416 91.5051C53.2523 91.1229 52.5917 90.6885 51.9677 90.2069C51.8496 90.1157 51.7195 89.9677 51.792 89.8371C51.828 89.7723 51.9027 89.7411 51.972 89.7155C52.4181 89.5509 52.8795 89.4275 53.348 89.3472C53.4928 89.3224 53.6579 89.3066 53.7717 89.3997ZM53.8115 82.78C53.8051 82.704 53.8051 82.6213 53.8501 82.56C53.9693 82.3981 54.2275 82.5448 54.3368 82.7133C54.5997 83.1194 54.6579 83.6515 54.4888 84.1048C54.1024 83.7736 53.8536 83.2869 53.8115 82.78ZM156.499 70.0192C157.186 69.1539 158.438 69.0293 159.543 69.0563C159.801 69.0624 160.067 69.0749 160.302 69.1821C160.955 69.48 161.094 70.3339 161.116 71.0517C161.136 71.7048 161.132 72.3667 160.974 73.0005C160.815 73.6344 160.486 74.2451 159.961 74.6341C159.725 74.8091 159.452 74.9365 159.162 74.9851C158.714 75.06 158.256 74.9451 157.831 74.7867C157.264 74.5757 156.726 74.2858 156.238 73.9282C156 73.7536 155.754 73.5251 155.746 73.2296C155.728 72.5483 155.805 71.8648 155.972 71.204C156.079 70.7819 156.228 70.3603 156.499 70.0192ZM158.281 74.3288C159.163 74.5821 160.101 73.8997 160.435 73.0448C160.77 72.1901 160.646 71.2299 160.462 70.3307C160.392 69.9853 160.023 69.7925 159.683 69.7003C159.156 69.5573 158.596 69.5384 158.061 69.6453C157.796 69.6984 157.524 69.7896 157.338 69.9861C157.236 70.0933 157.166 70.2259 157.097 70.3563L156.58 71.3331C156.489 71.5051 156.397 71.6784 156.344 71.865C156.184 72.424 156.395 73.0448 156.785 73.4754C157.176 73.9064 157.722 74.1685 158.281 74.3288ZM146.473 84.2059C147.282 84.488 148.015 84.9845 148.577 85.6309C149.061 86.1867 149.429 86.9077 149.327 87.6371C149.29 87.9051 149.191 88.1603 149.079 88.4061C148.652 89.3368 147.918 90.2291 146.91 90.4093C146.381 90.5037 145.836 90.3904 145.327 90.2173C144.739 90.0173 144.179 89.7368 143.666 89.3858C143.394 89.1997 143.124 88.9787 143.005 88.6715C142.923 88.4597 142.92 88.2266 142.923 87.9994C142.931 87.4378 142.968 86.8667 143.164 86.3403C143.411 85.6741 143.896 85.1243 144.41 84.6336C144.617 84.4363 144.836 84.2419 145.102 84.136C145.536 83.9629 146.031 84.0517 146.473 84.2059ZM147.3 89.1013C147.884 88.5229 148.225 87.6843 148.132 86.8669C148.039 86.0496 147.486 85.2827 146.713 85.0037C146.391 84.8877 146.034 84.8552 145.705 84.9464C145.527 84.9957 145.361 85.0795 145.205 85.1784C144.539 85.6019 144.071 86.3242 143.958 87.1053C143.845 87.8864 144.087 88.7122 144.605 89.3077C144.936 89.6893 145.478 89.8528 145.979 89.7893C146.48 89.7261 146.94 89.4568 147.3 89.1013ZM73.4626 79.3877C73.4354 79.0024 72.9202 78.9016 72.5341 78.9128C70.5069 78.9725 68.4821 79.1243 66.4688 79.368C66.1378 79.408 66.1112 79.9411 66.3765 80.1427C66.6421 80.344 67.0117 80.3067 67.3416 80.2595L73.4626 79.3877ZM66.9819 81.9936C66.9995 81.7952 67.2488 81.7235 67.4467 81.7011L79.3874 80.3488C79.6034 80.3243 79.8336 80.3021 80.028 80.3994C80.2221 80.4965 80.3474 80.7627 80.2205 80.9392C80.1269 81.0691 79.9477 81.0955 79.7882 81.1109L67.5749 82.2963C67.3211 82.3208 66.9595 82.2477 66.9819 81.9936ZM93.7514 84.0051C93.0832 84.1517 92.3976 83.9107 91.757 83.6712C89.6853 82.8971 87.6216 82.1013 85.5664 81.2845C84.7368 80.9546 83.8264 81.4485 83.0802 81.9386C80.9208 83.3573 78.8416 84.8981 76.8562 86.5515C76.3464 86.976 75.5616 86.6781 75.0472 86.2587C74.9384 86.1701 74.8314 86.0755 74.724 85.9805C74.3234 85.6264 73.9176 85.268 73.3994 85.1944C72.6029 85.0813 71.9024 85.685 71.325 86.2456L67.6032 89.8603C67.1026 90.3464 66.5757 91.1248 67.0213 91.6619C67.3152 92.0163 67.8549 91.9981 68.3122 91.9453C70.7 91.6685 73.0757 91.2803 75.4509 90.8923C79.3765 90.2512 83.3 89.6104 87.2704 89.4728C88.1501 89.4424 89.0304 89.4368 89.9109 89.4312C90.4621 89.4277 91.0136 89.4242 91.5648 89.4146C94.0509 89.3712 96.5346 89.2037 99.0042 88.9131C99.1237 88.8989 99.2597 88.8744 99.3216 88.7712C99.3682 88.6933 99.3568 88.5952 99.3434 88.5053L98.2973 81.3883C98.2442 81.0267 98.1515 80.6088 97.8211 80.4525C97.4872 80.2946 97.0938 80.4981 96.8197 80.7459C96.3909 81.1331 96.0605 81.6477 95.7346 82.1552C95.2 82.9877 94.6773 83.8013 93.7514 84.0051ZM76.765 87.8992C78.9989 86.0624 81.3283 84.3416 83.7405 82.7461C84.236 82.4187 84.8378 82.0832 85.3914 82.2981L91.2405 84.5712C92.2168 84.9504 93.2845 85.3346 94.2867 85.0306C95.4517 84.677 96.1483 83.5178 96.7349 82.4512C96.8488 82.2434 97.1808 82.2675 97.3453 82.4379C97.5096 82.6085 97.5512 82.8592 97.585 83.0936L98.0131 86.0616C98.0789 86.5173 98.1434 86.9901 98.0117 87.4315C97.88 87.8725 97.493 88.2733 97.0328 88.2645C89.5037 88.1192 81.96 88.74 74.5557 90.1144C74.3275 90.1568 74.0992 90.1997 73.8707 90.2429H73.8701L73.8698 90.2432H73.8696H73.869L73.8688 90.2435H73.8683H73.868H73.8674C72.0986 90.5776 70.3234 90.9128 68.5258 90.9187C69.3938 89.6893 70.4938 88.6451 71.5861 87.6096C72.1856 87.0411 72.9355 86.428 73.7405 86.6139C74.1755 86.7144 74.5088 87.0266 74.8405 87.3376C74.9469 87.437 75.0531 87.5365 75.1624 87.6291C75.6128 88.0091 76.3098 88.2733 76.765 87.8992ZM173.358 108.603C173.159 108.677 172.936 108.626 172.733 108.562C171.356 108.13 170.238 107.162 169.139 106.21C168.99 106.082 168.841 105.953 168.693 105.826C166.872 104.273 164.896 102.902 162.803 101.74C162.591 101.622 162.367 101.497 162.237 101.292C162.107 101.086 162.111 100.773 162.312 100.635C163.25 99.9949 163.858 98.8957 163.903 97.7608C163.915 97.4581 164.257 97.2565 164.558 97.2808C164.86 97.3051 165.123 97.4864 165.37 97.6616L174.93 104.448C175.117 104.58 175.317 104.733 175.363 104.957C175.4 105.139 175.323 105.324 175.246 105.494C174.834 106.403 174.36 107.285 173.828 108.131C173.708 108.322 173.57 108.524 173.358 108.603ZM163.794 100.552C163.681 100.75 163.584 101.037 163.766 101.174L171.568 107.048C171.995 107.37 172.659 107.671 172.995 107.255C173.382 106.778 173.742 106.28 174.076 105.764C174.167 105.623 174.26 105.462 174.227 105.297C174.197 105.147 174.07 105.038 173.951 104.941C171.088 102.619 168.057 100.506 164.889 98.6213L163.794 100.552ZM159.911 104.144C160.037 103.928 160.19 103.692 160.434 103.639C160.622 103.598 160.812 103.678 160.984 103.762C161.923 104.218 162.784 104.836 163.516 105.581C163.692 105.761 163.714 106.049 163.635 106.288C163.557 106.526 163.395 106.727 163.237 106.922C162.982 107.236 162.711 107.562 162.336 107.711C161.93 107.871 161.459 107.794 161.075 107.587C160.691 107.381 160.383 107.057 160.112 106.716C159.758 106.271 159.441 105.738 159.495 105.172C159.531 104.801 159.723 104.466 159.911 104.144ZM161.554 106.635C162.145 106.865 162.523 106.683 162.538 106.295C162.548 106.051 162.335 105.862 162.141 105.713L161.554 105.262C161.36 105.113 161.146 104.956 160.902 104.958C160.657 104.959 160.408 105.212 160.508 105.435C160.493 105.543 160.963 106.405 161.554 106.635ZM159.222 111.405C159.366 111.483 159.519 111.561 159.683 111.564C159.847 111.567 160.026 111.474 160.066 111.315C160.161 110.942 160.408 110.632 160.65 110.328C160.676 110.295 160.703 110.262 160.729 110.229C160.994 109.894 161.25 109.513 161.257 109.086C161.264 108.658 160.91 108.202 160.486 108.261C160.153 108.307 159.842 108.088 159.599 107.854C159.561 107.817 159.522 107.778 159.484 107.74C159.281 107.538 159.075 107.332 158.806 107.244C158.485 107.14 158.049 107.306 158.023 107.642C157.972 108.319 157.41 108.828 156.888 109.262C156.732 109.392 156.873 109.641 157.019 109.782C157.677 110.418 158.42 110.965 159.222 111.405ZM159.326 110.115L158.299 109.42C158.038 109.243 158.059 108.81 158.292 108.598C158.525 108.385 158.887 108.369 159.183 108.475C159.481 108.582 159.727 108.79 159.967 108.995C160.126 109.131 160.148 109.378 160.075 109.573C160.003 109.769 159.855 109.926 159.711 110.077C159.661 110.129 159.606 110.183 159.535 110.193C159.46 110.202 159.389 110.158 159.326 110.115ZM167.472 110.161L167.975 109.093C168.129 108.766 168.278 108.362 168.07 108.066C167.998 107.964 167.892 107.891 167.788 107.821L165.96 106.589C165.763 106.457 165.549 106.318 165.311 106.322C165.03 106.327 164.793 106.528 164.593 106.726C164.294 107.023 164.014 107.34 163.755 107.674C163.559 107.927 163.398 108.345 163.666 108.522L166.463 110.357C166.684 110.502 166.964 110.65 167.196 110.524C167.332 110.45 167.406 110.301 167.472 110.161ZM166.853 109.405C166.735 109.432 166.613 109.402 166.497 109.367C165.791 109.155 165.145 108.747 164.648 108.202C164.483 108.021 164.576 107.7 164.786 107.573C164.996 107.446 165.269 107.475 165.495 107.57C165.641 107.631 165.775 107.717 165.909 107.802C165.982 107.849 166.055 107.896 166.131 107.939C166.212 107.985 166.297 108.028 166.381 108.07C166.622 108.191 166.862 108.311 167.026 108.52C167.248 108.802 167.202 109.325 166.853 109.405ZM167.797 110.598C168.12 110.521 168.218 110.192 168.321 109.851C168.405 109.568 168.493 109.277 168.711 109.112C169.087 108.828 169.62 109.065 170.025 109.306L171.313 110.073C171.519 110.195 171.729 110.321 171.876 110.51C172.023 110.698 172.096 110.964 171.993 111.18C171.924 111.324 171.794 111.419 171.663 111.515C171.556 111.594 171.448 111.673 171.372 111.78C171.275 111.917 171.239 112.09 171.204 112.259C171.159 112.473 171.115 112.683 170.952 112.817C170.656 113.061 170.215 112.866 169.887 112.665L168.071 111.556C167.888 111.444 167.695 111.321 167.605 111.126C167.515 110.931 167.589 110.647 167.797 110.598ZM170.177 111.699C170.437 111.61 170.646 111.418 170.847 111.23C170.992 111.094 170.798 110.87 170.624 110.772L169.512 110.146C169.396 110.081 169.234 110.021 169.145 110.119C168.855 110.435 168.813 110.951 169.047 111.31C169.282 111.669 169.771 111.838 170.177 111.699ZM157.416 111.66C157.167 111.59 156.914 111.519 156.711 111.38C156.395 111.165 155.955 111.217 155.624 111.407C155.292 111.597 155.045 111.903 154.806 112.201C154.673 112.366 154.537 112.539 154.486 112.745C154.435 112.951 154.496 113.2 154.681 113.303L156.621 114.385C156.767 114.466 156.932 114.551 157.096 114.515C157.259 114.478 157.372 114.333 157.47 114.198L157.969 113.511C158.247 113.129 158.537 112.642 158.334 112.215C158.171 111.873 157.799 111.768 157.416 111.66ZM156.802 113.439C156.701 113.466 156.597 113.417 156.503 113.369L155.182 112.697C155.436 112.337 155.919 112.199 156.357 112.243C156.795 112.286 157.202 112.481 157.598 112.673L156.991 113.303C156.937 113.36 156.878 113.419 156.802 113.439ZM147.649 86.5501C147.853 86.8621 147.789 87.2789 147.654 87.6264C147.475 88.0843 147.172 88.5085 146.745 88.7523C146.318 88.9957 145.757 89.0314 145.341 88.7696C144.925 88.5077 144.716 87.9256 144.939 87.4875C144.991 87.3861 145.061 87.2962 145.131 87.2064C145.199 87.1205 145.266 87.0347 145.317 86.9384C145.351 86.8752 145.377 86.808 145.403 86.741C145.441 86.6442 145.478 86.5477 145.538 86.4635C145.749 86.1635 146.167 86.1045 146.534 86.1098C146.95 86.1157 147.42 86.2018 147.649 86.5501ZM146.719 86.7483C146.149 86.7411 145.615 87.2189 145.559 87.7858C145.535 88.0176 145.634 88.3056 145.865 88.3376C146.037 88.3613 146.189 88.228 146.305 88.0976C146.551 87.8221 146.762 87.516 146.932 87.1883C146.989 87.0781 147.039 86.9371 146.964 86.8384C146.91 86.7667 146.809 86.7493 146.719 86.7483ZM160.346 71.8885C160.302 71.3669 159.953 70.8539 159.446 70.7229C158.802 70.5571 158.178 71.0104 157.666 71.4357C157.515 71.5616 157.357 71.6968 157.293 71.8829C157.185 72.1987 157.38 72.5312 157.573 72.8037C157.793 73.116 158.029 73.4298 158.35 73.6362C158.672 73.8426 159.101 73.9229 159.439 73.7435C159.611 73.652 159.745 73.5027 159.861 73.3464C160.174 72.9264 160.39 72.4101 160.346 71.8885ZM158.918 73.2261C158.699 73.2587 158.473 73.1707 158.312 73.0195C158.071 72.7928 157.976 72.4283 158.06 72.1085C158.149 71.772 158.431 71.4939 158.769 71.4109C159.107 71.3277 159.487 71.4432 159.721 71.7005C159.712 71.7707 159.705 71.8413 159.698 71.912C159.673 72.152 159.648 72.3923 159.565 72.6173C159.457 72.9091 159.225 73.18 158.918 73.2261ZM141.583 154.603C142.771 150.402 145.013 146.59 147.231 142.831C147.606 142.195 148.071 141.496 148.799 141.375C149.086 141.328 149.237 141.016 149.335 140.742C150.538 137.367 150.654 133.613 149.662 130.17C149.378 129.187 149.727 128.145 150.072 127.182L152.745 119.728C152.467 119.247 151.941 119.036 151.409 118.822C150.963 118.643 150.513 118.462 150.199 118.12C149.312 117.153 149.981 115.616 150.676 114.503L162.856 94.9976C163.353 94.2011 164.445 93.9512 165.36 94.1635C166.275 94.3757 167.056 94.9515 167.808 95.5136L176.691 102.149C178.281 103.335 180.035 104.852 179.943 106.833C179.893 107.93 179.265 108.904 178.658 109.819L171.618 120.427C170.708 121.799 170.598 123.467 170.487 125.142C170.437 125.9 170.386 126.659 170.262 127.393C169.655 130.975 167.27 133.941 164.984 136.783L164.842 136.96C164.798 137.014 164.755 137.068 164.711 137.122C162.346 140.068 159.98 143.357 159.847 147.133C159.688 151.633 157.551 156.027 154.108 158.93L157.104 151.663C157.816 149.935 158.476 147.785 157.283 146.345C156.744 145.694 155.929 145.349 155.146 145.028L150.494 143.119C150.174 142.988 149.843 142.854 149.496 142.852C148.415 142.846 147.773 144.018 147.334 145.006C145.818 148.423 143.882 151.654 141.583 154.603ZM156.88 144.734C157.678 145.03 158.801 145.209 159.179 144.447C161.008 140.759 162.888 137.001 165.8 134.091C167.478 132.414 168.507 130.176 169.089 127.876C169.671 125.575 169.836 123.193 169.999 120.826C169.292 121.083 169.231 122.037 169.234 122.789C169.24 124.447 168.95 126.105 168.382 127.663C168.263 127.989 168.103 128.341 167.785 128.478C167.466 128.616 166.997 128.34 167.104 128.01C167.926 125.477 168.232 122.777 167.998 120.125C167.926 119.302 167.773 118.422 167.188 117.839C167.252 119.138 167.315 120.442 167.183 121.736C166.956 123.974 166.153 126.108 165.358 128.212C165.255 128.486 165.13 128.783 164.867 128.912C164.605 129.04 164.198 128.837 164.266 128.553L165.458 123.629C166.113 120.922 166.757 118.01 165.743 115.415C165.232 115.381 165.112 116.111 165.157 116.621C165.47 120.112 164.505 123.577 163.549 126.95C163.437 127.344 163.042 127.836 162.736 127.565C162.603 127.449 162.597 127.247 162.608 127.071C162.668 126.079 162.94 125.119 163.212 124.16C163.296 123.862 163.38 123.565 163.458 123.266C164.176 120.516 164.359 117.627 163.994 114.808C163.365 115.614 163.098 116.637 162.846 117.629L161.351 123.513C160.675 126.174 159.812 129.098 157.469 130.527C157.282 130.641 157.066 130.747 156.853 130.696C156.589 130.634 156.439 130.361 156.328 130.112C154.833 126.743 154.646 122.813 155.815 119.318C155.886 119.106 155.67 118.884 155.447 118.867C155.225 118.849 155.016 118.97 154.833 119.099C152.914 120.453 152.179 122.906 151.569 125.173L150.757 128.189C150.639 128.629 150.519 129.073 150.495 129.529C150.457 130.221 150.638 130.898 150.818 131.572C150.859 131.728 150.901 131.884 150.94 132.04C151.721 135.172 151.368 138.574 149.961 141.48C149.754 141.909 150.302 142.298 150.748 142.464L156.88 144.734ZM159.911 115.958C159.591 115.738 159.249 115.487 159.15 115.111C158.998 114.535 159.547 113.956 160.138 113.878C160.728 113.801 161.306 114.086 161.796 114.426C162.485 114.904 163.358 114.175 163.874 113.513C163.178 113.096 162.513 112.45 162.486 111.639C162.458 110.827 163.445 110.055 164.101 110.532C164.355 110.718 164.664 110.831 164.968 110.943C165.425 111.111 165.874 111.276 166.124 111.676C166.409 112.13 166.307 112.745 166.018 113.197C165.728 113.648 165.282 113.972 164.846 114.285C165.471 114.347 166.08 114.57 166.597 114.927L167.161 113.283C167.205 113.156 167.253 113.023 167.353 112.933C167.546 112.759 167.847 112.813 168.094 112.891C168.744 113.098 169.381 113.419 169.809 113.949C170.238 114.478 170.416 115.248 170.117 115.859C169.817 116.471 168.972 116.798 168.399 116.429C168.281 116.352 168.161 116.25 168.042 116.148C167.723 115.874 167.403 115.601 167.095 115.819C168.036 116.552 168.682 117.653 168.864 118.831C171.826 114.32 174.756 109.787 177.654 105.234C177.931 104.799 178.154 104.114 177.704 103.864C175.779 102.796 174.078 101.366 172.381 99.9395C170.238 98.1387 168.103 96.3435 165.532 95.2891C165.369 95.2221 165.19 95.1576 165.02 95.2024C164.841 95.2496 164.715 95.4051 164.603 95.5517C159.816 101.799 155.52 108.423 151.767 115.342C151.244 116.307 151.945 117.458 152.615 118.327C152.95 118.762 153.596 119.221 153.962 118.812C154.422 118.296 155.177 118.001 155.829 118.231C156.481 118.462 156.886 119.309 156.531 119.903C156.275 120.332 156.777 120.81 157.216 121.05C158.092 121.53 158.991 121.969 159.909 122.364C160.036 122.419 160.185 122.473 160.309 122.411C160.427 122.352 160.475 122.211 160.512 122.084L161.529 118.586C161.696 118.011 161.808 117.265 161.314 116.925L159.911 115.958ZM178.096 106.154C177.961 106.107 177.838 106.242 177.758 106.361L170.147 117.754C169.942 118.061 169.733 118.38 169.673 118.743C169.613 119.107 169.747 119.53 170.078 119.692C170.626 119.96 171.199 119.397 171.551 118.898L178.623 108.875C179.148 108.131 178.704 107.114 178.254 106.321C178.215 106.253 178.17 106.179 178.096 106.154ZM156.666 121.368C156.532 121.27 156.332 121.329 156.22 121.45C156.108 121.573 156.062 121.74 156.019 121.9C155.915 122.294 155.811 122.693 155.795 123.101C155.78 123.508 155.854 123.914 155.928 124.315L156.657 128.277C156.687 128.443 156.723 128.619 156.841 128.74C156.959 128.861 157.188 128.888 157.284 128.748C158.362 127.17 159.457 125.562 160.021 123.736C160.091 123.509 160.111 123.19 159.889 123.106C158.743 122.675 157.656 122.089 156.666 121.368ZM165.083 111.593C164.718 111.245 164.235 111.022 163.733 110.971C163.276 110.924 163.012 111.567 163.221 111.977C163.43 112.387 163.891 112.59 164.318 112.761C164.619 112.882 164.985 112.995 165.247 112.805C165.625 112.531 165.421 111.914 165.083 111.593ZM162.079 116.183C162.227 116.078 162.247 115.861 162.205 115.683C162.048 115.012 161.313 114.67 160.653 114.473C160.397 114.397 160.079 114.344 159.899 114.541C159.749 114.705 159.781 114.977 159.911 115.157C160.041 115.338 160.243 115.45 160.439 115.555L161.459 116.104C161.653 116.209 161.899 116.311 162.079 116.183ZM167.881 113.766C167.665 114.055 167.687 114.476 167.867 114.789C168.047 115.101 168.359 115.318 168.688 115.466C168.801 115.517 168.925 115.561 169.046 115.537C169.151 115.516 169.24 115.446 169.304 115.361C169.539 115.046 169.425 114.572 169.155 114.286C168.885 114 168.501 113.857 168.131 113.723C168.068 113.7 167.993 113.677 167.935 113.712C167.93 113.715 167.925 113.719 167.92 113.723C167.905 113.735 167.893 113.751 167.881 113.766ZM65.6123 139.971C65.7533 138.927 65.9512 137.779 66.7709 137.118C67.4248 136.591 68.3221 136.507 69.1616 136.491C71.9114 136.438 74.6704 136.885 77.2632 137.802C78.0834 138.093 78.9418 138.475 79.3904 139.221C79.8757 140.028 79.7576 141.046 79.6232 141.978L77.5408 156.446C78.9768 152.256 80.0077 147.927 80.6144 143.54C80.8976 141.494 80.9962 139.145 79.5677 137.652C77.3378 135.322 77.3986 132.002 77.4605 128.627C77.5138 125.714 77.568 122.759 76.1509 120.363C75.6885 119.581 76.7194 118.774 77.5768 118.474C81.3554 117.151 85.3834 116.544 89.3845 116.694C90.1178 122.489 90.3163 128.35 89.9763 134.181C89.9 135.489 91.7546 135.826 93.0565 135.682L138.22 130.674C138.446 130.649 138.69 130.615 138.85 130.454C139.038 130.265 139.047 129.97 139.044 129.704C138.938 119.122 138.633 108.543 138.131 97.9723C138.111 97.5597 138.059 97.0861 137.717 96.8539C137.461 96.6797 137.124 96.7027 136.816 96.7325L104.58 99.8576C106.698 89.8696 108.827 79.6944 107.862 69.5301C100.815 74.2285 91.7216 74.1933 83.2664 73.6957C82.9152 73.6752 82.5629 73.6541 82.2101 73.6331C74.0733 73.1467 65.5882 72.6397 58.2733 76.1595C62.1034 86.3144 65.9773 97.3989 62.7936 107.775C62.512 108.693 62.1768 109.594 61.8419 110.496C61.3253 111.885 60.8093 113.274 60.4901 114.72C59.964 117.103 60.0429 119.771 61.4533 121.763C63.4957 124.647 65.1186 127.927 65.489 131.442C65.8402 134.777 65.0552 138.085 64.2712 141.389C63.452 144.841 62.6339 148.289 63.1136 151.761C63.1949 152.348 63.3413 152.979 63.8013 153.354L65.6123 139.971ZM68.8075 98.0584C69.6616 98.0885 70.001 99.1608 70.1101 100.009L70.9749 106.72C69.2867 105.845 66.9115 107.331 66.96 109.232C65.5371 106.486 65.321 103.339 65.1072 100.223C65.0605 99.5459 65.0141 98.8696 64.9554 98.1992C64.3272 91.032 62.1672 84.0995 60.0205 77.2325C59.7144 76.2533 61.0365 75.6184 62.0514 75.4693C68.7128 74.4928 75.4544 74.6277 82.1992 74.7627C85.2565 74.8237 88.3144 74.8848 91.3656 74.8427C96.7874 74.7675 102.524 74.2541 106.922 71.0827C107.911 77.6725 106.567 84.3211 105.241 90.8861C105.061 91.7741 104.882 92.6605 104.709 93.5451C103.257 100.97 102.269 108.883 105.047 115.919C105.164 116.216 104.765 116.44 104.453 116.505C102.168 116.981 99.8053 117.084 97.4874 116.807C96.4933 116.689 95.5096 116.501 94.5256 116.314C93.7845 116.172 93.0434 116.031 92.2978 115.919C86.6837 115.077 80.824 115.951 75.7003 118.396C75.4949 118.494 75.2506 118.448 75.0357 118.373C73.9981 118.014 73.2578 117.055 72.8885 116.021C72.5192 114.987 72.4664 113.871 72.417 112.774L72.2104 108.173C72.2029 108.008 72.2461 107.784 72.4117 107.778C81.3869 107.498 90.352 106.893 99.2834 105.965C98.9058 103.851 98.8685 101.678 99.173 99.5531C99.3653 98.2115 98.1037 96.9885 96.7605 96.8091C95.4173 96.6293 94.089 97.2378 92.9736 98.0077C92.5565 98.2957 92.1557 98.6085 91.7554 98.9211C91.0856 99.444 90.4162 99.9667 89.6709 100.372C89.1832 100.637 88.5965 100.85 88.0843 100.636C87.4576 100.374 87.2474 99.6285 87.0597 98.9629C87.048 98.921 87.0363 98.8797 87.0245 98.8386C86.78 97.9813 86.3765 97.128 85.6664 96.5888C84.9565 96.0496 83.8853 95.9154 83.1845 96.4664C82.5853 96.9376 82.396 97.7536 82.2954 98.5091C82.2866 98.5763 82.2779 98.6437 82.2693 98.7117C82.1803 99.4064 82.0882 100.124 81.6736 100.681C81.2186 101.293 80.2032 101.555 79.704 100.979C78.7171 99.8394 76.985 99.6005 75.5317 100.001C74.0781 100.4 72.8346 101.324 71.6288 102.228C70.9013 101.09 70.841 99.557 71.477 98.365L71.4877 98.3453C71.6075 98.1216 71.7448 97.8645 71.6389 97.6365C71.5736 97.4954 71.429 97.4088 71.2861 97.3475C70.4309 96.9808 69.3384 97.2941 68.8075 98.0584ZM94.5064 117.298C94.9845 117.393 95.5722 117.606 95.6018 118.093C95.8837 122.734 99.5725 126.906 104.108 127.933C108.643 128.96 113.669 126.883 116.314 123.058C118.958 119.233 119.165 113.919 116.997 109.805C114.671 105.394 109.02 103.051 104.255 104.523C104.034 103.549 104.059 102.519 104.327 101.556C104.377 101.377 104.442 101.19 104.586 101.073C104.727 100.959 104.918 100.933 105.098 100.911L118.519 99.2949C119.699 99.1528 120.883 99.0104 122.071 99.0005C127.182 98.9587 132.289 98.4488 137.307 97.4802C138.087 107.951 138.454 118.453 138.407 128.953C138.405 129.45 138.253 130.113 137.755 130.127C129.308 130.373 120.927 131.484 112.543 132.596C106.911 133.343 101.277 134.09 95.6194 134.575C94.3586 134.683 93.0893 134.778 91.8293 134.658C91.601 134.636 91.3434 134.589 91.2194 134.397C91.1445 134.28 91.1362 134.134 91.1298 133.996L90.3768 117.202C90.3669 116.985 90.3802 116.723 90.568 116.615C90.6925 116.542 90.8485 116.568 90.9896 116.597L94.5064 117.298ZM71.396 113.41C71.2624 114.282 71.1122 115.263 71.6837 115.923C73.8152 118.385 76.0296 121.015 76.596 124.221C76.8605 125.719 76.7469 127.26 76.6339 128.794C76.4912 130.728 76.3493 132.651 76.965 134.465C76.981 134.512 76.9976 134.559 77.0144 134.607C77.1274 134.93 77.2427 135.26 77.2061 135.597C77.164 135.985 76.828 136.374 76.444 136.308L71.9882 135.539C70.5125 135.285 68.9536 135.037 67.5517 135.564C67.2808 135.666 66.9688 135.487 66.8237 135.237C66.6784 134.986 66.6595 134.685 66.6467 134.395C66.6315 134.046 66.6203 133.695 66.6088 133.342C66.5368 131.124 66.4634 128.864 65.4365 126.92L62.1608 120.719C61.6771 119.803 61.1821 118.847 61.1488 117.812C61.1264 117.121 61.3131 116.442 61.4981 115.776L63.1323 109.889C63.4763 108.65 63.8403 107.371 64.6552 106.376C66.6347 109.734 66.8298 114.079 65.1597 117.601C65.0053 117.927 65.4773 118.263 65.8138 118.133C66.1501 118.003 66.321 117.634 66.4397 117.294C66.9146 115.93 67.0813 114.492 67.248 113.051C67.3832 111.886 67.5181 110.72 67.817 109.59C68 108.898 68.2642 108.191 68.7986 107.715C69.333 107.238 70.2048 107.075 70.7648 107.521C71.1933 107.862 71.3328 108.446 71.4144 108.988C71.6293 110.417 71.6285 111.879 71.4114 113.308C71.4064 113.342 71.401 113.375 71.396 113.41ZM79.0845 101.788C79.7413 102.29 80.3845 102.783 81.1728 102.691C82.1744 102.576 82.7986 101.545 83.0896 100.579C83.1533 100.368 83.2098 100.151 83.2666 99.9347C83.4693 99.1611 83.6736 98.3813 84.2042 97.7994C84.3584 97.6301 84.5805 97.4728 84.7997 97.5392C84.977 97.5928 85.0805 97.7725 85.1629 97.9386C85.2797 98.1741 85.3904 98.4133 85.5008 98.6528C85.8125 99.3283 86.1245 100.004 86.5773 100.59C87.1904 101.385 88.1448 102.01 89.1426 101.901C90.0349 101.803 90.7322 101.171 91.4117 100.555C91.5509 100.429 91.6896 100.303 91.8291 100.183C93.4659 98.772 95.5976 97.9461 97.7581 97.8867C97.4666 98.6149 97.661 99.4093 97.8517 100.189C97.8976 100.377 97.9432 100.563 97.9818 100.748C98.2869 102.206 98.1328 103.757 97.5466 105.127L83.1162 106.238C79.7474 106.497 76.3701 106.757 72.9936 106.638C72.7803 106.63 72.5616 106.62 72.3653 106.536C71.9946 106.378 71.7744 105.982 71.6947 105.587C71.5157 104.701 71.9242 103.778 72.5432 103.119C73.1618 102.46 73.9699 102.016 74.7635 101.583C75.5893 101.133 76.5061 100.668 77.4269 100.86C78.0397 100.988 78.5664 101.391 79.0845 101.788ZM106.41 122.808C104.224 122.763 102.33 120.98 101.681 118.892C101.548 118.465 101.824 117.998 102.204 117.763C102.584 117.529 103.044 117.474 103.488 117.424L106.691 117.065C105.717 115.171 105.023 113.134 104.639 111.039C104.605 110.85 104.573 110.65 104.633 110.466C104.738 110.144 105.086 109.974 105.407 109.866C108.01 108.992 111.134 110.054 112.665 112.333C114.195 114.613 113.995 117.907 112.198 119.984C111.421 120.883 110.402 121.546 109.328 122.057C108.413 122.492 107.424 122.829 106.41 122.808ZM116.784 111.554C117.173 112.839 117.285 114.19 117.339 115.531C116.465 115.399 115.583 115.324 114.7 115.307C114.527 113.051 113.026 111.013 111.052 109.907C109.078 108.802 106.696 108.563 104.466 108.942C104.447 108.623 104.389 108.292 104.331 107.96C104.178 107.085 104.025 106.209 104.591 105.587C104.933 105.212 105.454 105.062 105.953 104.969C108.227 104.545 110.651 104.989 112.628 106.191C114.604 107.393 116.114 109.341 116.784 111.554ZM100.751 118.664C100.747 118.706 100.744 118.747 100.742 118.786C100.727 119.097 100.872 119.383 101.016 119.666C101.055 119.742 101.093 119.818 101.128 119.894C101.295 120.253 101.376 120.725 101.097 121.007C100.423 121.687 99.8277 122.445 99.3261 123.26C99.2021 123.462 98.8968 123.478 98.6928 123.358C98.4888 123.238 98.3624 123.023 98.2445 122.818C97.4989 121.518 96.7346 120.158 96.6416 118.662C96.6301 118.476 96.6507 118.251 96.8155 118.165C96.8883 118.126 96.9738 118.125 97.056 118.125L100.391 118.115C100.47 118.115 100.554 118.115 100.623 118.155C100.787 118.248 100.768 118.464 100.751 118.664Z" fill="#1A1A1A"/>
</svg>
