<svg width="62" height="62" viewBox="0 0 62 62" fill="none" xmlns="http://www.w3.org/2000/svg">
<g clip-path="url(#clip0_305_240)">
<path d="M31.9831 49.4652L37.8522 56.918L31.0123 60.9961L27.3209 58.793L31.9831 49.4652Z" fill="#141521"/>
<path d="M32.7359 47.9781L39.149 56.1367L56.0185 46.0019V39.9977L43.6213 26.1966L32.7359 47.9781Z" fill="#141521"/>
<path d="M30.9537 48.1641L26.0319 58.0195L14.5358 51.1562L22.7155 37.6953L30.9537 48.1641Z" fill="#141521"/>
<path d="M6.01233 46.0039L13.2428 50.3867L21.7272 36.4336L8.67639 19.8555L6.01233 23.3203V46.0039Z" fill="#141521"/>
<path d="M23.5475 36.3242L31.6998 46.6719L42.5358 24.9922L35.3029 16.9677L23.5475 36.3242Z" fill="#141521"/>
<path d="M7.72717 18.6406L6.01624 20.8594V16.4687L7.72717 18.6406Z" fill="#141521"/>
<path d="M7.01233 15.3281L8.66467 17.4141L13.0397 11.7305L7.01233 15.3281Z" fill="#141521"/>
<path d="M44.3405 24.7578L56.0084 37.7422L56.0123 15.9961L50.4186 12.5938L44.3405 24.7578Z" fill="#141521"/>
<path d="M36.1295 15.6289L43.2623 23.5625L49.1334 11.8164L41.2858 7.14453L36.1295 15.6289Z" fill="#141521"/>
<path d="M9.6217 18.6406L22.5631 35.0742L34.2662 15.8008L24.4733 4.89844L16.5319 9.64062L9.6217 18.6406Z" fill="#141521"/>
<path d="M25.7819 4.125L35.0787 14.4648L40.0045 6.36328L31.0123 1L25.7819 4.125Z" fill="#141521"/>
</g>
<defs>
<clipPath id="clip0_305_240">
<rect width="51" height="60" fill="white" transform="translate(6 1)"/>
</clipPath>
</defs>
</svg>
