<svg viewBox="0 0 51 60" fill="none" xmlns="http://www.w3.org/2000/svg"><path d="M26.9516 48.4652L32.8206 55.918L25.9807 59.9961L22.2893 57.793L26.9516 48.4652Z" fill="currentColor"/><path d="M27.7043 46.9781L34.1175 55.1367L50.9869 45.0019V38.9977L38.5897 25.1966L27.7043 46.9781Z" fill="currentColor"/><path d="M25.9221 47.1641L21.0003 57.0195L9.50418 50.1562L17.6839 36.6953L25.9221 47.1641Z" fill="currentColor"/><path d="M0.980743 45.0039L8.21121 49.3867L16.6956 35.4336L3.64481 18.8555L0.980743 22.3203L0.980743 45.0039Z" fill="currentColor"/><path d="M18.5159 35.3242L26.6682 45.6719L37.5042 23.9922L30.2713 15.9677L18.5159 35.3242Z" fill="currentColor"/><path d="M2.69559 17.6406L0.98465 19.8594V15.4687L2.69559 17.6406Z" fill="currentColor"/><path d="M1.98074 14.3281L3.63309 16.4141L8.00809 10.7305L1.98074 14.3281Z" fill="currentColor"/><path d="M39.3089 23.7578L50.9768 36.7422L50.9807 14.9961L45.387 11.5938L39.3089 23.7578Z" fill="currentColor"/><path d="M31.0979 14.6289L38.2307 22.5625L44.1018 10.8164L36.2542 6.14453L31.0979 14.6289Z" fill="currentColor"/><path d="M4.59012 17.6406L17.5315 34.0742L29.2346 14.8008L19.4417 3.89844L11.5003 8.64062L4.59012 17.6406Z" fill="currentColor"/><path d="M20.7503 3.125L30.0471 13.4648L34.9729 5.36328L25.9807 0L20.7503 3.125Z" fill="currentColor"/></svg>